<svg viewBox="0 0 225 107" xmlns="http://www.w3.org/2000/svg" xmlns:xlink="http://www.w3.org/1999/xlink" width="225.000000" height="107.000000" fill="none" customFrame="#000000">
	<defs>
		<clipPath id="clipPath_0">
			<rect width="225.000000" height="107.000000" x="0.000000" y="0.000000" fill="rgb(255,255,255)" />
		</clipPath>
		<clipPath id="clipPath_1">
			<rect width="153.000000" height="50.000000" x="0.000000" y="55.000000" rx="25.000000" fill="rgb(255,255,255)" />
		</clipPath>
		<clipPath id="clipPath_2">
			<rect width="124.999992" height="49.000000" x="0.000000" y="0.000000" rx="24.500000" fill="rgb(255,255,255)" transform="matrix(0.848048,0.529919,-0.531635,0.846974,119,0)" />
		</clipPath>
	</defs>
	<g id="Group 2">
		<g id="element" customFrame="url(#clipPath_0)">
			<rect id="element" width="225.000000" height="107.000000" x="0.000000" y="0.000000" />
			<g id="4" customFrame="url(#clipPath_1)">
				<rect id="4" width="153.000000" height="50.000000" x="0.000000" y="55.000000" rx="25.000000" fill="rgb(13,23,29)" />
				<path id="Rick and" d="M31.88 87.17L31.88 73.17L37.64 73.17C38.88 73.17 39.94 73.37 40.82 73.77C41.7133 74.17 42.4 74.7433 42.88 75.49C43.36 76.2367 43.6 77.1233 43.6 78.15C43.6 79.1767 43.36 80.0633 42.88 80.81C42.4 81.5433 41.7133 82.11 40.82 82.51C39.94 82.8967 38.88 83.09 37.64 83.09L33.32 83.09L34.48 81.91L34.48 87.17L31.88 87.17ZM41.04 87.17L37.5 82.09L40.28 82.09L43.84 87.17L41.04 87.17ZM34.48 82.19L33.32 80.95L37.52 80.95C38.6667 80.95 39.5267 80.7033 40.1 80.21C40.6867 79.7167 40.98 79.03 40.98 78.15C40.98 77.2567 40.6867 76.57 40.1 76.09C39.5267 75.61 38.6667 75.37 37.52 75.37L33.32 75.37L34.48 74.09L34.48 82.19ZM46.7089 87.17L46.7089 76.49L49.2089 76.49L49.2089 87.17L46.7089 87.17ZM47.9689 74.73C47.5022 74.73 47.1156 74.5833 46.8089 74.29C46.5156 73.9967 46.3689 73.6433 46.3689 73.23C46.3689 72.8033 46.5156 72.45 46.8089 72.17C47.1156 71.8767 47.5022 71.73 47.9689 71.73C48.4356 71.73 48.8156 71.87 49.1089 72.15C49.4156 72.4167 49.5689 72.7567 49.5689 73.17C49.5689 73.61 49.4222 73.9833 49.1289 74.29C48.8356 74.5833 48.4489 74.73 47.9689 74.73ZM57.8302 87.31C56.7102 87.31 55.7102 87.0767 54.8302 86.61C53.9635 86.13 53.2835 85.4767 52.7902 84.65C52.2968 83.8233 52.0502 82.8833 52.0502 81.83C52.0502 80.7633 52.2968 79.8233 52.7902 79.01C53.2835 78.1833 53.9635 77.5367 54.8302 77.07C55.7102 76.6033 56.7102 76.37 57.8302 76.37C58.8702 76.37 59.7835 76.5833 60.5702 77.01C61.3702 77.4233 61.9768 78.0367 62.3902 78.85L60.4702 79.97C60.1502 79.4633 59.7568 79.09 59.2902 78.85C58.8368 78.61 58.3435 78.49 57.8102 78.49C57.1968 78.49 56.6435 78.6233 56.1502 78.89C55.6568 79.1567 55.2702 79.5433 54.9902 80.05C54.7102 80.5433 54.5702 81.1367 54.5702 81.83C54.5702 82.5233 54.7102 83.1233 54.9902 83.63C55.2702 84.1233 55.6568 84.5033 56.1502 84.77C56.6435 85.0367 57.1968 85.17 57.8102 85.17C58.3435 85.17 58.8368 85.05 59.2902 84.81C59.7568 84.57 60.1502 84.1967 60.4702 83.69L62.3902 84.81C61.9768 85.61 61.3702 86.23 60.5702 86.67C59.7835 87.0967 58.8702 87.31 57.8302 87.31ZM66.9336 84.79L66.9936 81.65L72.5736 76.49L75.5736 76.49L70.8336 81.25L69.5136 82.35L66.9336 84.79ZM64.8936 87.17L64.8936 72.33L67.3936 72.33L67.3936 87.17L64.8936 87.17ZM72.9536 87.17L69.0536 82.35L70.6336 80.35L75.9936 87.17L72.9536 87.17ZM90.5958 87.17L90.5958 85.01L90.4558 84.55L90.4558 80.77C90.4558 80.0367 90.2358 79.47 89.7958 79.07C89.3558 78.6567 88.6891 78.45 87.7958 78.45C87.1958 78.45 86.6024 78.5433 86.0158 78.73C85.4424 78.9167 84.9558 79.1767 84.5558 79.51L83.5758 77.69C84.1491 77.25 84.8291 76.9233 85.6158 76.71C86.4158 76.4833 87.2424 76.37 88.0958 76.37C89.6424 76.37 90.8358 76.7433 91.6758 77.49C92.5291 78.2233 92.9558 79.3633 92.9558 80.91L92.9558 87.17L90.5958 87.17ZM87.2358 87.31C86.4358 87.31 85.7358 87.1767 85.1358 86.91C84.5358 86.63 84.0691 86.25 83.7358 85.77C83.4158 85.2767 83.2558 84.7233 83.2558 84.11C83.2558 83.51 83.3958 82.97 83.6758 82.49C83.9691 82.01 84.4424 81.63 85.0958 81.35C85.7491 81.07 86.6158 80.93 87.6958 80.93L90.7958 80.93L90.7958 82.59L87.8758 82.59C87.0224 82.59 86.4491 82.73 86.1558 83.01C85.8624 83.2767 85.7158 83.61 85.7158 84.01C85.7158 84.4633 85.8958 84.8233 86.2558 85.09C86.6158 85.3567 87.1158 85.49 87.7558 85.49C88.3691 85.49 88.9158 85.35 89.3958 85.07C89.8891 84.79 90.2424 84.3767 90.4558 83.83L90.8758 85.33C90.6358 85.9567 90.2025 86.4433 89.5758 86.79C88.9624 87.1367 88.1824 87.31 87.2358 87.31ZM102.664 76.37C103.518 76.37 104.278 76.5367 104.944 76.87C105.624 77.2033 106.158 77.7167 106.544 78.41C106.931 79.09 107.124 79.97 107.124 81.05L107.124 87.17L104.624 87.17L104.624 81.37C104.624 80.4233 104.398 79.7167 103.944 79.25C103.504 78.7833 102.884 78.55 102.084 78.55C101.498 78.55 100.978 78.67 100.524 78.91C100.071 79.15 99.7176 79.51 99.4642 79.99C99.2242 80.4567 99.1042 81.05 99.1042 81.77L99.1042 87.17L96.6042 87.17L96.6042 76.49L98.9842 76.49L98.9842 79.37L98.5642 78.49C98.9376 77.81 99.4776 77.29 100.184 76.93C100.904 76.5567 101.731 76.37 102.664 76.37ZM115.275 87.31C114.248 87.31 113.322 87.0833 112.495 86.63C111.682 86.1633 111.042 85.5233 110.575 84.71C110.108 83.8967 109.875 82.9367 109.875 81.83C109.875 80.7233 110.108 79.7633 110.575 78.95C111.042 78.1367 111.682 77.5033 112.495 77.05C113.322 76.5967 114.248 76.37 115.275 76.37C116.168 76.37 116.968 76.57 117.675 76.97C118.382 77.3567 118.942 77.95 119.355 78.75C119.768 79.55 119.975 80.5767 119.975 81.83C119.975 83.07 119.775 84.0967 119.375 84.91C118.975 85.71 118.422 86.31 117.715 86.71C117.008 87.11 116.195 87.31 115.275 87.31ZM115.575 85.17C116.175 85.17 116.708 85.0367 117.175 84.77C117.655 84.5033 118.035 84.1167 118.315 83.61C118.608 83.1033 118.755 82.51 118.755 81.83C118.755 81.1367 118.608 80.5433 118.315 80.05C118.035 79.5433 117.655 79.1567 117.175 78.89C116.708 78.6233 116.175 78.49 115.575 78.49C114.975 78.49 114.435 78.6233 113.955 78.89C113.488 79.1567 113.108 79.5433 112.815 80.05C112.535 80.5433 112.395 81.1367 112.395 81.83C112.395 82.51 112.535 83.1033 112.815 83.61C113.108 84.1167 113.488 84.5033 113.955 84.77C114.435 85.0367 114.975 85.17 115.575 85.17ZM118.815 87.17L118.815 84.65L118.915 81.81L118.715 78.97L118.715 72.33L121.195 72.33L121.195 87.17L118.815 87.17Z" fill="rgb(250,250,250)" fill-rule="nonzero" />
			</g>
			<g id="2" clip-path="url(#clipPath_2)" customFrame="url(#clipPath_2)">
				<rect id="2" width="124.999992" height="49.000000" x="0.000000" y="0.000000" rx="24.500000" fill="rgb(218,248,54)" transform="matrix(0.848048,0.529919,-0.531635,0.846974,119,0)" />
				<path id="Morty" d="M1.974 18.5285L1.974 3.8285L4.221 3.8285L10.647 14.5595L9.471 14.5595L15.792 3.8285L18.039 3.8285L18.06 18.5285L15.477 18.5285L15.456 7.8815L16.002 7.8815L10.626 16.8485L9.408 16.8485L3.948 7.8815L4.578 7.8815L4.578 18.5285L1.974 18.5285ZM27.2586 18.6755C26.1106 18.6755 25.0886 18.4305 24.1926 17.9405C23.2966 17.4365 22.5896 16.7505 22.0716 15.8825C21.5536 15.0145 21.2946 14.0275 21.2946 12.9215C21.2946 11.8015 21.5536 10.8145 22.0716 9.9605C22.5896 9.0925 23.2966 8.4135 24.1926 7.9235C25.0886 7.4335 26.1106 7.1885 27.2586 7.1885C28.4206 7.1885 29.4496 7.4335 30.3456 7.9235C31.2556 8.4135 31.9626 9.0855 32.4666 9.9395C32.9846 10.7935 33.2436 11.7875 33.2436 12.9215C33.2436 14.0275 32.9846 15.0145 32.4666 15.8825C31.9626 16.7505 31.2556 17.4365 30.3456 17.9405C29.4496 18.4305 28.4206 18.6755 27.2586 18.6755ZM27.2586 16.4285C27.9026 16.4285 28.4766 16.2885 28.9806 16.0085C29.4846 15.7285 29.8766 15.3225 30.1566 14.7905C30.4506 14.2585 30.5976 13.6355 30.5976 12.9215C30.5976 12.1935 30.4506 11.5705 30.1566 11.0525C29.8766 10.5205 29.4846 10.1145 28.9806 9.8345C28.4766 9.5545 27.9096 9.4145 27.2796 9.4145C26.6356 9.4145 26.0616 9.5545 25.5576 9.8345C25.0676 10.1145 24.6756 10.5205 24.3816 11.0525C24.0876 11.5705 23.9406 12.1935 23.9406 12.9215C23.9406 13.6355 24.0876 14.2585 24.3816 14.7905C24.6756 15.3225 25.0676 15.7285 25.5576 16.0085C26.0616 16.2885 26.6286 16.4285 27.2586 16.4285ZM36.1938 18.5285L36.1938 7.3145L38.6928 7.3145L38.6928 10.4015L38.3988 9.4985C38.7348 8.7425 39.2598 8.1685 39.9738 7.7765C40.7018 7.3845 41.6048 7.1885 42.6828 7.1885L42.6828 9.6875C42.5708 9.6595 42.4658 9.6455 42.3678 9.6455C42.2698 9.6315 42.1718 9.6245 42.0738 9.6245C41.0798 9.6245 40.2888 9.9185 39.7008 10.5065C39.1128 11.0805 38.8188 11.9415 38.8188 13.0895L38.8188 18.5285L36.1938 18.5285ZM49.9808 18.6755C48.7488 18.6755 47.7968 18.3605 47.1248 17.7305C46.4528 17.0865 46.1168 16.1415 46.1168 14.8955L46.1168 4.8365L48.7418 4.8365L48.7418 14.8325C48.7418 15.3645 48.8748 15.7775 49.1408 16.0715C49.4208 16.3655 49.8058 16.5125 50.2958 16.5125C50.8838 16.5125 51.3738 16.3585 51.7658 16.0505L52.5008 17.9195C52.1928 18.1715 51.8148 18.3605 51.3668 18.4865C50.9188 18.6125 50.4568 18.6755 49.9808 18.6755ZM44.2688 9.4985L44.2688 7.3985L51.7448 7.3985L51.7448 9.4985L44.2688 9.4985ZM55.8191 22.7495C55.2731 22.7495 54.7271 22.6585 54.1811 22.4765C53.6351 22.2945 53.1801 22.0425 52.8161 21.7205L53.8661 19.7885C54.1321 20.0265 54.4331 20.2155 54.7691 20.3555C55.1051 20.4955 55.4481 20.5655 55.7981 20.5655C56.2741 20.5655 56.6591 20.4465 56.9531 20.2085C57.2471 19.9705 57.5201 19.5715 57.7721 19.0115L58.4231 17.5415L58.6331 17.2265L62.8751 7.3145L65.3951 7.3145L60.1451 19.4315C59.7951 20.2715 59.4031 20.9365 58.9691 21.4265C58.5491 21.9165 58.0731 22.2595 57.5411 22.4555C57.0231 22.6515 56.4491 22.7495 55.8191 22.7495ZM58.1291 18.9275L53.0681 7.3145L55.7981 7.3145L59.9141 16.9955L58.1291 18.9275Z" fill="rgb(17,17,17)" fill-rule="nonzero" transform="matrix(0.848048,0.529919,-0.531635,0.846974,136.574,27.4902)" />
			</g>
		</g>
	</g>
</svg>
