<svg aria-hidden="true" style="position: absolute; width: 0; height: 0; overflow: hidden;" version="1.1" xmlns="http://www.w3.org/2000/svg" xmlns:xlink="http://www.w3.org/1999/xlink">
<defs>
<symbol id="icon-tags" viewBox="0 0 260 32">
<path fill="#0d171d" style="fill: var(--color1, #0d171d)" d="M151.925 19.503h30.335c2.546 0 4.611 2.064 4.611 4.611s-2.064 4.611-4.611 4.611h-30.335c-2.546 0-4.611-2.064-4.611-4.611s2.064-4.611 4.611-4.611z"></path>
<path fill="#fafafa" style="fill: var(--color2, #fafafa)" d="M151.749 25.52v-2.719h1.119c0.241 0 0.447 0.039 0.618 0.117 0.173 0.078 0.307 0.189 0.4 0.334s0.14 0.317 0.14 0.517-0.047 0.372-0.14 0.517c-0.093 0.142-0.227 0.253-0.4 0.33-0.171 0.075-0.377 0.113-0.618 0.113h-0.839l0.225-0.229v1.022h-0.505zM153.528 25.52l-0.688-0.987h0.54l0.691 0.987h-0.544zM152.254 24.552l-0.225-0.241h0.816c0.223 0 0.39-0.048 0.501-0.144 0.114-0.096 0.171-0.229 0.171-0.4 0-0.174-0.057-0.307-0.171-0.4-0.111-0.093-0.278-0.14-0.501-0.14h-0.816l0.225-0.249v1.573zM154.625 25.52v-2.074h0.486v2.074h-0.486zM154.87 23.103c-0.091 0-0.166-0.029-0.225-0.085-0.053-0.051-0.085-0.123-0.085-0.202 0-0.001 0-0.003 0-0.004v0c0-0.083 0.029-0.151 0.085-0.206 0.060-0.057 0.135-0.085 0.225-0.085s0.164 0.027 0.221 0.082c0.060 0.052 0.089 0.118 0.089 0.198 0 0.085-0.029 0.158-0.085 0.218-0.057 0.057-0.132 0.085-0.225 0.085zM156.781 25.547c-0.218 0-0.412-0.045-0.583-0.136-0.165-0.091-0.299-0.22-0.394-0.376l-0.003-0.005c-0.096-0.161-0.144-0.343-0.144-0.548 0-0.207 0.048-0.39 0.144-0.548 0.096-0.16 0.231-0.288 0.391-0.374l0.005-0.003c0.171-0.091 0.365-0.136 0.583-0.136 0.202 0 0.379 0.041 0.532 0.124 0.154 0.079 0.276 0.203 0.351 0.353l0.002 0.005-0.373 0.218c-0.062-0.098-0.139-0.171-0.229-0.218-0.082-0.044-0.179-0.070-0.282-0.070-0.002 0-0.004 0-0.005 0h0c-0.119 0-0.227 0.026-0.322 0.078s-0.171 0.127-0.225 0.225c-0.054 0.096-0.082 0.211-0.082 0.346s0.027 0.251 0.082 0.35c0.054 0.096 0.129 0.17 0.225 0.221s0.203 0.078 0.322 0.078c0.002 0 0.003 0 0.005 0 0.103 0 0.201-0.026 0.286-0.072l-0.003 0.002c0.091-0.047 0.167-0.119 0.229-0.218l0.373 0.218c-0.080 0.154-0.201 0.278-0.349 0.359l-0.004 0.002c-0.153 0.083-0.33 0.124-0.532 0.124zM158.545 25.057l0.012-0.61 1.084-1.002h0.583l-0.921 0.924-0.256 0.214-0.501 0.474zM158.149 25.52v-2.882h0.486v2.882h-0.486zM159.715 25.52l-0.757-0.936 0.307-0.388 1.041 1.325h-0.59zM163.133 25.52v-0.419l-0.027-0.089v-0.734c0-0.142-0.043-0.253-0.128-0.33-0.085-0.080-0.215-0.12-0.388-0.12-0.124 0-0.242 0.020-0.354 0.057l0.008-0.002c-0.111 0.036-0.206 0.087-0.284 0.151l-0.19-0.353c0.111-0.085 0.243-0.149 0.396-0.19 0.143-0.042 0.307-0.066 0.477-0.066 0.001 0 0.003 0 0.005 0h-0c0.3 0 0.532 0.073 0.695 0.218 0.166 0.142 0.249 0.364 0.249 0.664v1.216h-0.458zM162.48 25.547c-0.155 0-0.291-0.026-0.408-0.078-0.117-0.054-0.207-0.128-0.272-0.221-0.058-0.089-0.093-0.198-0.093-0.315 0-0.003 0-0.005 0-0.007v0c0-0.117 0.027-0.221 0.082-0.315 0.057-0.093 0.149-0.167 0.276-0.221s0.295-0.082 0.505-0.082h0.602v0.322h-0.567c-0.166 0-0.277 0.027-0.334 0.082-0.053 0.046-0.085 0.114-0.085 0.189 0 0.002 0 0.004 0 0.006v-0c0 0.088 0.035 0.158 0.105 0.21s0.167 0.078 0.291 0.078c0.119 0 0.225-0.027 0.319-0.082 0.094-0.054 0.167-0.137 0.205-0.238l0.001-0.003 0.082 0.291c-0.047 0.122-0.131 0.216-0.252 0.284-0.119 0.067-0.271 0.101-0.454 0.101zM165.473 23.422c0.166 0 0.313 0.032 0.443 0.097 0.132 0.065 0.236 0.164 0.311 0.299 0.075 0.132 0.113 0.303 0.113 0.513v1.189h-0.486v-1.126c0-0.184-0.044-0.321-0.132-0.412-0.085-0.091-0.206-0.136-0.361-0.136-0.114 0-0.215 0.023-0.303 0.070s-0.157 0.117-0.206 0.21c-0.047 0.091-0.070 0.206-0.070 0.346v1.049h-0.486v-2.074h0.462v0.559l-0.082-0.171c0.072-0.131 0.18-0.235 0.31-0.301l0.004-0.002c0.14-0.073 0.3-0.109 0.482-0.109zM167.918 25.547c-0.199 0-0.379-0.044-0.54-0.132-0.157-0.090-0.283-0.216-0.37-0.368l-0.003-0.005c-0.091-0.158-0.136-0.344-0.136-0.559s0.045-0.401 0.136-0.559c0.089-0.156 0.216-0.281 0.368-0.366l0.005-0.003c0.161-0.088 0.341-0.132 0.54-0.132 0.173 0 0.329 0.039 0.466 0.117 0.137 0.075 0.246 0.19 0.326 0.346s0.12 0.355 0.12 0.598c0 0.241-0.039 0.44-0.117 0.598-0.078 0.155-0.185 0.272-0.322 0.35s-0.295 0.117-0.474 0.117zM167.976 25.131c0.117 0 0.22-0.026 0.311-0.078 0.093-0.052 0.167-0.127 0.221-0.225 0.057-0.098 0.085-0.214 0.085-0.346 0-0.135-0.029-0.25-0.085-0.346-0.052-0.095-0.127-0.172-0.219-0.224l-0.003-0.001c-0.091-0.052-0.194-0.078-0.311-0.078s-0.221 0.026-0.315 0.078c-0.091 0.052-0.164 0.127-0.221 0.225-0.054 0.096-0.082 0.211-0.082 0.346 0 0.132 0.027 0.247 0.082 0.346 0.057 0.098 0.131 0.174 0.221 0.225 0.093 0.052 0.198 0.078 0.315 0.078zM168.605 25.52v-0.489l0.019-0.552-0.039-0.552v-1.29h0.482v2.882h-0.462zM170.99 25.52v-2.719h0.416l1.189 1.985h-0.218l1.169-1.985h0.416l0.004 2.719h-0.478l-0.004-1.969h0.101l-0.994 1.659h-0.225l-1.010-1.659h0.117v1.969h-0.482zM175.667 25.547c-0.212 0-0.401-0.045-0.567-0.136-0.163-0.092-0.296-0.221-0.39-0.376l-0.003-0.005c-0.096-0.161-0.144-0.343-0.144-0.548 0-0.207 0.048-0.39 0.144-0.548 0.095-0.159 0.228-0.287 0.387-0.374l0.005-0.003c0.166-0.091 0.355-0.136 0.567-0.136 0.215 0 0.405 0.045 0.571 0.136 0.164 0.087 0.297 0.214 0.39 0.368l0.002 0.005c0.096 0.158 0.144 0.342 0.144 0.552 0 0.205-0.048 0.387-0.144 0.548-0.095 0.161-0.228 0.29-0.387 0.378l-0.005 0.003c-0.166 0.091-0.356 0.136-0.571 0.136zM175.667 25.131c0.119 0 0.225-0.026 0.319-0.078s0.166-0.127 0.218-0.225c0.054-0.098 0.082-0.214 0.082-0.346 0-0.135-0.027-0.25-0.082-0.346-0.050-0.096-0.124-0.173-0.215-0.224l-0.003-0.001c-0.088-0.049-0.193-0.078-0.305-0.078-0.003 0-0.007 0-0.010 0h0c-0.119 0-0.225 0.026-0.319 0.078-0.091 0.052-0.163 0.127-0.218 0.225-0.054 0.096-0.082 0.211-0.082 0.346 0 0.132 0.027 0.247 0.082 0.346s0.127 0.174 0.218 0.225c0.093 0.052 0.198 0.078 0.315 0.078zM177.319 25.52v-2.074h0.462v0.571l-0.054-0.167c0.060-0.137 0.161-0.247 0.288-0.317l0.003-0.002c0.135-0.073 0.302-0.109 0.501-0.109v0.462c-0.017-0.005-0.037-0.008-0.058-0.008h-0c-0.016-0.002-0.035-0.004-0.054-0.004v0c-0.184 0-0.33 0.054-0.439 0.163-0.109 0.106-0.163 0.265-0.163 0.478v1.006h-0.486zM179.87 25.547c-0.228 0-0.404-0.058-0.528-0.175-0.124-0.119-0.186-0.294-0.186-0.524v-1.861h0.486v1.849c0 0.098 0.025 0.175 0.074 0.229 0.052 0.054 0.123 0.082 0.214 0.082 0.109 0 0.199-0.029 0.272-0.085l0.136 0.346c-0.059 0.047-0.129 0.083-0.206 0.104l-0.004 0.001c-0.083 0.023-0.168 0.035-0.256 0.035zM178.813 23.849v-0.388h1.383v0.388h-1.383zM180.949 26.3c-0.109-0-0.213-0.019-0.31-0.053l0.007 0.002c-0.101-0.034-0.185-0.080-0.252-0.14l0.194-0.357c0.049 0.044 0.105 0.079 0.167 0.105s0.126 0.039 0.19 0.039c0.088 0 0.159-0.022 0.214-0.066s0.105-0.118 0.151-0.221l0.12-0.272 0.039-0.058 0.785-1.833h0.466l-0.971 2.241c-0.065 0.155-0.137 0.278-0.218 0.369-0.078 0.091-0.166 0.154-0.264 0.19-0.091 0.035-0.197 0.054-0.307 0.054-0.004 0-0.008-0-0.012-0h0.001zM181.377 25.593l-0.936-2.148h0.505l0.761 1.791-0.33 0.357z"></path>
<path fill="#a1d737" style="fill: var(--color3, #a1d737)" d="M51.74 19.503h29.226c2.546 0 4.611 2.064 4.611 4.611s-2.064 4.611-4.611 4.611h-29.226c-2.546 0-4.611-2.064-4.611-4.611s2.064-4.611 4.611-4.611z"></path>
<path fill="#111" style="fill: var(--color4, #111)" d="M52.357 25.558c-0.003 0-0.007 0-0.011 0-0.171 0-0.332-0.037-0.478-0.104l0.007 0.003c-0.145-0.067-0.265-0.166-0.356-0.289l-0.002-0.003 0.287-0.346c0.075 0.104 0.157 0.181 0.245 0.233 0.091 0.052 0.189 0.078 0.295 0.078 0.282 0 0.423-0.167 0.423-0.501v-1.406h-0.967v-0.423h1.472v1.802c0 0.321-0.079 0.561-0.237 0.719-0.155 0.158-0.382 0.237-0.68 0.237zM54.895 25.547c-0.176 0-0.331-0.032-0.466-0.097-0.135-0.068-0.242-0.172-0.313-0.299l-0.002-0.004c-0.075-0.137-0.113-0.309-0.113-0.517v-1.185h0.486v1.119c0 0.186 0.041 0.326 0.124 0.419 0.085 0.091 0.206 0.136 0.361 0.136 0.114 0 0.212-0.023 0.295-0.070 0.086-0.048 0.155-0.12 0.197-0.207l0.001-0.003c0.049-0.093 0.074-0.208 0.074-0.346v-1.049h0.486v2.074h-0.462v-0.559l0.082 0.171c-0.069 0.133-0.175 0.24-0.303 0.309l-0.004 0.002c-0.126 0.066-0.275 0.105-0.433 0.105-0.003 0-0.007-0-0.010-0h0.001zM57.384 25.547c-0.173 0-0.341-0.022-0.501-0.066-0.158-0.047-0.284-0.102-0.377-0.167l0.186-0.369c0.093 0.060 0.205 0.109 0.334 0.148s0.259 0.058 0.388 0.058c0.153 0 0.263-0.021 0.33-0.062 0.070-0.041 0.105-0.097 0.105-0.167 0-0.057-0.023-0.1-0.070-0.128-0.047-0.031-0.107-0.054-0.183-0.070-0.059-0.013-0.145-0.028-0.232-0.040l-0.021-0.002c-0.091-0.013-0.183-0.030-0.276-0.050-0.094-0.024-0.177-0.057-0.254-0.1l0.005 0.003c-0.075-0.044-0.136-0.103-0.181-0.173l-0.001-0.002c-0.047-0.073-0.070-0.168-0.070-0.287 0-0.132 0.038-0.246 0.113-0.342 0.075-0.098 0.18-0.174 0.315-0.225 0.137-0.054 0.299-0.082 0.486-0.082 0.14 0 0.281 0.016 0.423 0.047s0.26 0.075 0.353 0.132l-0.186 0.369c-0.086-0.054-0.186-0.096-0.293-0.119l-0.006-0.001c-0.089-0.022-0.19-0.035-0.295-0.035h-0c-0.148 0-0.258 0.022-0.33 0.066-0.070 0.044-0.105 0.1-0.105 0.167 0 0.062 0.023 0.109 0.070 0.14s0.107 0.056 0.183 0.074c0.075 0.018 0.158 0.034 0.249 0.047 0.093 0.010 0.185 0.027 0.276 0.050s0.173 0.056 0.249 0.097c0.078 0.039 0.14 0.095 0.186 0.167s0.070 0.167 0.070 0.284c0 0.129-0.039 0.242-0.117 0.338-0.075 0.096-0.183 0.171-0.322 0.225-0.14 0.052-0.307 0.078-0.501 0.078zM59.604 25.547c-0.228 0-0.404-0.058-0.528-0.175-0.124-0.119-0.186-0.294-0.186-0.524v-1.861h0.486v1.849c0 0.098 0.025 0.175 0.074 0.229 0.052 0.054 0.123 0.082 0.214 0.082 0.109 0 0.199-0.029 0.272-0.085l0.136 0.346c-0.059 0.047-0.129 0.083-0.206 0.104l-0.004 0.001c-0.083 0.023-0.168 0.035-0.256 0.035zM58.547 23.849v-0.388h1.383v0.388h-1.383zM60.551 25.52v-2.074h0.486v2.074h-0.486zM60.796 23.103c-0.091 0-0.166-0.029-0.225-0.085-0.053-0.051-0.086-0.123-0.086-0.202 0-0.001 0-0.003 0-0.004v0c0-0.083 0.029-0.151 0.085-0.206 0.060-0.057 0.135-0.085 0.225-0.085s0.164 0.027 0.221 0.082c0.060 0.052 0.089 0.118 0.089 0.198 0 0.085-0.029 0.158-0.085 0.218-0.057 0.057-0.132 0.085-0.225 0.085zM62.932 23.422c0.166 0 0.313 0.032 0.443 0.097 0.132 0.065 0.236 0.164 0.311 0.299 0.075 0.132 0.113 0.303 0.113 0.513v1.189h-0.486v-1.126c0-0.184-0.044-0.321-0.132-0.412-0.085-0.091-0.206-0.136-0.361-0.136-0.114 0-0.215 0.023-0.303 0.070s-0.157 0.117-0.206 0.21c-0.047 0.091-0.070 0.206-0.070 0.346v1.049h-0.486v-2.074h0.462v0.559l-0.082-0.171c0.072-0.131 0.18-0.235 0.31-0.301l0.004-0.002c0.14-0.073 0.3-0.109 0.482-0.109zM65.697 25.52v-2.719h1.119c0.241 0 0.447 0.039 0.618 0.117 0.174 0.078 0.307 0.189 0.4 0.334s0.14 0.317 0.14 0.517-0.047 0.372-0.14 0.517c-0.093 0.142-0.227 0.253-0.4 0.33-0.171 0.075-0.377 0.113-0.618 0.113h-0.839l0.225-0.229v1.022h-0.505zM67.476 25.52l-0.688-0.987h0.54l0.691 0.987h-0.544zM66.202 24.552l-0.225-0.241h0.816c0.223 0 0.39-0.048 0.501-0.144 0.114-0.096 0.171-0.229 0.171-0.4 0-0.174-0.057-0.307-0.171-0.4-0.111-0.093-0.278-0.14-0.501-0.14h-0.816l0.225-0.249v1.573zM69.505 25.547c-0.212 0-0.401-0.045-0.567-0.136-0.163-0.092-0.296-0.221-0.39-0.376l-0.003-0.005c-0.096-0.161-0.144-0.343-0.144-0.548 0-0.207 0.048-0.39 0.144-0.548 0.095-0.159 0.228-0.287 0.387-0.374l0.005-0.003c0.166-0.091 0.355-0.136 0.567-0.136 0.215 0 0.405 0.045 0.571 0.136 0.164 0.087 0.297 0.214 0.39 0.368l0.002 0.005c0.096 0.158 0.144 0.342 0.144 0.552 0 0.205-0.048 0.387-0.144 0.548-0.095 0.161-0.228 0.29-0.387 0.378l-0.005 0.003c-0.166 0.091-0.356 0.136-0.571 0.136zM69.505 25.131c0.119 0 0.225-0.026 0.319-0.078s0.166-0.127 0.218-0.225c0.054-0.098 0.082-0.214 0.082-0.346 0-0.135-0.027-0.25-0.082-0.346-0.050-0.096-0.124-0.173-0.215-0.224l-0.003-0.001c-0.088-0.049-0.193-0.078-0.305-0.078-0.003 0-0.007 0-0.010 0h0.001c-0.119 0-0.225 0.026-0.319 0.078-0.091 0.052-0.163 0.127-0.218 0.225-0.054 0.096-0.082 0.211-0.082 0.346 0 0.132 0.027 0.247 0.082 0.346s0.127 0.174 0.218 0.225c0.093 0.052 0.198 0.078 0.315 0.078zM71.158 25.52v-2.074h0.486v2.074h-0.486zM71.403 23.103c-0.091 0-0.166-0.029-0.225-0.085-0.053-0.051-0.085-0.123-0.085-0.202 0-0.001 0-0.003 0-0.004v0c0-0.083 0.028-0.151 0.085-0.206 0.060-0.057 0.135-0.085 0.225-0.085s0.164 0.027 0.221 0.082c0.060 0.052 0.089 0.118 0.089 0.198 0 0.085-0.028 0.158-0.085 0.218-0.057 0.057-0.132 0.085-0.225 0.085zM72.362 25.52v-2.882h0.486v2.882h-0.486zM74.844 25.52v-0.419l-0.027-0.089v-0.734c0-0.142-0.043-0.253-0.128-0.33-0.085-0.080-0.215-0.12-0.388-0.12-0.124 0-0.242 0.020-0.354 0.057l0.008-0.002c-0.111 0.036-0.206 0.087-0.284 0.151l-0.19-0.353c0.111-0.085 0.243-0.149 0.396-0.19 0.143-0.042 0.307-0.066 0.477-0.066 0.001 0 0.003 0 0.005 0h-0c0.3 0 0.532 0.073 0.695 0.218 0.166 0.142 0.249 0.364 0.249 0.664v1.216h-0.458zM74.192 25.547c-0.155 0-0.291-0.026-0.408-0.078-0.117-0.054-0.207-0.128-0.272-0.221-0.058-0.089-0.093-0.198-0.093-0.315 0-0.003 0-0.005 0-0.007v0c0-0.117 0.027-0.221 0.082-0.315 0.057-0.093 0.149-0.167 0.276-0.221s0.295-0.082 0.505-0.082h0.602v0.322h-0.567c-0.166 0-0.277 0.027-0.334 0.082-0.053 0.046-0.085 0.114-0.085 0.189 0 0.002 0 0.004 0 0.006v-0c0 0.088 0.035 0.158 0.105 0.21s0.167 0.078 0.291 0.078c0.119 0 0.225-0.027 0.319-0.082 0.094-0.054 0.167-0.137 0.205-0.238l0.001-0.003 0.082 0.291c-0.047 0.122-0.131 0.216-0.252 0.284-0.119 0.067-0.271 0.101-0.454 0.101zM77.184 23.422c0.166 0 0.313 0.032 0.443 0.097 0.132 0.065 0.236 0.164 0.311 0.299 0.075 0.132 0.113 0.303 0.113 0.513v1.189h-0.486v-1.126c0-0.184-0.044-0.321-0.132-0.412-0.085-0.091-0.206-0.136-0.361-0.136-0.114 0-0.215 0.023-0.303 0.070s-0.157 0.117-0.206 0.21c-0.047 0.091-0.070 0.206-0.070 0.346v1.049h-0.486v-2.074h0.462v0.559l-0.082-0.171c0.072-0.131 0.18-0.235 0.31-0.301l0.004-0.002c0.14-0.073 0.3-0.109 0.482-0.109zM79.629 25.547c-0.199 0-0.379-0.044-0.54-0.132-0.157-0.090-0.283-0.216-0.37-0.368l-0.003-0.005c-0.091-0.158-0.136-0.344-0.136-0.559s0.045-0.401 0.136-0.559c0.089-0.156 0.216-0.281 0.368-0.366l0.005-0.003c0.161-0.088 0.341-0.132 0.54-0.132 0.174 0 0.329 0.039 0.466 0.117 0.137 0.075 0.246 0.19 0.326 0.346s0.12 0.355 0.12 0.598c0 0.241-0.039 0.44-0.117 0.598-0.078 0.155-0.185 0.272-0.322 0.35s-0.295 0.117-0.474 0.117zM79.688 25.131c0.117 0 0.22-0.026 0.311-0.078 0.093-0.052 0.167-0.127 0.221-0.225 0.057-0.098 0.085-0.214 0.085-0.346 0-0.135-0.028-0.25-0.085-0.346-0.052-0.095-0.127-0.172-0.219-0.224l-0.003-0.001c-0.091-0.052-0.194-0.078-0.311-0.078s-0.221 0.026-0.315 0.078c-0.091 0.052-0.164 0.127-0.221 0.225-0.054 0.096-0.082 0.211-0.082 0.346 0 0.132 0.027 0.247 0.082 0.346 0.057 0.098 0.131 0.174 0.221 0.225 0.093 0.052 0.198 0.078 0.315 0.078zM80.317 25.52v-0.489l0.019-0.552-0.039-0.552v-1.29h0.482v2.882h-0.462z"></path>
<path fill="#daf836" style="fill: var(--color5, #daf836)" d="M246.418 18.16l-17.726 10.685c-2.183 1.316-5.022 0.615-6.342-1.565l0 0c-1.32-2.18-0.621-5.014 1.562-6.329l17.726-10.685c2.183-1.316 5.022-0.615 6.342 1.565l-0-0c1.32 2.18 0.621 5.014-1.562 6.329z"></path>
<path fill="#111" style="fill: var(--color4, #111)" d="M242.665 13.365c0.186-0.112 0.376-0.174 0.57-0.185 0.014-0.001 0.031-0.001 0.047-0.001 0.179 0 0.348 0.045 0.495 0.125l-0.006-0.003c0.165 0.088 0.301 0.219 0.407 0.394 0.107 0.177 0.161 0.358 0.161 0.543 0 0.002 0 0.005 0 0.008 0 0.192-0.054 0.371-0.147 0.524l0.002-0.004c-0.099 0.166-0.242 0.305-0.429 0.417-0.173 0.104-0.346 0.161-0.52 0.168-0.017 0.001-0.037 0.002-0.058 0.002-0.16 0-0.308-0.047-0.433-0.127l0.003 0.002 0.207-0.379c0.104 0.052 0.207 0.075 0.309 0.068 0.105-0.006 0.202-0.038 0.285-0.090l-0.003 0.002c0.098-0.058 0.177-0.136 0.234-0.23l0.002-0.003c0.048-0.081 0.077-0.178 0.077-0.281 0-0.010-0-0.019-0.001-0.029l0 0.001c-0.003-0.11-0.040-0.223-0.109-0.338s-0.154-0.201-0.251-0.257c-0.080-0.046-0.176-0.074-0.279-0.074-0.010 0-0.020 0-0.030 0.001l0.001-0c-0.118 0.007-0.226 0.043-0.319 0.101l0.003-0.002c-0.089 0.054-0.159 0.123-0.21 0.208-0.053 0.087-0.081 0.188-0.084 0.304l-0.432 0.006c-0.001-0.018-0.002-0.039-0.002-0.061 0-0.159 0.044-0.308 0.12-0.435l-0.002 0.004c0.088-0.15 0.218-0.277 0.391-0.381zM241.586 16.496c-0.142 0.085-0.285 0.134-0.429 0.146-0.147 0.013-0.287-0.019-0.421-0.095-0.133-0.074-0.253-0.201-0.362-0.381l-0.616-1.017 0.416-0.251 0.584 0.964c0.095 0.157 0.204 0.252 0.326 0.284 0.12 0.033 0.247 0.010 0.38-0.070 0.097-0.059 0.172-0.131 0.223-0.216s0.074-0.181 0.068-0.286c-0.007-0.102-0.047-0.212-0.119-0.332l-0.543-0.897 0.416-0.251 1.493 2.465-0.416 0.251-0.708-1.17 0.178 0.092c0 0.010 0.001 0.021 0.001 0.033 0 0.144-0.042 0.279-0.115 0.392l0.002-0.003c-0.082 0.134-0.201 0.248-0.356 0.342zM238.066 16.169l0.217 0.359 0.070 0.062 0.38 0.628c0.074 0.122 0.167 0.194 0.281 0.216 0.115 0.024 0.246-0.008 0.395-0.098 0.103-0.063 0.191-0.137 0.267-0.224l0.001-0.001c0.077-0.088 0.131-0.181 0.164-0.276l0.346 0.204c-0.051 0.13-0.131 0.253-0.241 0.367-0.11 0.117-0.234 0.218-0.371 0.301l-0.008 0.004c-0.257 0.155-0.493 0.213-0.708 0.173-0.216-0.036-0.401-0.183-0.557-0.44l-0.63-1.040 0.393-0.237zM238.611 15.808c0.133-0.080 0.263-0.128 0.39-0.144 0.128-0.014 0.244 0.003 0.348 0.049 0.103 0.050 0.185 0.126 0.247 0.227 0.060 0.1 0.091 0.203 0.093 0.311-0.001 0.109-0.041 0.22-0.122 0.332s-0.211 0.222-0.39 0.331l-0.516 0.311-0.167-0.276 0.486-0.293c0.142-0.085 0.223-0.166 0.244-0.242 0.022-0.074 0.013-0.144-0.028-0.21-0.041-0.071-0.113-0.119-0.198-0.125l-0.001-0c-0.087-0.008-0.183 0.020-0.29 0.084-0.102 0.061-0.179 0.139-0.23 0.234-0.038 0.065-0.060 0.143-0.060 0.227 0 0.030 0.003 0.060 0.009 0.089l-0-0.003-0.221-0.207c-0.023-0.128 0-0.252 0.069-0.373 0.067-0.119 0.179-0.226 0.337-0.321zM237.070 16.769l1.075 1.774-0.396 0.239-0.296-0.488 0.133 0.115c0.004 0.027 0.006 0.058 0.006 0.090 0 0.123-0.034 0.238-0.092 0.336l0.002-0.003c-0.078 0.131-0.202 0.249-0.373 0.352l-0.239-0.395c0.020-0.006 0.038-0.014 0.054-0.023 0.017-0.007 0.033-0.015 0.048-0.025 0.158-0.095 0.255-0.217 0.292-0.366 0.038-0.147 0.002-0.311-0.108-0.493l-0.521-0.86 0.416-0.251zM234.651 18.227l0.217 0.359 0.070 0.063 0.38 0.628c0.074 0.122 0.167 0.194 0.281 0.216 0.115 0.024 0.247-0.008 0.395-0.098 0.103-0.063 0.191-0.137 0.267-0.224l0.001-0.001c0.077-0.088 0.131-0.181 0.164-0.276l0.346 0.204c-0.051 0.131-0.131 0.253-0.241 0.367-0.11 0.117-0.234 0.218-0.371 0.301l-0.008 0.004c-0.257 0.155-0.493 0.213-0.708 0.173-0.216-0.036-0.401-0.183-0.557-0.44l-0.63-1.040 0.393-0.237zM235.196 17.866c0.133-0.080 0.263-0.128 0.39-0.144 0.128-0.014 0.244 0.003 0.348 0.049 0.103 0.050 0.185 0.126 0.247 0.227 0.060 0.1 0.091 0.203 0.093 0.311-0.001 0.109-0.041 0.22-0.122 0.332s-0.211 0.222-0.39 0.331l-0.516 0.311-0.167-0.276 0.486-0.293c0.142-0.085 0.223-0.166 0.244-0.242 0.022-0.074 0.013-0.144-0.028-0.21-0.041-0.071-0.113-0.119-0.198-0.125l-0.001-0c-0.087-0.008-0.183 0.020-0.29 0.084-0.102 0.061-0.179 0.139-0.23 0.234-0.038 0.065-0.060 0.143-0.060 0.227 0 0.030 0.003 0.060 0.009 0.089l-0-0.003-0.221-0.207c-0.023-0.128 0-0.252 0.069-0.373 0.067-0.119 0.179-0.226 0.337-0.321zM232.823 19.297c0.186-0.112 0.376-0.174 0.57-0.185 0.014-0.001 0.031-0.001 0.047-0.001 0.179 0 0.348 0.045 0.495 0.125l-0.006-0.003c0.165 0.088 0.301 0.219 0.407 0.394 0.107 0.177 0.161 0.358 0.16 0.543 0 0.002 0 0.005 0 0.008 0 0.192-0.054 0.371-0.147 0.523l0.002-0.004c-0.099 0.166-0.242 0.305-0.429 0.417-0.173 0.104-0.346 0.16-0.52 0.168-0.017 0.001-0.037 0.002-0.057 0.002-0.16 0-0.309-0.047-0.434-0.127l0.003 0.002 0.207-0.379c0.104 0.052 0.207 0.075 0.309 0.068 0.105-0.006 0.202-0.038 0.285-0.090l-0.003 0.002c0.098-0.058 0.177-0.136 0.234-0.23l0.002-0.003c0.048-0.081 0.077-0.178 0.077-0.281 0-0.010-0-0.019-0.001-0.029l0 0.001c-0.003-0.11-0.039-0.223-0.109-0.338s-0.154-0.201-0.251-0.257c-0.080-0.046-0.176-0.074-0.279-0.074-0.010 0-0.020 0-0.030 0.001l0.001-0c-0.118 0.007-0.226 0.043-0.319 0.102l0.003-0.002c-0.089 0.054-0.159 0.123-0.21 0.208-0.054 0.087-0.081 0.188-0.084 0.304l-0.432 0.006c-0.001-0.018-0.002-0.039-0.002-0.061 0-0.159 0.044-0.308 0.12-0.435l-0.002 0.004c0.088-0.15 0.218-0.277 0.391-0.381zM230.944 20.43c0.195-0.118 0.376-0.159 0.543-0.123 0.168 0.038 0.312 0.155 0.431 0.352l0.964 1.591-0.416 0.251-0.958-1.581c-0.051-0.084-0.112-0.137-0.182-0.158-0.072-0.020-0.148-0.006-0.225 0.041-0.093 0.056-0.156 0.127-0.189 0.213l-0.295-0.226c0.025-0.069 0.066-0.135 0.125-0.198s0.125-0.116 0.197-0.16l0.004-0.002zM232.728 21.336l0.201 0.332-1.184 0.714-0.201-0.332 1.184-0.714zM229.357 21.387c0.197-0.119 0.394-0.185 0.589-0.197 0.017-0.001 0.036-0.002 0.055-0.002 0.177 0 0.344 0.045 0.49 0.123l-0.005-0.003c0.163 0.089 0.298 0.221 0.404 0.396 0.107 0.177 0.163 0.357 0.167 0.539 0 0.007 0 0.015 0 0.023 0 0.182-0.049 0.353-0.134 0.5l0.003-0.005c-0.093 0.162-0.228 0.296-0.405 0.403-0.173 0.104-0.35 0.159-0.531 0.166-0.011 0-0.023 0.001-0.035 0.001-0.176 0-0.34-0.047-0.482-0.13l0.005 0.002c-0.161-0.091-0.298-0.229-0.41-0.415-0.010-0.016-0.021-0.037-0.031-0.058l-0.002-0.004c-0.011-0.018-0.023-0.039-0.033-0.061l-0.002-0.004 1.48-0.892 0.167 0.276-1.261 0.76 0.111-0.185c0.059 0.103 0.135 0.18 0.226 0.231 0.080 0.046 0.176 0.073 0.278 0.073 0.006 0 0.011-0 0.017-0l-0.001 0c0.102-0.001 0.203-0.032 0.303-0.092 0.102-0.061 0.178-0.138 0.229-0.229 0.043-0.077 0.068-0.17 0.068-0.268 0-0.009-0-0.019-0.001-0.028l0 0.001c-0.005-0.103-0.039-0.208-0.104-0.314l-0.040-0.067c-0.064-0.106-0.146-0.186-0.244-0.238-0.078-0.042-0.171-0.067-0.269-0.067-0.018 0-0.036 0.001-0.054 0.003l0.002-0c-0.116 0.009-0.231 0.049-0.346 0.118-0.1 0.060-0.18 0.13-0.241 0.209-0.059 0.077-0.103 0.169-0.124 0.27l-0.001 0.004-0.378-0.122c0.027-0.152 0.087-0.287 0.174-0.401l-0.002 0.002c0.090-0.121 0.213-0.228 0.368-0.322zM228.066 22.196l1.075 1.774-0.396 0.239-0.296-0.488 0.133 0.115c0.004 0.027 0.006 0.058 0.006 0.090 0 0.123-0.034 0.238-0.092 0.336l0.002-0.003c-0.078 0.131-0.202 0.249-0.373 0.352l-0.24-0.395c0.020-0.006 0.038-0.014 0.054-0.023 0.017-0.007 0.033-0.015 0.049-0.025 0.157-0.095 0.255-0.217 0.291-0.366 0.038-0.147 0.002-0.311-0.108-0.493l-0.521-0.861 0.416-0.251zM226.037 23.388c0.133-0.082 0.287-0.151 0.45-0.199l0.013-0.003c0.159-0.042 0.296-0.059 0.409-0.052l0.031 0.412c-0.111-0.003-0.232 0.013-0.363 0.046-0.138 0.035-0.258 0.087-0.369 0.154l0.006-0.003c-0.131 0.079-0.214 0.154-0.25 0.224-0.038 0.071-0.040 0.137-0.003 0.197 0.030 0.049 0.072 0.073 0.126 0.074 0.056 0.003 0.12-0.009 0.192-0.034s0.152-0.057 0.239-0.094c0.061-0.028 0.148-0.061 0.237-0.092l0.026-0.008c0.090-0.027 0.177-0.042 0.263-0.045 0.087-0.001 0.169 0.017 0.247 0.055s0.147 0.108 0.209 0.21c0.068 0.113 0.095 0.23 0.081 0.351-0.013 0.123-0.064 0.241-0.153 0.355-0.089 0.117-0.214 0.224-0.374 0.32-0.111 0.068-0.238 0.128-0.373 0.174l-0.014 0.004c-0.138 0.047-0.262 0.070-0.371 0.070l-0.031-0.412c0.115 0 0.221-0.017 0.319-0.051 0.104-0.033 0.193-0.075 0.277-0.126l-0.006 0.003c0.126-0.076 0.209-0.152 0.248-0.227 0.037-0.074 0.038-0.139 0.003-0.197-0.032-0.053-0.076-0.081-0.132-0.083s-0.121 0.008-0.195 0.031c-0.074 0.023-0.153 0.053-0.237 0.088-0.085 0.039-0.173 0.072-0.262 0.099s-0.178 0.042-0.263 0.045c-0.012 0.001-0.026 0.002-0.040 0.002-0.075 0-0.146-0.018-0.209-0.050l0.003 0.001c-0.077-0.038-0.146-0.107-0.207-0.206-0.067-0.111-0.092-0.227-0.075-0.349 0.015-0.121 0.068-0.24 0.159-0.359 0.093-0.117 0.223-0.225 0.389-0.325z"></path>
<path fill="#0d171d" style="fill: var(--color1, #0d171d)" d="M4.611 19.503h31.26c2.546 0 4.611 2.064 4.611 4.611s-2.064 4.611-4.611 4.611h-31.26c-2.546 0-4.611-2.064-4.611-4.611s2.064-4.611 4.611-4.611z"></path>
<path fill="#fafafa" style="fill: var(--color2, #fafafa)" d="M5.539 25.547c-0.228 0-0.404-0.058-0.528-0.175-0.124-0.119-0.186-0.294-0.186-0.524v-1.861h0.486v1.849c0 0.098 0.025 0.175 0.074 0.229 0.052 0.054 0.123 0.082 0.214 0.082 0.109 0 0.199-0.029 0.272-0.085l0.136 0.346c-0.059 0.047-0.129 0.083-0.206 0.104l-0.004 0.001c-0.083 0.023-0.168 0.035-0.256 0.035zM4.482 23.849v-0.388h1.383v0.388h-1.383zM7.662 23.422c0.166 0 0.313 0.032 0.443 0.097 0.132 0.065 0.236 0.164 0.311 0.299 0.075 0.132 0.113 0.303 0.113 0.513v1.189h-0.486v-1.126c0-0.184-0.044-0.321-0.132-0.412-0.085-0.091-0.206-0.136-0.361-0.136-0.114 0-0.215 0.023-0.303 0.070s-0.157 0.117-0.206 0.21c-0.047 0.091-0.070 0.206-0.070 0.346v1.049h-0.486v-2.882h0.486v1.367l-0.105-0.171c0.072-0.131 0.18-0.235 0.31-0.301l0.004-0.002c0.14-0.073 0.3-0.109 0.482-0.109zM10.205 25.547c-0.23 0-0.432-0.045-0.606-0.136-0.167-0.090-0.303-0.219-0.398-0.376l-0.003-0.005c-0.093-0.161-0.14-0.343-0.14-0.548 0-0.207 0.045-0.39 0.136-0.548 0.092-0.159 0.221-0.286 0.376-0.374l0.005-0.003c0.163-0.091 0.348-0.136 0.555-0.136 0.202 0 0.382 0.044 0.54 0.132s0.284 0.215 0.37 0.368l0.002 0.005c0.091 0.161 0.136 0.35 0.136 0.567 0 0.021-0.001 0.044-0.004 0.070 0 0.026-0.001 0.050-0.004 0.074h-1.729v-0.322h1.472l-0.191 0.101c0.003-0.119-0.022-0.224-0.074-0.315s-0.124-0.162-0.211-0.212l-0.003-0.001c-0.088-0.052-0.191-0.078-0.307-0.078-0.119 0-0.224 0.026-0.314 0.078-0.088 0.052-0.158 0.124-0.21 0.218-0.049 0.091-0.074 0.198-0.074 0.322v0.078c0 0.124 0.029 0.234 0.086 0.33s0.14 0.171 0.238 0.22l0.003 0.002c0.104 0.052 0.223 0.078 0.357 0.078 0.117 0 0.221-0.018 0.314-0.054 0.098-0.039 0.181-0.097 0.248-0.17l0-0 0.26 0.299c-0.095 0.109-0.213 0.195-0.347 0.25l-0.006 0.002c-0.14 0.057-0.3 0.085-0.482 0.085zM14.16 25.52v-0.419l-0.027-0.089v-0.734c0-0.142-0.043-0.253-0.128-0.33-0.085-0.080-0.215-0.12-0.388-0.12-0.124 0-0.242 0.020-0.354 0.057l0.008-0.002c-0.111 0.036-0.206 0.087-0.284 0.151l-0.19-0.353c0.111-0.085 0.243-0.149 0.396-0.19 0.143-0.042 0.307-0.066 0.477-0.066 0.002 0 0.003 0 0.005 0h-0c0.3 0 0.532 0.073 0.696 0.218 0.166 0.142 0.248 0.364 0.248 0.664v1.216h-0.458zM13.508 25.547c-0.155 0-0.291-0.026-0.408-0.078-0.117-0.054-0.207-0.128-0.272-0.221-0.058-0.089-0.093-0.198-0.093-0.315 0-0.003 0-0.005 0-0.007v0c0-0.117 0.027-0.221 0.082-0.315 0.057-0.093 0.149-0.167 0.276-0.221s0.295-0.082 0.505-0.082h0.602v0.322h-0.567c-0.166 0-0.277 0.027-0.334 0.082-0.053 0.046-0.085 0.114-0.085 0.189 0 0.002 0 0.004 0 0.006v-0c0 0.088 0.035 0.158 0.105 0.21s0.167 0.078 0.291 0.078c0.119 0 0.225-0.027 0.319-0.082 0.094-0.054 0.167-0.137 0.205-0.238l0.001-0.003 0.082 0.291c-0.047 0.122-0.131 0.216-0.252 0.284-0.119 0.067-0.271 0.101-0.454 0.101zM16.205 25.547c-0.199 0-0.379-0.044-0.54-0.132-0.157-0.090-0.283-0.216-0.37-0.368l-0.003-0.005c-0.091-0.158-0.136-0.344-0.136-0.559s0.045-0.401 0.136-0.559c0.089-0.156 0.216-0.281 0.368-0.366l0.005-0.003c0.161-0.088 0.341-0.132 0.54-0.132 0.173 0 0.329 0.039 0.466 0.117 0.137 0.075 0.246 0.19 0.326 0.346s0.12 0.355 0.12 0.598c0 0.241-0.039 0.44-0.117 0.598-0.078 0.155-0.185 0.272-0.322 0.35s-0.295 0.117-0.474 0.117zM16.263 25.131c0.117 0 0.22-0.026 0.311-0.078 0.093-0.052 0.167-0.127 0.221-0.225 0.057-0.098 0.085-0.214 0.085-0.346 0-0.135-0.029-0.25-0.085-0.346-0.052-0.095-0.127-0.172-0.219-0.224l-0.003-0.001c-0.091-0.052-0.194-0.078-0.311-0.078s-0.221 0.026-0.314 0.078c-0.091 0.052-0.165 0.127-0.222 0.225-0.054 0.096-0.081 0.211-0.081 0.346 0 0.132 0.027 0.247 0.081 0.346 0.057 0.098 0.131 0.174 0.221 0.225 0.093 0.052 0.198 0.078 0.315 0.078zM16.892 25.52v-0.489l0.019-0.552-0.039-0.552v-1.29h0.482v2.882h-0.462zM18.627 25.52l-0.89-2.074h0.505l0.765 1.83h-0.249l0.792-1.83h0.466l-0.89 2.074h-0.501zM21.32 25.547c-0.23 0-0.432-0.045-0.606-0.136-0.167-0.090-0.303-0.219-0.398-0.376l-0.003-0.005c-0.093-0.161-0.14-0.343-0.14-0.548 0-0.207 0.045-0.39 0.136-0.548 0.092-0.159 0.221-0.286 0.376-0.374l0.005-0.003c0.163-0.091 0.348-0.136 0.555-0.136 0.202 0 0.382 0.044 0.54 0.132s0.284 0.215 0.37 0.368l0.002 0.005c0.091 0.161 0.136 0.35 0.136 0.567 0 0.021-0.001 0.044-0.004 0.070 0 0.026-0.001 0.050-0.004 0.074h-1.729v-0.322h1.472l-0.19 0.101c0.003-0.119-0.022-0.224-0.074-0.315s-0.124-0.162-0.211-0.212l-0.003-0.001c-0.088-0.052-0.19-0.078-0.307-0.078-0.119 0-0.224 0.026-0.315 0.078-0.088 0.052-0.158 0.124-0.21 0.218-0.049 0.091-0.074 0.198-0.074 0.322v0.078c0 0.124 0.029 0.234 0.085 0.33s0.14 0.171 0.238 0.22l0.003 0.002c0.104 0.052 0.223 0.078 0.357 0.078 0.117 0 0.221-0.018 0.315-0.054 0.098-0.039 0.181-0.097 0.248-0.17l0-0 0.26 0.299c-0.095 0.109-0.213 0.195-0.347 0.25l-0.006 0.002c-0.14 0.057-0.3 0.085-0.482 0.085zM24.020 23.422c0.166 0 0.313 0.032 0.443 0.097 0.132 0.065 0.236 0.164 0.311 0.299 0.075 0.132 0.113 0.303 0.113 0.513v1.189h-0.486v-1.126c0-0.184-0.044-0.321-0.132-0.412-0.085-0.091-0.206-0.136-0.361-0.136-0.114 0-0.215 0.023-0.303 0.070s-0.157 0.117-0.206 0.21c-0.047 0.091-0.070 0.206-0.070 0.346v1.049h-0.486v-2.074h0.462v0.559l-0.082-0.171c0.072-0.131 0.18-0.235 0.31-0.301l0.004-0.002c0.14-0.073 0.3-0.109 0.482-0.109zM26.364 25.547c-0.228 0-0.404-0.058-0.528-0.175-0.124-0.119-0.186-0.294-0.186-0.524v-1.861h0.486v1.849c0 0.098 0.025 0.175 0.074 0.229 0.052 0.054 0.123 0.082 0.214 0.082 0.109 0 0.199-0.029 0.272-0.085l0.136 0.346c-0.059 0.047-0.129 0.083-0.206 0.104l-0.004 0.001c-0.083 0.023-0.168 0.035-0.256 0.035zM25.308 23.849v-0.388h1.383v0.388h-1.383zM28.189 25.547c-0.176 0-0.331-0.032-0.466-0.097-0.134-0.068-0.242-0.172-0.313-0.299l-0.002-0.004c-0.075-0.137-0.113-0.309-0.113-0.517v-1.185h0.486v1.119c0 0.186 0.041 0.326 0.124 0.419 0.085 0.091 0.206 0.136 0.361 0.136 0.114 0 0.212-0.023 0.295-0.070 0.086-0.048 0.155-0.12 0.197-0.207l0.001-0.003c0.049-0.093 0.074-0.208 0.074-0.346v-1.049h0.486v2.074h-0.462v-0.559l0.082 0.171c-0.069 0.133-0.175 0.24-0.303 0.309l-0.004 0.002c-0.126 0.066-0.275 0.105-0.433 0.105-0.003 0-0.007-0-0.010-0h0.001zM30.037 25.52v-2.074h0.462v0.571l-0.054-0.167c0.060-0.137 0.161-0.247 0.288-0.317l0.003-0.002c0.135-0.073 0.302-0.109 0.501-0.109v0.462c-0.017-0.005-0.037-0.008-0.058-0.008h-0c-0.016-0.002-0.035-0.004-0.054-0.004v0c-0.184 0-0.33 0.054-0.439 0.163-0.109 0.106-0.163 0.265-0.163 0.478v1.006h-0.486zM32.686 25.547c-0.23 0-0.432-0.045-0.606-0.136-0.167-0.090-0.302-0.219-0.398-0.376l-0.003-0.005c-0.093-0.161-0.14-0.343-0.14-0.548 0-0.207 0.045-0.39 0.136-0.548 0.092-0.159 0.221-0.286 0.376-0.374l0.005-0.003c0.163-0.091 0.348-0.136 0.555-0.136 0.202 0 0.382 0.044 0.54 0.132s0.285 0.215 0.371 0.368l0.002 0.005c0.090 0.161 0.136 0.35 0.136 0.567 0 0.021-0.001 0.044-0.004 0.070 0 0.026-0.001 0.050-0.004 0.074h-1.729v-0.322h1.472l-0.19 0.101c0.002-0.119-0.022-0.224-0.074-0.315s-0.124-0.162-0.211-0.212l-0.003-0.001c-0.088-0.052-0.191-0.078-0.307-0.078-0.119 0-0.224 0.026-0.314 0.078-0.088 0.052-0.158 0.124-0.21 0.218-0.049 0.091-0.074 0.198-0.074 0.322v0.078c0 0.124 0.029 0.234 0.086 0.33s0.137 0.17 0.241 0.221c0.104 0.052 0.223 0.078 0.357 0.078 0.117 0 0.222-0.018 0.315-0.054 0.098-0.039 0.181-0.097 0.248-0.17l0-0 0.26 0.299c-0.095 0.109-0.213 0.195-0.347 0.25l-0.006 0.002c-0.14 0.057-0.3 0.085-0.482 0.085zM34.85 25.547c-0.173 0-0.341-0.022-0.501-0.066-0.158-0.047-0.284-0.102-0.377-0.167l0.186-0.369c0.093 0.060 0.205 0.109 0.334 0.148s0.259 0.058 0.388 0.058c0.153 0 0.263-0.021 0.33-0.062 0.070-0.041 0.105-0.097 0.105-0.167 0-0.057-0.023-0.1-0.070-0.128-0.047-0.031-0.107-0.054-0.183-0.070-0.059-0.013-0.145-0.028-0.232-0.040l-0.021-0.002c-0.091-0.013-0.183-0.030-0.276-0.050-0.094-0.024-0.177-0.057-0.254-0.1l0.005 0.003c-0.075-0.044-0.136-0.103-0.181-0.173l-0.001-0.002c-0.047-0.073-0.070-0.168-0.070-0.287 0-0.132 0.038-0.246 0.113-0.342 0.075-0.098 0.18-0.174 0.315-0.225 0.137-0.054 0.299-0.082 0.486-0.082 0.14 0 0.281 0.016 0.423 0.047s0.26 0.075 0.353 0.132l-0.186 0.369c-0.086-0.054-0.186-0.096-0.293-0.119l-0.006-0.001c-0.089-0.022-0.19-0.035-0.295-0.035h-0c-0.148 0-0.258 0.022-0.33 0.066-0.070 0.044-0.105 0.1-0.105 0.167 0 0.062 0.023 0.109 0.070 0.14s0.107 0.056 0.183 0.074c0.075 0.018 0.158 0.034 0.249 0.047 0.093 0.010 0.185 0.027 0.276 0.050s0.173 0.056 0.249 0.097c0.078 0.039 0.14 0.095 0.186 0.167s0.070 0.167 0.070 0.284c0 0.129-0.039 0.242-0.117 0.338-0.075 0.096-0.183 0.171-0.322 0.225-0.14 0.052-0.307 0.078-0.501 0.078z"></path>
<path fill="#0d171d" style="fill: var(--color1, #0d171d)" d="M73.473 11.42l24.405 7.464c2.436 0.745 3.804 3.322 3.056 5.757s-3.329 3.805-5.764 3.060l-24.405-7.464c-2.436-0.745-3.804-3.322-3.056-5.757s3.329-3.805 5.764-3.060z"></path>
<path fill="#a1d737" style="fill: var(--color3, #a1d737)" d="M73.554 17.766c-0.175-0.054-0.327-0.125-0.467-0.214l0.008 0.005c-0.137-0.091-0.241-0.181-0.311-0.27l0.287-0.298c0.072 0.084 0.164 0.164 0.276 0.239s0.231 0.131 0.354 0.169c0.146 0.045 0.257 0.057 0.334 0.037 0.079-0.019 0.129-0.062 0.149-0.129 0.017-0.055 0.007-0.102-0.029-0.143-0.035-0.043-0.087-0.083-0.154-0.12-0.053-0.030-0.129-0.069-0.205-0.105l-0.024-0.010c-0.083-0.039-0.166-0.082-0.249-0.129-0.079-0.048-0.148-0.103-0.209-0.165l-0-0c-0.056-0.061-0.099-0.135-0.122-0.217l-0.001-0.004c-0.023-0.083-0.017-0.181 0.018-0.295 0.039-0.126 0.108-0.224 0.208-0.294 0.101-0.072 0.223-0.113 0.367-0.123 0.147-0.012 0.31 0.010 0.488 0.064 0.134 0.041 0.264 0.097 0.391 0.168s0.227 0.148 0.299 0.23l-0.287 0.298c-0.071-0.080-0.153-0.148-0.246-0.2l-0.005-0.002c-0.078-0.047-0.168-0.087-0.263-0.117l-0.009-0.002c-0.141-0.043-0.253-0.054-0.335-0.033-0.080 0.021-0.129 0.065-0.149 0.129-0.018 0.059-0.010 0.111 0.026 0.154s0.086 0.085 0.153 0.124c0.067 0.039 0.141 0.078 0.224 0.117 0.086 0.037 0.169 0.080 0.249 0.129s0.149 0.104 0.209 0.166c0.063 0.060 0.106 0.131 0.129 0.214s0.018 0.18-0.017 0.291c-0.038 0.124-0.108 0.22-0.21 0.289-0.1 0.070-0.225 0.11-0.375 0.121-0.149 0.009-0.316-0.015-0.502-0.072zM75.77 18.443c-0.168-0.052-0.307-0.128-0.417-0.229-0.105-0.1-0.18-0.23-0.211-0.377l-0.001-0.005c-0.031-0.153-0.017-0.329 0.044-0.527l0.348-1.133 0.464 0.142-0.329 1.069c-0.055 0.178-0.056 0.324-0.004 0.437 0.055 0.112 0.157 0.19 0.305 0.236 0.109 0.033 0.21 0.040 0.303 0.020 0.1-0.021 0.186-0.072 0.251-0.142l0-0c0.074-0.075 0.132-0.178 0.172-0.309l0.308-1.003 0.464 0.142-0.609 1.983-0.442-0.135 0.164-0.535 0.028 0.187c-0.101 0.104-0.233 0.177-0.38 0.206l-0.005 0.001c-0.051 0.010-0.109 0.015-0.168 0.015-0.102 0-0.2-0.016-0.293-0.046l0.007 0.002zM78.637 19.32c-0.161-0.048-0.298-0.134-0.408-0.246l-0-0c-0.108-0.114-0.179-0.258-0.213-0.431-0.030-0.175-0.010-0.377 0.061-0.607 0.072-0.233 0.167-0.412 0.287-0.538 0.122-0.125 0.26-0.203 0.413-0.235 0.154-0.034 0.315-0.026 0.484 0.026 0.196 0.060 0.355 0.154 0.478 0.284 0.12 0.124 0.207 0.281 0.247 0.455l0.001 0.006c0.043 0.178 0.033 0.37-0.031 0.576s-0.163 0.371-0.299 0.498c-0.125 0.119-0.283 0.204-0.459 0.242l-0.006 0.001c-0.174 0.039-0.36 0.028-0.555-0.032zM77.324 19.678l0.831-2.703 0.442 0.135-0.144 0.468-0.177 0.523-0.125 0.539-0.363 1.181-0.464-0.142zM78.707 18.906c0.111 0.034 0.218 0.040 0.32 0.017 0.109-0.024 0.204-0.077 0.278-0.151l-0 0c0.081-0.078 0.141-0.18 0.179-0.306 0.040-0.129 0.048-0.247 0.024-0.354-0.022-0.11-0.074-0.205-0.146-0.28l0 0c-0.072-0.076-0.163-0.131-0.275-0.165-0.058-0.020-0.126-0.031-0.196-0.031-0.045 0-0.090 0.005-0.132 0.014l0.004-0.001c-0.109 0.024-0.204 0.077-0.278 0.151l0-0c-0.080 0.076-0.14 0.178-0.179 0.307-0.039 0.126-0.047 0.244-0.024 0.354s0.072 0.203 0.146 0.28c0.074 0.077 0.167 0.132 0.278 0.166zM81.094 20.071c-0.221-0.067-0.4-0.17-0.54-0.307-0.129-0.129-0.223-0.292-0.269-0.474l-0.002-0.007c-0.042-0.181-0.033-0.369 0.027-0.565 0.061-0.198 0.158-0.359 0.291-0.484 0.128-0.12 0.289-0.208 0.468-0.248l0.007-0.001c0.183-0.039 0.373-0.028 0.571 0.033 0.193 0.059 0.352 0.154 0.478 0.284 0.121 0.125 0.208 0.283 0.246 0.459l0.001 0.006c0.040 0.18 0.027 0.374-0.036 0.582-0.009 0.027-0.017 0.049-0.026 0.070l0.002-0.005c-0.009 0.028-0.017 0.051-0.027 0.074l0.002-0.004-1.653-0.506 0.095-0.308 1.408 0.43-0.212 0.041c0.037-0.113 0.045-0.221 0.022-0.322-0.023-0.104-0.073-0.195-0.142-0.267l0 0c-0.069-0.075-0.159-0.13-0.271-0.164-0.114-0.035-0.222-0.041-0.324-0.018-0.104 0.026-0.193 0.077-0.265 0.147l0-0c-0.074 0.072-0.129 0.168-0.165 0.287l-0.023 0.074c-0.037 0.119-0.042 0.233-0.015 0.341s0.081 0.202 0.165 0.282c0.084 0.080 0.19 0.139 0.319 0.179 0.111 0.034 0.217 0.047 0.317 0.040 0.107-0.009 0.205-0.041 0.291-0.092l-0.003 0.002 0.161 0.362c-0.118 0.075-0.258 0.124-0.409 0.138l-0.004 0c-0.151 0.014-0.312-0.006-0.486-0.059zM82.558 20.491l0.609-1.983 0.442 0.135-0.168 0.546-0.003-0.176c0.094-0.11 0.222-0.188 0.368-0.218l0.004-0.001c0.15-0.030 0.32-0.016 0.511 0.043l-0.136 0.442c-0.015-0.010-0.033-0.018-0.052-0.024l-0.002-0c-0.014-0.007-0.031-0.013-0.048-0.019l-0.003-0.001c-0.176-0.054-0.332-0.044-0.468 0.028-0.135 0.070-0.234 0.206-0.296 0.409l-0.295 0.962-0.464-0.142zM85.269 21.348c-0.161-0.048-0.298-0.134-0.407-0.246l-0-0c-0.109-0.114-0.179-0.258-0.213-0.431-0.031-0.174-0.010-0.377 0.061-0.607 0.071-0.233 0.167-0.412 0.287-0.538 0.122-0.125 0.26-0.203 0.414-0.235 0.154-0.034 0.315-0.026 0.484 0.026 0.195 0.060 0.355 0.155 0.477 0.284 0.12 0.124 0.207 0.281 0.247 0.455l0.001 0.006c0.043 0.178 0.033 0.37-0.031 0.576s-0.163 0.371-0.299 0.498c-0.125 0.119-0.283 0.204-0.459 0.242l-0.006 0.001c-0.174 0.039-0.359 0.028-0.555-0.031zM83.956 21.706l0.831-2.703 0.442 0.135-0.144 0.468-0.177 0.523-0.125 0.539-0.363 1.181-0.464-0.142zM85.339 20.935c0.112 0.034 0.218 0.040 0.32 0.017 0.109-0.024 0.204-0.077 0.278-0.151l-0 0c0.081-0.078 0.141-0.18 0.179-0.307 0.040-0.129 0.048-0.247 0.024-0.354-0.022-0.11-0.073-0.205-0.146-0.28l0 0c-0.071-0.076-0.163-0.131-0.274-0.165-0.058-0.020-0.126-0.031-0.196-0.031-0.045 0-0.090 0.005-0.132 0.014l0.004-0.001c-0.109 0.024-0.204 0.077-0.278 0.151l0-0c-0.080 0.076-0.14 0.178-0.18 0.306-0.039 0.126-0.047 0.244-0.023 0.354s0.072 0.203 0.146 0.28c0.074 0.077 0.166 0.132 0.278 0.166zM87.685 22.087c-0.203-0.062-0.371-0.161-0.502-0.296-0.125-0.129-0.217-0.291-0.262-0.472l-0.001-0.007c-0.044-0.181-0.037-0.37 0.023-0.565 0.061-0.198 0.16-0.359 0.298-0.481 0.132-0.12 0.297-0.207 0.479-0.244l0.007-0.001c0.185-0.038 0.379-0.026 0.582 0.036 0.206 0.063 0.374 0.162 0.506 0.297 0.127 0.126 0.22 0.285 0.264 0.464l0.001 0.007c0.045 0.179 0.037 0.369-0.024 0.569-0.060 0.195-0.16 0.356-0.298 0.481-0.132 0.122-0.297 0.21-0.48 0.248l-0.007 0.001c-0.185 0.038-0.38 0.026-0.586-0.037zM87.807 21.69c0.114 0.035 0.223 0.041 0.327 0.019 0.109-0.024 0.202-0.077 0.274-0.152l0-0c0.081-0.078 0.141-0.18 0.179-0.307 0.040-0.129 0.047-0.247 0.023-0.354-0.020-0.109-0.070-0.205-0.142-0.279l0 0c-0.075-0.076-0.169-0.134-0.274-0.165l-0.004-0.001c-0.114-0.035-0.223-0.041-0.327-0.019-0.108 0.026-0.201 0.079-0.274 0.152l0-0c-0.080 0.076-0.14 0.178-0.179 0.307-0.039 0.126-0.047 0.244-0.024 0.354s0.070 0.203 0.142 0.279c0.074 0.077 0.166 0.132 0.278 0.166zM89.658 22.662l-0.119-2.205 0.438 0.134 0.087 1.94-0.208-0.064 1.191-1.549 0.39 0.119 0.098 1.943-0.204-0.063 1.18-1.552 0.412 0.126-1.341 1.759-0.446-0.136-0.104-1.726 0.137 0.042-1.066 1.368-0.446-0.136zM93.581 23.89c-0.221-0.067-0.4-0.17-0.54-0.307-0.129-0.129-0.223-0.292-0.269-0.474l-0.002-0.007c-0.042-0.181-0.033-0.369 0.027-0.565 0.061-0.198 0.158-0.359 0.291-0.484 0.128-0.12 0.289-0.208 0.468-0.248l0.007-0.001c0.183-0.039 0.373-0.028 0.571 0.033 0.193 0.059 0.352 0.154 0.477 0.284 0.121 0.125 0.208 0.283 0.246 0.459l0.001 0.006c0.040 0.18 0.027 0.374-0.036 0.582-0.009 0.027-0.017 0.049-0.026 0.070l0.002-0.005c-0.009 0.028-0.017 0.051-0.027 0.074l0.002-0.004-1.653-0.506 0.095-0.308 1.408 0.431-0.212 0.041c0.038-0.113 0.045-0.221 0.022-0.322-0.023-0.104-0.073-0.195-0.142-0.267l0 0c-0.069-0.075-0.159-0.13-0.271-0.164-0.114-0.035-0.222-0.041-0.324-0.018-0.104 0.026-0.193 0.077-0.265 0.147l0-0c-0.074 0.072-0.129 0.168-0.165 0.287l-0.023 0.074c-0.036 0.119-0.041 0.233-0.015 0.341s0.081 0.202 0.165 0.282c0.084 0.080 0.19 0.139 0.319 0.179 0.111 0.034 0.217 0.047 0.317 0.040 0.107-0.009 0.205-0.041 0.291-0.092l-0.003 0.002 0.161 0.362c-0.118 0.075-0.258 0.124-0.409 0.138l-0.004 0c-0.151 0.014-0.312-0.006-0.486-0.059zM95.045 24.309l0.609-1.983 0.442 0.135-0.168 0.546-0.003-0.176c0.094-0.11 0.222-0.188 0.368-0.218l0.004-0.001c0.15-0.030 0.321-0.016 0.511 0.043l-0.136 0.442c-0.015-0.010-0.033-0.018-0.052-0.024l-0.002-0c-0.014-0.007-0.031-0.013-0.048-0.019l-0.003-0.001c-0.176-0.054-0.332-0.045-0.468 0.028-0.135 0.070-0.234 0.206-0.296 0.409l-0.296 0.962-0.464-0.142z"></path>
<path fill="#a1d737" style="fill: var(--color3, #a1d737)" d="M255.829 28.724h-11.481c-2.546 0-4.611-2.064-4.611-4.611s2.064-4.611 4.611-4.611h11.481c2.546 0 4.611 2.064 4.611 4.611s-2.064 4.611-4.611 4.611z"></path>
<path fill="#111" style="fill: var(--color4, #111)" d="M252.328 25.426l0.695-2.078 0.688 2.078h0.466l0.703-2.067 0.676 2.067h0.524l-0.901-2.719h-0.54l-0.684 2.012-0.672-2.012h-0.536l-0.901 2.719h0.482zM250.166 24.805c0.287 0 0.532-0.093 0.691-0.264v1.049h0.486v-2.882h-0.486v1.049c0 0.416-0.233 0.626-0.579 0.626-0.311 0-0.493-0.179-0.493-0.548v-1.126h-0.486v1.189c0 0.625 0.369 0.909 0.866 0.909zM247.651 22.68c-0.645 0-1.107 0.443-1.107 1.064s0.462 1.060 1.107 1.060c0.637 0 1.103-0.439 1.103-1.060s-0.466-1.064-1.103-1.064zM247.651 23.096c0.35 0 0.614 0.253 0.614 0.649s-0.264 0.649-0.614 0.649c-0.353 0-0.618-0.253-0.618-0.649s0.264-0.649 0.618-0.649zM245.233 24.805c0.334 0 0.657-0.085 0.878-0.256l-0.19-0.353c-0.155 0.128-0.396 0.206-0.629 0.206-0.346 0-0.517-0.167-0.517-0.451v-0.031h0.536c0.629 0 0.862-0.272 0.862-0.618 0-0.361-0.299-0.622-0.773-0.622-0.311 0-0.536 0.101-0.653 0.28v-0.253h-0.458v1.216c0 0.598 0.346 0.882 0.944 0.882zM245.299 23.033c0.249 0 0.396 0.113 0.396 0.287 0 0.151-0.089 0.276-0.419 0.276h-0.501v-0.241c0.082-0.214 0.287-0.322 0.524-0.322z"></path>
<path fill="#a1d737" style="fill: var(--color3, #a1d737)" d="M141.965 28.724h-18.875c-2.546 0-4.611-2.064-4.611-4.611s2.064-4.611 4.611-4.611h18.875c2.546 0 4.611 2.064 4.611 4.611s-2.064 4.611-4.611 4.611z"></path>
<path fill="#111" style="fill: var(--color4, #111)" d="M142.341 22.707l-1.224 2.719h-0.497l-1.227-2.719h0.528l1.053 2.451h-0.202l1.049-2.451h0.52zM141.777 23.336l-0.136 0.396h-1.468l-0.136-0.396h1.74zM136.394 24.805c-0.166 0-0.312-0.032-0.439-0.097-0.129-0.065-0.23-0.165-0.303-0.299-0.072-0.132-0.109-0.303-0.109-0.513v-1.189h0.486v1.126c0 0.184 0.040 0.321 0.12 0.412s0.196 0.136 0.346 0.136c0.106 0 0.201-0.023 0.284-0.070 0.080-0.046 0.144-0.115 0.19-0.206 0.044-0.091 0.066-0.206 0.066-0.346v-1.052h0.486v1.126c0 0.184 0.040 0.321 0.121 0.412s0.196 0.136 0.346 0.136c0.106 0 0.201-0.023 0.284-0.070 0.080-0.046 0.144-0.115 0.191-0.206 0.044-0.091 0.066-0.206 0.066-0.346v-1.052h0.486v2.074h-0.462v-0.552l0.082 0.163c-0.068 0.132-0.172 0.238-0.299 0.305l-0.004 0.002c-0.135 0.070-0.287 0.105-0.458 0.105-0.194 0-0.363-0.048-0.505-0.144-0.145-0.096-0.241-0.241-0.287-0.435l0.191 0.066c-0.067 0.155-0.179 0.28-0.334 0.373s-0.335 0.14-0.54 0.14zM133.563 22.707v0.419l0.027 0.090v0.734c0 0.142 0.043 0.253 0.128 0.33 0.085 0.080 0.215 0.12 0.388 0.12 0.124-0 0.243-0.020 0.354-0.056l-0.008 0.002c0.111-0.036 0.206-0.087 0.283-0.152l0.191 0.354c-0.112 0.085-0.244 0.149-0.396 0.19-0.143 0.042-0.307 0.066-0.477 0.066-0.001 0-0.003 0-0.005 0h0c-0.3 0-0.532-0.073-0.695-0.218-0.166-0.142-0.249-0.364-0.249-0.664v-1.216h0.458zM134.216 22.68c0.155 0 0.291 0.026 0.408 0.078 0.117 0.054 0.207 0.128 0.272 0.221 0.062 0.096 0.093 0.203 0.093 0.322 0 0.117-0.027 0.221-0.081 0.314-0.057 0.093-0.149 0.167-0.276 0.222s-0.295 0.081-0.505 0.081h-0.602v-0.322h0.567c0.166 0 0.277-0.027 0.334-0.082 0.057-0.052 0.085-0.117 0.085-0.194 0-0.088-0.035-0.158-0.105-0.21s-0.167-0.078-0.291-0.078c-0.119 0-0.225 0.027-0.319 0.081-0.094 0.054-0.167 0.137-0.205 0.238l-0.001 0.003-0.081-0.291c0.046-0.122 0.131-0.216 0.252-0.284 0.119-0.067 0.271-0.101 0.454-0.101zM132.571 22.707v0.307l-1.278 1.546-0.089-0.167h1.344v0.388h-1.732v-0.307l1.278-1.546 0.097 0.167h-1.41v-0.388h1.791zM130.251 22.707v2.074h-0.486v-2.074h0.486zM130.007 25.123c0.091 0 0.166 0.029 0.225 0.085 0.057 0.057 0.085 0.126 0.085 0.206 0 0.083-0.029 0.151-0.085 0.206-0.060 0.057-0.135 0.085-0.225 0.085s-0.165-0.027-0.222-0.082c-0.055-0.046-0.089-0.115-0.089-0.192 0-0.002 0-0.004 0-0.006v0c0-0.086 0.029-0.158 0.085-0.218 0.057-0.057 0.132-0.085 0.225-0.085zM127.871 24.805c-0.166 0-0.314-0.032-0.443-0.097-0.132-0.065-0.236-0.165-0.311-0.299-0.075-0.132-0.113-0.303-0.113-0.513v-1.189h0.486v1.126c0 0.184 0.044 0.321 0.132 0.412 0.085 0.091 0.206 0.136 0.361 0.136 0.114 0 0.215-0.023 0.303-0.070s0.157-0.117 0.206-0.21c0.047-0.091 0.070-0.206 0.070-0.346v-1.049h0.486v2.074h-0.462v-0.559l0.082 0.171c-0.072 0.131-0.18 0.235-0.31 0.301l-0.004 0.002c-0.14 0.073-0.301 0.109-0.482 0.109zM125.363 21.926c0.192 0 0.379 0.026 0.563 0.078 0.181 0.049 0.33 0.122 0.447 0.217l-0.218 0.365c-0.091-0.075-0.205-0.135-0.342-0.179-0.126-0.044-0.272-0.070-0.423-0.070h-0c-0.228 0-0.395 0.053-0.501 0.159-0.106 0.104-0.159 0.26-0.159 0.47v0.369l-0.039 0.47 0.016 0.47v0.505h-0.462v-1.76c0-0.375 0.096-0.651 0.288-0.827 0.192-0.179 0.469-0.268 0.831-0.268zM125.425 22.8c0.197 0 0.376 0.041 0.536 0.124 0.156 0.084 0.284 0.204 0.374 0.349l0.002 0.004c0.091 0.15 0.136 0.326 0.136 0.528 0 0.199-0.045 0.374-0.136 0.524-0.093 0.149-0.22 0.267-0.372 0.347l-0.005 0.003c-0.161 0.083-0.339 0.124-0.536 0.124-0.176 0-0.334-0.035-0.474-0.105s-0.251-0.179-0.334-0.326c-0.085-0.148-0.128-0.337-0.128-0.567s0.043-0.421 0.128-0.571c0.083-0.148 0.194-0.258 0.334-0.33 0.14-0.070 0.298-0.105 0.474-0.105zM125.351 23.212c-0.122 0-0.23 0.025-0.326 0.074-0.096 0.052-0.17 0.122-0.221 0.21-0.054 0.091-0.082 0.194-0.082 0.311s0.027 0.219 0.081 0.307c0.052 0.091 0.126 0.159 0.222 0.206 0.096 0.049 0.205 0.074 0.326 0.074s0.232-0.025 0.33-0.074c0.095-0.046 0.172-0.116 0.224-0.203l0.001-0.002c0.052-0.088 0.078-0.191 0.078-0.307s-0.026-0.22-0.078-0.311c-0.056-0.089-0.132-0.16-0.222-0.208l-0.003-0.002c-0.093-0.047-0.203-0.074-0.32-0.074-0.004 0-0.007 0-0.011 0h0.001zM123.494 23.608l0.093 1.818h-0.575l0.097-1.818h0.385zM123.299 22.68c0.091 0 0.166 0.030 0.225 0.090s0.089 0.131 0.089 0.214c0 0.083-0.030 0.153-0.089 0.21-0.060 0.060-0.135 0.089-0.225 0.089s-0.164-0.030-0.221-0.089c-0.053-0.052-0.086-0.124-0.086-0.204 0-0.002 0-0.004 0-0.006v0c0-0.083 0.028-0.154 0.085-0.214s0.131-0.089 0.221-0.089z"></path>
<path fill="#0d171d" style="fill: var(--color1, #0d171d)" d="M212.39 28.724h-13.7c-2.546 0-4.611-2.064-4.611-4.611s2.064-4.611 4.611-4.611h13.7c2.546 0 4.611 2.064 4.611 4.611s-2.064 4.611-4.611 4.611z"></path>
<path fill="#daf836" style="fill: var(--color5, #daf836)" d="M212.195 22.773v2.086c0 0.207-0.060 0.372-0.181 0.496-0.123 0.126-0.298 0.189-0.525 0.189-0.081 0-0.158-0.009-0.229-0.026-0.070-0.015-0.133-0.043-0.186-0.082l0.001 0.001 0.126-0.348c0.035 0.027 0.074 0.047 0.118 0.059 0.044 0.015 0.090 0.022 0.137 0.022 0.096 0 0.169-0.027 0.218-0.081 0.049-0.052 0.074-0.131 0.074-0.237v-0.222l-0.015-0.207v-1.65h0.462zM212.521 24.364v0.37h-1.317v-0.37h1.317zM209.952 22.747c0.202 0 0.382 0.043 0.54 0.129 0.156 0.087 0.282 0.21 0.371 0.358l0.002 0.005c0.091 0.153 0.137 0.327 0.137 0.522 0 0.197-0.046 0.371-0.137 0.522-0.091 0.152-0.218 0.274-0.369 0.356l-0.005 0.003c-0.158 0.086-0.338 0.129-0.54 0.129-0.205 0-0.386-0.043-0.544-0.129-0.156-0.083-0.283-0.204-0.371-0.351l-0.002-0.004c-0.091-0.15-0.137-0.326-0.137-0.525 0-0.195 0.046-0.369 0.137-0.522s0.217-0.277 0.369-0.36l0.005-0.003c0.158-0.086 0.339-0.129 0.544-0.129zM209.952 23.143c-0.113 0-0.215 0.025-0.303 0.074s-0.158 0.121-0.207 0.215c-0.052 0.094-0.078 0.203-0.078 0.329 0 0.128 0.026 0.238 0.078 0.329 0.049 0.094 0.118 0.165 0.207 0.215s0.189 0.074 0.3 0.074c0.114 0 0.215-0.025 0.303-0.074 0.086-0.049 0.155-0.121 0.207-0.215 0.052-0.091 0.078-0.201 0.078-0.329 0-0.126-0.026-0.235-0.078-0.329-0.049-0.090-0.119-0.163-0.205-0.213l-0.003-0.001c-0.089-0.049-0.189-0.074-0.3-0.074zM208.374 22.773v2.745h-0.462v-2.745h0.462zM207.224 22.773v2.745h-0.462v-2.745h0.462zM205.185 22.747c0.202 0 0.382 0.043 0.54 0.129 0.156 0.087 0.282 0.21 0.371 0.358l0.002 0.005c0.091 0.153 0.137 0.327 0.137 0.522 0 0.197-0.046 0.371-0.137 0.522-0.091 0.152-0.218 0.274-0.369 0.356l-0.005 0.003c-0.158 0.086-0.338 0.129-0.54 0.129-0.205 0-0.386-0.043-0.544-0.129-0.156-0.083-0.283-0.204-0.371-0.351l-0.002-0.004c-0.091-0.15-0.137-0.326-0.137-0.525 0-0.195 0.046-0.369 0.137-0.522s0.217-0.277 0.369-0.36l0.005-0.003c0.158-0.086 0.339-0.129 0.544-0.129zM205.185 23.143c-0.113 0-0.215 0.025-0.303 0.074s-0.158 0.121-0.207 0.215c-0.052 0.094-0.078 0.203-0.078 0.329 0 0.128 0.026 0.238 0.078 0.329 0.049 0.094 0.118 0.165 0.207 0.215s0.189 0.074 0.3 0.074c0.114 0 0.215-0.025 0.303-0.074 0.086-0.049 0.155-0.121 0.207-0.215 0.052-0.091 0.078-0.201 0.078-0.329 0-0.126-0.026-0.235-0.078-0.329-0.049-0.090-0.119-0.163-0.205-0.213l-0.003-0.001c-0.089-0.049-0.189-0.074-0.3-0.074zM203.225 22.773l0.725 1.976h-0.437l-0.621-1.742h0.207l-0.651 1.742h-0.388l-0.633-1.742h0.203l-0.64 1.742h-0.411l0.729-1.976h0.444l0.577 1.543h-0.137l0.588-1.543h0.444zM199.595 22.747c0.165 0 0.324 0.021 0.477 0.063 0.15 0.044 0.27 0.097 0.359 0.159l-0.178 0.351c-0.089-0.057-0.195-0.104-0.318-0.141-0.111-0.035-0.238-0.055-0.37-0.055h-0c-0.146 0-0.25 0.020-0.314 0.059-0.067 0.039-0.1 0.093-0.1 0.159 0 0.054 0.022 0.095 0.067 0.122 0.044 0.030 0.102 0.052 0.174 0.067s0.152 0.028 0.24 0.041c0.086 0.012 0.174 0.028 0.263 0.048 0.086 0.022 0.165 0.053 0.237 0.093 0.071 0.042 0.129 0.097 0.174 0.166s0.067 0.16 0.067 0.274c0 0.126-0.036 0.234-0.107 0.326-0.072 0.094-0.171 0.165-0.3 0.215-0.131 0.052-0.285 0.078-0.462 0.078-0.133 0-0.268-0.015-0.403-0.044s-0.248-0.072-0.337-0.126l0.178-0.351c0.094 0.057 0.189 0.095 0.285 0.115 0.094 0.022 0.187 0.033 0.281 0.033 0.141 0 0.245-0.021 0.314-0.063 0.067-0.042 0.1-0.095 0.1-0.159 0-0.059-0.022-0.104-0.067-0.133s-0.102-0.053-0.174-0.070c-0.061-0.016-0.142-0.031-0.223-0.043l-0.014-0.002c-0.089-0.010-0.176-0.026-0.263-0.048-0.090-0.023-0.169-0.055-0.242-0.095l0.005 0.003c-0.074-0.037-0.133-0.090-0.178-0.159s-0.067-0.159-0.067-0.27c0-0.123 0.037-0.231 0.111-0.322 0.071-0.091 0.174-0.163 0.307-0.215 0.133-0.049 0.292-0.074 0.477-0.074z"></path>
<path fill="#a1d737" style="fill: var(--color3, #a1d737)" d="M15.141 10.071h19.245c2.546 0 4.611 2.064 4.611 4.611s-2.064 4.611-4.611 4.611h-19.245c-2.546 0-4.611-2.064-4.611-4.611s2.064-4.611 4.611-4.611z"></path>
<path fill="#111" style="fill: var(--color4, #111)" d="M14.951 16.022l1.165-2.59h0.474l1.169 2.59h-0.503l-1.003-2.334h0.192l-0.999 2.334h-0.496zM15.488 15.423l0.129-0.377h1.398l0.129 0.377h-1.657zM19.246 14.024c0.158 0 0.298 0.031 0.422 0.092 0.127 0.063 0.228 0.161 0.294 0.281l0.002 0.004c0.072 0.126 0.107 0.289 0.107 0.488v1.132h-0.462v-1.073c0-0.175-0.042-0.306-0.126-0.392-0.081-0.086-0.196-0.129-0.344-0.129-0.109 0-0.205 0.022-0.289 0.067s-0.149 0.111-0.196 0.2c-0.044 0.086-0.067 0.196-0.067 0.329v0.999h-0.462v-1.976h0.44v0.533l-0.078-0.163c0.069-0.126 0.169-0.222 0.3-0.289 0.133-0.069 0.286-0.104 0.459-0.104zM20.739 16.022v-1.976h0.462v1.976h-0.462zM20.973 13.721c-0.086 0-0.158-0.027-0.215-0.081-0.050-0.049-0.081-0.117-0.081-0.192 0-0.002 0-0.003 0-0.004v0c0-0.079 0.027-0.144 0.081-0.196 0.057-0.054 0.128-0.081 0.215-0.081s0.157 0.026 0.211 0.078c0.057 0.049 0.085 0.112 0.085 0.189 0 0.081-0.027 0.15-0.081 0.207-0.054 0.054-0.126 0.081-0.215 0.081zM24.384 14.024c0.158 0 0.297 0.031 0.418 0.092 0.123 0.062 0.219 0.157 0.289 0.285 0.069 0.126 0.104 0.289 0.104 0.488v1.132h-0.462v-1.073c0-0.175-0.038-0.306-0.115-0.392s-0.186-0.129-0.329-0.129c-0.101 0-0.191 0.022-0.27 0.067-0.077 0.044-0.137 0.11-0.181 0.196-0.042 0.086-0.063 0.196-0.063 0.329v1.003h-0.462v-1.073c0-0.175-0.038-0.306-0.115-0.392s-0.186-0.129-0.329-0.129c-0.101 0-0.191 0.022-0.27 0.067-0.077 0.044-0.137 0.11-0.181 0.196-0.042 0.086-0.063 0.196-0.063 0.329v1.003h-0.462v-1.976h0.44v0.525l-0.078-0.155c0.067-0.128 0.163-0.226 0.289-0.292 0.128-0.067 0.274-0.1 0.437-0.1 0.185 0 0.345 0.046 0.481 0.137 0.138 0.091 0.229 0.229 0.274 0.414l-0.181-0.063c0.064-0.148 0.17-0.266 0.318-0.355s0.319-0.133 0.514-0.133zM27.083 16.022v-0.4l-0.026-0.085v-0.699c0-0.136-0.041-0.24-0.122-0.314-0.081-0.076-0.205-0.115-0.37-0.115-0.111 0-0.221 0.017-0.329 0.052-0.104 0.033-0.194 0.082-0.272 0.145l0.001-0.001-0.181-0.337c0.106-0.081 0.232-0.142 0.377-0.181 0.148-0.042 0.301-0.063 0.459-0.063 0.286 0 0.507 0.069 0.662 0.207 0.158 0.136 0.237 0.346 0.237 0.633v1.158h-0.437zM26.462 16.048c-0.148 0-0.277-0.025-0.388-0.074-0.111-0.052-0.197-0.122-0.259-0.211-0.056-0.085-0.089-0.189-0.089-0.3 0-0.002 0-0.005 0-0.007v0c0-0.111 0.026-0.211 0.078-0.3 0.054-0.089 0.142-0.159 0.263-0.211s0.281-0.078 0.481-0.078h0.573v0.307h-0.54c-0.158 0-0.264 0.026-0.318 0.078-0.054 0.049-0.081 0.111-0.081 0.185 0 0.084 0.033 0.151 0.1 0.2s0.159 0.074 0.277 0.074c0.114 0 0.215-0.026 0.303-0.078 0.091-0.052 0.157-0.128 0.196-0.229l0.078 0.277c-0.044 0.116-0.125 0.206-0.24 0.27-0.113 0.064-0.258 0.096-0.433 0.096zM28.938 16.048c-0.217 0-0.385-0.056-0.503-0.166-0.118-0.113-0.178-0.28-0.178-0.499v-1.772h0.462v1.761c0 0.094 0.023 0.166 0.070 0.218 0.049 0.052 0.117 0.078 0.203 0.078 0.104 0 0.19-0.027 0.259-0.081l0.129 0.329c-0.054 0.044-0.121 0.078-0.2 0.1s-0.16 0.033-0.244 0.033zM27.932 14.431v-0.37h1.317v0.37h-1.317zM30.707 16.048c-0.22 0-0.412-0.043-0.577-0.129-0.159-0.086-0.288-0.209-0.379-0.358l-0.002-0.004c-0.089-0.153-0.133-0.327-0.133-0.522 0-0.197 0.043-0.371 0.129-0.522 0.088-0.151 0.21-0.273 0.358-0.356l0.005-0.002c0.155-0.086 0.332-0.129 0.529-0.129 0.192 0 0.364 0.042 0.514 0.126s0.271 0.205 0.353 0.351l0.002 0.005c0.086 0.153 0.129 0.333 0.129 0.54 0 0.020-0.001 0.042-0.004 0.067 0 0.025-0.001 0.048-0.004 0.070h-1.646v-0.307h1.402l-0.181 0.096c0.002-0.113-0.021-0.213-0.070-0.3s-0.118-0.155-0.201-0.202l-0.003-0.001c-0.084-0.049-0.181-0.074-0.292-0.074-0.113 0-0.213 0.025-0.3 0.074-0.084 0.049-0.15 0.118-0.2 0.207-0.047 0.086-0.070 0.189-0.070 0.307v0.074c0 0.118 0.027 0.223 0.081 0.314s0.131 0.162 0.229 0.211c0.099 0.049 0.212 0.074 0.34 0.074 0.111 0 0.211-0.017 0.3-0.052s0.168-0.089 0.237-0.163l0.248 0.285c-0.089 0.104-0.201 0.184-0.337 0.24-0.133 0.054-0.286 0.081-0.459 0.081zM32.998 16.048c-0.19 0-0.361-0.042-0.514-0.126-0.149-0.086-0.269-0.206-0.353-0.351l-0.002-0.005c-0.086-0.15-0.129-0.328-0.129-0.533s0.043-0.382 0.129-0.533c0.085-0.148 0.206-0.268 0.351-0.349l0.005-0.002c0.153-0.084 0.324-0.126 0.514-0.126 0.165 0 0.313 0.037 0.444 0.111 0.131 0.072 0.234 0.181 0.311 0.329s0.115 0.338 0.115 0.57c0 0.229-0.037 0.419-0.111 0.57-0.074 0.148-0.176 0.259-0.307 0.333s-0.281 0.111-0.451 0.111zM33.053 15.652c0.111 0 0.21-0.025 0.296-0.074 0.089-0.049 0.159-0.121 0.211-0.215 0.054-0.094 0.081-0.203 0.081-0.329 0-0.128-0.027-0.238-0.081-0.329-0.049-0.091-0.121-0.164-0.208-0.213l-0.003-0.001c-0.086-0.049-0.185-0.074-0.296-0.074s-0.211 0.025-0.3 0.074c-0.089 0.052-0.16 0.125-0.209 0.212l-0.001 0.003c-0.052 0.091-0.078 0.201-0.078 0.329 0 0.126 0.026 0.235 0.078 0.329 0.054 0.094 0.125 0.165 0.211 0.215 0.089 0.049 0.189 0.074 0.3 0.074zM33.652 16.022v-0.466l0.019-0.525-0.037-0.525v-1.228h0.459v2.745h-0.44z"></path>
<path fill="#daf836" style="fill: var(--color5, #daf836)" d="M124.797 17.062l-10.384 11.509c-1.709 1.894-4.632 2.047-6.529 0.343s-2.051-4.621-0.342-6.515l10.384-11.509c1.709-1.894 4.632-2.047 6.529-0.343s2.051 4.621 0.342 6.515z"></path>
<path fill="#111" style="fill: var(--color4, #111)" d="M119.661 13.834c0.139-0.154 0.295-0.262 0.468-0.326 0.098-0.036 0.212-0.057 0.33-0.057 0.068 0 0.134 0.007 0.198 0.020l-0.006-0.001c0.175 0.034 0.335 0.117 0.48 0.247 0.147 0.132 0.245 0.282 0.296 0.45 0.053 0.17 0.057 0.343 0.014 0.52-0.045 0.179-0.137 0.345-0.276 0.499-0.129 0.143-0.271 0.242-0.427 0.297-0.081 0.032-0.175 0.051-0.273 0.051-0.073 0-0.144-0.010-0.211-0.030l0.005 0.001 0.084-0.402c0.109 0.019 0.21 0.011 0.3-0.024 0.092-0.034 0.171-0.089 0.232-0.158l0.001-0.001c0.076-0.084 0.126-0.177 0.151-0.277 0.010-0.038 0.015-0.081 0.015-0.125 0-0.064-0.011-0.125-0.032-0.181l0.001 0.004c-0.033-0.099-0.098-0.192-0.193-0.277s-0.195-0.141-0.3-0.165c-0.036-0.008-0.077-0.013-0.119-0.013-0.065 0-0.128 0.012-0.186 0.033l0.004-0.001c-0.098 0.035-0.185 0.094-0.261 0.178-0.062 0.068-0.109 0.151-0.133 0.244l-0.001 0.004c-0.025 0.094-0.022 0.194 0.008 0.3l-0.392 0.125c-0.034-0.086-0.053-0.185-0.053-0.288 0-0.068 0.008-0.134 0.024-0.197l-0.001 0.006c0.039-0.161 0.123-0.313 0.252-0.455zM118.793 14.835l1.47 1.32-0.295 0.327-0.405-0.363 0.153 0.068c0.059 0.133 0.073 0.269 0.040 0.409-0.034 0.141-0.115 0.282-0.243 0.424l-0.328-0.294c0.017-0.011 0.031-0.023 0.043-0.036 0.013-0.011 0.026-0.023 0.038-0.036 0.117-0.13 0.172-0.268 0.165-0.414-0.006-0.144-0.084-0.284-0.235-0.419l-0.713-0.64 0.31-0.343zM117.080 16.694c0.147-0.163 0.308-0.277 0.483-0.342 0.1-0.037 0.215-0.059 0.336-0.059 0.067 0 0.132 0.007 0.196 0.019l-0.006-0.001c0.173 0.036 0.332 0.119 0.477 0.25 0.147 0.132 0.247 0.28 0.302 0.445 0.030 0.089 0.048 0.191 0.048 0.298 0 0.075-0.009 0.148-0.025 0.218l0.001-0.006c-0.040 0.173-0.126 0.333-0.258 0.479-0.129 0.143-0.275 0.242-0.438 0.298-0.089 0.032-0.191 0.050-0.297 0.050-0.073 0-0.143-0.009-0.211-0.025l0.006 0.001c-0.171-0.038-0.334-0.126-0.489-0.265-0.017-0.015-0.032-0.030-0.046-0.047l-0.001-0.001c-0.019-0.016-0.035-0.033-0.050-0.050l1.103-1.222 0.228 0.205-0.939 1.041 0.050-0.199c0.082 0.078 0.173 0.127 0.27 0.148 0.035 0.008 0.076 0.013 0.117 0.013 0.061 0 0.12-0.010 0.174-0.029l-0.004 0.001c0.093-0.030 0.176-0.085 0.251-0.168 0.076-0.084 0.125-0.175 0.146-0.272 0.007-0.032 0.011-0.069 0.011-0.107 0-0.065-0.011-0.126-0.032-0.184l0.001 0.004c-0.033-0.093-0.093-0.178-0.181-0.257l-0.055-0.050c-0.088-0.079-0.184-0.129-0.289-0.15-0.032-0.007-0.068-0.010-0.106-0.010-0.074 0-0.144 0.015-0.208 0.041l0.004-0.001c-0.103 0.040-0.197 0.108-0.283 0.203-0.067 0.072-0.122 0.158-0.16 0.252l-0.002 0.006c-0.034 0.089-0.046 0.184-0.038 0.285l-0.378-0.006c-0.004-0.033-0.007-0.070-0.007-0.109 0-0.108 0.020-0.212 0.055-0.308l-0.002 0.006c0.049-0.135 0.131-0.267 0.247-0.395zM115.347 18.654l0.297 0.267 0.081 0.038 0.52 0.467c0.101 0.091 0.206 0.131 0.316 0.119 0.111-0.009 0.222-0.075 0.333-0.198 0.075-0.082 0.135-0.176 0.182-0.279 0.045-0.102 0.070-0.201 0.074-0.297l0.372 0.090c-0.010 0.133-0.050 0.267-0.118 0.401-0.073 0.146-0.16 0.272-0.262 0.384l0.001-0.001c-0.192 0.213-0.391 0.33-0.598 0.353-0.207 0.026-0.416-0.056-0.629-0.247l-0.861-0.774 0.292-0.324zM115.743 18.175c0.099-0.11 0.204-0.19 0.315-0.239 0.113-0.048 0.223-0.065 0.33-0.051 0.112 0.018 0.21 0.068 0.288 0.14l-0-0c0.083 0.074 0.14 0.16 0.171 0.258 0.030 0.1 0.023 0.212-0.019 0.336s-0.131 0.261-0.264 0.409l-0.384 0.426-0.228-0.205 0.362-0.401c0.106-0.117 0.158-0.213 0.155-0.288 0-0.001 0-0.002 0-0.003 0-0.072-0.032-0.137-0.083-0.181l-0-0c-0.042-0.040-0.1-0.065-0.163-0.065-0.019 0-0.037 0.002-0.054 0.006l0.002-0c-0.081 0.016-0.162 0.068-0.241 0.157-0.076 0.084-0.124 0.177-0.145 0.277-0.007 0.029-0.011 0.062-0.011 0.096 0 0.074 0.018 0.144 0.051 0.205l-0.001-0.002-0.258-0.128c-0.056-0.111-0.070-0.23-0.040-0.359 0.028-0.127 0.101-0.256 0.218-0.385zM114.084 20.014c0.145-0.161 0.299-0.249 0.461-0.262 0.164-0.012 0.327 0.055 0.491 0.202l1.318 1.184-0.31 0.343-1.31-1.177c-0.070-0.063-0.14-0.094-0.21-0.094-0.072 0.002-0.136 0.035-0.194 0.099-0.069 0.077-0.107 0.159-0.113 0.247l-0.332-0.124c0.003-0.070 0.023-0.142 0.060-0.215s0.083-0.141 0.139-0.203zM115.961 20.347l0.275 0.247-0.882 0.978-0.275-0.247 0.882-0.978zM113.497 20.704l1.47 1.32-0.31 0.343-1.47-1.32 0.31-0.343zM115.053 22.414c0.058-0.064 0.126-0.099 0.204-0.105 0.077-0.004 0.144 0.019 0.2 0.070 0.055 0.047 0.090 0.115 0.091 0.191v0c0.002 0.078-0.025 0.15-0.083 0.214s-0.124 0.099-0.199 0.105c-0.075 0.009-0.141-0.012-0.197-0.063-0.057-0.049-0.094-0.119-0.099-0.198l-0-0.001c-0.004-0.077 0.024-0.148 0.083-0.214zM112.374 21.948l2.037 0.691-0.322 0.357-1.784-0.623 0.159-0.176 0.791 1.725-0.297 0.33-0.902-1.949 0.32-0.354zM110.634 23.838c0.147-0.163 0.308-0.277 0.483-0.342 0.1-0.037 0.215-0.059 0.336-0.059 0.067 0 0.132 0.007 0.196 0.019l-0.006-0.001c0.173 0.036 0.332 0.12 0.477 0.25 0.147 0.132 0.247 0.28 0.301 0.445 0.030 0.089 0.048 0.191 0.048 0.298 0 0.075-0.009 0.148-0.025 0.218l0.001-0.006c-0.040 0.173-0.126 0.333-0.258 0.479-0.129 0.143-0.275 0.242-0.438 0.298-0.089 0.031-0.191 0.050-0.297 0.050-0.073 0-0.144-0.009-0.211-0.025l0.006 0.001c-0.171-0.038-0.334-0.126-0.489-0.265-0.017-0.015-0.032-0.031-0.046-0.047l-0.001-0.001c-0.019-0.016-0.035-0.033-0.050-0.050l1.103-1.222 0.228 0.205-0.939 1.041 0.050-0.199c0.083 0.078 0.173 0.127 0.27 0.148 0.035 0.008 0.075 0.013 0.117 0.013 0.061 0 0.12-0.010 0.175-0.029l-0.004 0.001c0.093-0.029 0.176-0.085 0.251-0.168 0.076-0.084 0.125-0.175 0.146-0.272 0.007-0.032 0.011-0.069 0.011-0.107 0-0.065-0.011-0.126-0.032-0.184l0.001 0.004c-0.033-0.093-0.093-0.178-0.181-0.257l-0.055-0.049c-0.088-0.079-0.184-0.129-0.289-0.15-0.032-0.007-0.068-0.010-0.106-0.010-0.074 0-0.144 0.015-0.208 0.041l0.004-0.001c-0.103 0.040-0.197 0.108-0.283 0.203-0.067 0.072-0.122 0.158-0.16 0.252l-0.002 0.006c-0.034 0.089-0.046 0.184-0.038 0.285l-0.378-0.006c-0.004-0.032-0.007-0.070-0.007-0.108 0-0.109 0.020-0.212 0.055-0.308l-0.002 0.006c0.049-0.135 0.131-0.267 0.247-0.395z"></path>
<path fill="#daf836" style="fill: var(--color5, #daf836)" d="M36.478 2.39l12.025 7.277c2.181 1.32 2.876 4.154 1.55 6.331s-4.168 2.87-6.349 1.55l-12.025-7.277c-2.181-1.32-2.876-4.154-1.55-6.331s4.168-2.87 6.349-1.55z"></path>
<path fill="#111" style="fill: var(--color4, #111)" d="M34.168 8.173q-0.269-0.163-0.474-0.391t-0.275-0.443l0.354-0.245q0.074 0.199 0.238 0.397t0.374 0.324q0.259 0.157 0.437 0.152t0.262-0.142q0.060-0.1 0.029-0.208t-0.12-0.211-0.248-0.263q-0.227-0.224-0.354-0.387t-0.163-0.368 0.104-0.435q0.117-0.193 0.318-0.287t0.468-0.060 0.573 0.22q0.213 0.129 0.386 0.307 0.174 0.177 0.263 0.367l-0.34 0.252q-0.098-0.181-0.237-0.328t-0.294-0.242q-0.256-0.155-0.434-0.144-0.176 0.011-0.263 0.154-0.061 0.099-0.028 0.206t0.12 0.209 0.249 0.264q0.223 0.217 0.349 0.382t0.164 0.369-0.099 0.43q-0.117 0.193-0.317 0.286t-0.469 0.057-0.575-0.221zM36.665 7.214l0.415 0.251-1.077 1.772-0.415-0.251 1.077-1.772zM37.052 7.048q-0.113-0.068-0.146-0.186t0.032-0.224 0.184-0.131 0.232 0.043 0.148 0.183-0.027 0.218q-0.067 0.109-0.186 0.139t-0.237-0.041zM37.743 10.159q-0.109 0.016-0.232-0.018t-0.24-0.104q-0.292-0.177-0.359-0.426-0.066-0.249 0.112-0.542l0.518-0.852-0.293-0.177 0.202-0.332 0.293 0.177 0.246-0.405 0.415 0.251-0.246 0.405 0.475 0.287-0.202 0.332-0.475-0.287-0.512 0.843q-0.079 0.129-0.058 0.235t0.142 0.179q0.139 0.085 0.276 0.068l-0.063 0.366zM38.836 10.984q-0.276-0.167-0.424-0.415t-0.145-0.531q0.004-0.282 0.163-0.544t0.407-0.393 0.536-0.115 0.568 0.184q0.263 0.159 0.395 0.385t0.112 0.486l-0.432-0.007q-0.002-0.168-0.080-0.3t-0.213-0.213q-0.232-0.14-0.478-0.082-0.244 0.058-0.397 0.31t-0.094 0.495 0.295 0.385q0.136 0.082 0.288 0.091 0.153 0.008 0.304-0.069l0.205 0.379q-0.224 0.136-0.488 0.125-0.263-0.011-0.522-0.169zM40.794 12.169q-0.27-0.163-0.415-0.41t-0.141-0.528q0.005-0.281 0.165-0.543t0.405-0.394q0.247-0.132 0.533-0.117t0.556 0.177q0.273 0.165 0.417 0.412t0.141 0.525q-0.003 0.28-0.163 0.541t-0.407 0.396-0.534 0.12-0.559-0.179zM41.010 11.813q0.23 0.139 0.471 0.077t0.394-0.312q0.151-0.249 0.095-0.491t-0.286-0.383-0.47-0.075q-0.24 0.063-0.391 0.312t-0.097 0.491 0.285 0.381zM45.553 12.565q0.335 0.203 0.413 0.516t-0.158 0.701l-0.617 1.015-0.415-0.252 0.585-0.963q0.142-0.232 0.11-0.412t-0.225-0.297q-0.209-0.127-0.42-0.065t-0.365 0.317l-0.547 0.899-0.415-0.251 0.585-0.963q0.141-0.233 0.11-0.412t-0.225-0.297q-0.213-0.129-0.42-0.068-0.206 0.060-0.364 0.319l-0.547 0.899-0.415-0.252 1.077-1.772 0.395 0.239-0.137 0.225q0.172-0.059 0.36-0.031t0.371 0.138q0.2 0.121 0.309 0.289t0.11 0.369q0.195-0.072 0.415-0.046t0.43 0.153z"></path>
<path fill="#daf836" style="fill: var(--color5, #daf836)" d="M175.749 10.501l10.506 7.229c2.1 1.445 2.627 4.317 1.177 6.415l0-0c-1.45 2.098-4.329 2.627-6.429 1.181l-10.506-7.229c-2.1-1.445-2.627-4.317-1.177-6.415l-0 0c1.45-2.098 4.329-2.627 6.429-1.181z"></path>
<path fill="#111" style="fill: var(--color4, #111)" d="M172.604 15.673c-0.179-0.123-0.313-0.271-0.403-0.442-0.071-0.136-0.112-0.297-0.112-0.468 0-0.024 0.001-0.049 0.002-0.072l-0 0.003c0.012-0.186 0.077-0.364 0.193-0.532 0.118-0.171 0.261-0.294 0.43-0.369 0.124-0.058 0.269-0.092 0.422-0.092 0.042 0 0.083 0.003 0.123 0.007l-0.005-0c0.192 0.022 0.378 0.095 0.557 0.218 0.166 0.115 0.289 0.249 0.368 0.404 0.082 0.154 0.112 0.319 0.088 0.494l-0.431-0.032c0.005-0.116-0.017-0.219-0.065-0.309s-0.114-0.164-0.195-0.219l-0.002-0.001c-0.087-0.062-0.192-0.105-0.307-0.119l-0.003-0c-0.018-0.002-0.039-0.003-0.060-0.003-0.093 0-0.18 0.023-0.256 0.062l0.003-0.001c-0.099 0.048-0.187 0.127-0.264 0.238s-0.12 0.222-0.131 0.334c-0.002 0.016-0.003 0.035-0.003 0.053 0 0.094 0.023 0.182 0.064 0.259l-0.001-0.003c0.053 0.101 0.128 0.184 0.219 0.245l0.002 0.002c0.085 0.059 0.178 0.094 0.277 0.105 0.101 0.013 0.205-0.003 0.313-0.049l0.184 0.39c-0.155 0.082-0.32 0.115-0.497 0.097-0.173-0.018-0.343-0.085-0.509-0.199zM174.49 16.97c-0.175-0.12-0.305-0.265-0.39-0.433-0.069-0.135-0.109-0.295-0.109-0.464 0-0.025 0.001-0.050 0.003-0.075l-0 0.003c0.012-0.186 0.077-0.364 0.193-0.532 0.118-0.17 0.261-0.293 0.43-0.369 0.125-0.059 0.272-0.094 0.427-0.094 0.039 0 0.077 0.002 0.115 0.006l-0.005-0c0.188 0.019 0.37 0.089 0.545 0.21 0.177 0.122 0.308 0.267 0.393 0.436 0.087 0.17 0.124 0.346 0.111 0.529-0.011 0.184-0.076 0.363-0.195 0.535-0.116 0.168-0.26 0.291-0.43 0.369-0.126 0.061-0.275 0.097-0.431 0.097-0.038 0-0.076-0.002-0.113-0.006l0.005 0c-0.188-0.019-0.371-0.090-0.548-0.212zM174.726 16.628c0.098 0.067 0.2 0.106 0.306 0.117 0.016 0.002 0.034 0.003 0.052 0.003 0.094 0 0.182-0.024 0.258-0.066l-0.003 0.001c0.101-0.050 0.189-0.129 0.264-0.238 0.077-0.111 0.12-0.221 0.129-0.331 0.003-0.021 0.005-0.046 0.005-0.070 0-0.087-0.021-0.169-0.057-0.241l0.001 0.003c-0.051-0.099-0.124-0.181-0.213-0.241l-0.002-0.001c-0.098-0.068-0.2-0.106-0.307-0.117-0.013-0.001-0.029-0.002-0.045-0.002-0.096 0-0.186 0.024-0.265 0.065l0.003-0.002c-0.099 0.048-0.187 0.128-0.264 0.238-0.075 0.109-0.118 0.219-0.129 0.331s0.006 0.215 0.051 0.309c0.047 0.095 0.119 0.176 0.215 0.242zM179.216 17.643c0.137 0.094 0.239 0.203 0.306 0.329 0.070 0.127 0.096 0.266 0.080 0.418-0.015 0.15-0.083 0.311-0.202 0.483l-0.676 0.978-0.4-0.275 0.641-0.927c0.105-0.151 0.149-0.287 0.135-0.407s-0.084-0.223-0.208-0.308c-0.088-0.060-0.179-0.095-0.273-0.103-0.093-0.007-0.184 0.013-0.274 0.061-0.088 0.050-0.171 0.132-0.251 0.247l-0.599 0.866-0.4-0.275 0.64-0.927c0.105-0.151 0.149-0.287 0.135-0.407s-0.084-0.223-0.208-0.308c-0.087-0.060-0.179-0.095-0.273-0.103-0.093-0.007-0.184 0.013-0.274 0.062-0.088 0.050-0.171 0.132-0.251 0.247l-0.598 0.866-0.4-0.275 1.179-1.707 0.381 0.262-0.314 0.454 0.026-0.181c0.098-0.054 0.214-0.086 0.338-0.086 0.030 0 0.060 0.002 0.089 0.006l-0.003-0c0.151 0.019 0.297 0.077 0.437 0.174 0.16 0.11 0.271 0.245 0.334 0.405 0.065 0.161 0.062 0.335-0.011 0.521l-0.119-0.162c0.144-0.090 0.306-0.129 0.487-0.117s0.356 0.075 0.524 0.191zM179.303 20.248l1.179-1.706 0.4 0.275-1.179 1.706-0.4-0.275zM180.878 18.4c-0.075-0.051-0.12-0.117-0.137-0.198-0.015-0.079 0.001-0.152 0.047-0.218 0.042-0.064 0.108-0.109 0.186-0.121l0.002-0c0.081-0.013 0.16 0.006 0.234 0.057s0.12 0.116 0.136 0.193c0.020 0.076 0.006 0.148-0.039 0.214-0.049 0.070-0.113 0.114-0.194 0.13-0.079 0.015-0.157-0.004-0.234-0.057zM181.064 21.493c-0.179-0.123-0.314-0.271-0.403-0.442-0.071-0.136-0.112-0.298-0.112-0.468 0-0.024 0.001-0.049 0.002-0.073l-0 0.003c0.012-0.186 0.077-0.364 0.193-0.532 0.118-0.17 0.261-0.293 0.43-0.369 0.124-0.058 0.269-0.092 0.422-0.092 0.042 0 0.083 0.003 0.123 0.007l-0.005-0c0.192 0.022 0.378 0.095 0.557 0.218 0.166 0.115 0.289 0.249 0.368 0.404 0.082 0.154 0.112 0.319 0.088 0.494l-0.431-0.032c0.005-0.116-0.017-0.219-0.065-0.309s-0.114-0.164-0.195-0.219l-0.002-0.001c-0.087-0.062-0.192-0.105-0.307-0.118l-0.003-0c-0.018-0.002-0.039-0.003-0.061-0.003-0.092 0-0.179 0.023-0.256 0.062l0.003-0.001c-0.099 0.048-0.187 0.127-0.264 0.238s-0.12 0.222-0.131 0.334c-0.002 0.016-0.003 0.034-0.003 0.053 0 0.094 0.023 0.182 0.064 0.26l-0.001-0.003c0.053 0.101 0.128 0.184 0.219 0.245l0.002 0.002c0.085 0.059 0.178 0.094 0.277 0.105 0.101 0.013 0.205-0.003 0.313-0.049l0.184 0.39c-0.154 0.082-0.32 0.115-0.497 0.097-0.173-0.018-0.343-0.085-0.509-0.199zM182.734 22.642c-0.143-0.098-0.266-0.21-0.373-0.336l-0.002-0.003c-0.104-0.128-0.176-0.245-0.215-0.351l0.363-0.198c0.043 0.102 0.107 0.206 0.191 0.311s0.18 0.195 0.287 0.268c0.126 0.087 0.228 0.132 0.307 0.136 0.081 0.006 0.142-0.020 0.181-0.078 0.032-0.047 0.038-0.095 0.015-0.145-0.021-0.052-0.058-0.105-0.111-0.161s-0.114-0.115-0.184-0.178c-0.069-0.064-0.134-0.129-0.196-0.196l-0.002-0.002c-0.057-0.064-0.107-0.137-0.147-0.215l-0.003-0.006c-0.032-0.067-0.051-0.145-0.051-0.228 0-0.007 0-0.013 0-0.020l-0 0.001c0.003-0.086 0.038-0.178 0.106-0.276 0.075-0.109 0.171-0.181 0.287-0.217 0.118-0.038 0.247-0.041 0.387-0.007 0.144 0.033 0.293 0.102 0.446 0.208 0.115 0.079 0.223 0.172 0.322 0.278s0.172 0.209 0.216 0.309l-0.363 0.198c-0.046-0.104-0.106-0.192-0.178-0.269l0 0c-0.066-0.073-0.139-0.138-0.219-0.193l-0.004-0.003c-0.122-0.084-0.225-0.128-0.309-0.133-0.083-0.003-0.143 0.023-0.181 0.078-0.036 0.051-0.043 0.103-0.022 0.155s0.057 0.107 0.109 0.164c0.052 0.057 0.111 0.117 0.178 0.179 0.071 0.061 0.137 0.127 0.198 0.198s0.111 0.144 0.15 0.221c0.042 0.076 0.061 0.157 0.059 0.243s-0.037 0.177-0.104 0.273c-0.074 0.107-0.17 0.177-0.288 0.212-0.116 0.036-0.248 0.037-0.394 0.003-0.145-0.037-0.297-0.11-0.457-0.22z"></path>
</symbol>
</defs>
</svg>
