<svg aria-hidden="true" style="position: absolute; width: 0; height: 0; overflow: hidden;" version="1.1" xmlns="http://www.w3.org/2000/svg" xmlns:xlink="http://www.w3.org/1999/xlink">
<defs>
<symbol id="icon-twitterlight" viewBox="0 0 32 32">
<path fill="none" opacity="0.2" stroke="#111" style="stroke: var(--color1, #111)" stroke-linejoin="miter" stroke-linecap="butt" stroke-miterlimit="4" stroke-width="0.5714" d="M6.857 0.286h18.286c3.629 0 6.571 2.942 6.571 6.571v18.286c0 3.629-2.942 6.571-6.571 6.571h-18.286c-3.629 0-6.571-2.942-6.571-6.571v-18.286c0-3.629 2.942-6.571 6.571-6.571z"></path>
<path fill="none" stroke="#111" style="stroke: var(--color1, #111)" stroke-linejoin="round" stroke-linecap="round" stroke-miterlimit="4" stroke-width="1.1429" d="M22.286 10.857c-0.547 0.386-1.153 0.681-1.794 0.874-0.344-0.396-0.802-0.676-1.31-0.803s-1.044-0.095-1.534 0.092-0.911 0.52-1.205 0.954c-0.295 0.434-0.449 0.948-0.442 1.472v0.571c-1.004 0.026-1.999-0.197-2.897-0.648s-1.669-1.118-2.246-1.94c0 0-2.286 5.143 2.857 7.429-1.177 0.799-2.579 1.199-4 1.143 5.143 2.857 11.429 0 11.429-6.571-0-0.159-0.016-0.318-0.046-0.474 0.583-0.575 0.995-1.301 1.189-2.097z"></path>
</symbol>
<symbol id="icon-facebook" viewBox="0 0 32 32">
<path fill="none" opacity="0.2" stroke="#fafafa" style="stroke: var(--color2, #fafafa)" stroke-linejoin="miter" stroke-linecap="butt" stroke-miterlimit="4" stroke-width="0.5714" d="M6.857 0.286h18.286c3.629 0 6.571 2.942 6.571 6.571v18.286c0 3.629-2.942 6.571-6.571 6.571h-18.286c-3.629 0-6.571-2.942-6.571-6.571v-18.286c0-3.629 2.942-6.571 6.571-6.571z"></path>
<path fill="#fafafa" style="fill: var(--color2, #fafafa)" d="M18.572 11.419h1.241v-2.181c-0.601-0.065-1.204-0.097-1.808-0.096-1.795 0-3.023 1.138-3.023 3.223v1.797h-2.026v2.441h2.026v6.254h2.429v-6.254h2.020l0.304-2.441h-2.323v-1.557c0-0.72 0.185-1.186 1.162-1.186z"></path>
</symbol>
<symbol id="icon-facebooklight" viewBox="0 0 32 32">
<path fill="none" opacity="0.2" stroke="#111" style="stroke: var(--color1, #111)" stroke-linejoin="miter" stroke-linecap="butt" stroke-miterlimit="4" stroke-width="0.5714" d="M6.857 0.286h18.286c3.629 0 6.571 2.942 6.571 6.571v18.286c0 3.629-2.942 6.571-6.571 6.571h-18.286c-3.629 0-6.571-2.942-6.571-6.571v-18.286c0-3.629 2.942-6.571 6.571-6.571z"></path>
<path d="M18.572 11.419h1.241v-2.181c-0.601-0.065-1.204-0.097-1.808-0.096-1.795 0-3.023 1.138-3.023 3.223v1.797h-2.026v2.441h2.026v6.254h2.429v-6.254h2.020l0.304-2.441h-2.323v-1.557c0-0.72 0.185-1.186 1.162-1.186z"></path>
</symbol>
<symbol id="icon-inst" viewBox="0 0 32 32">
<path fill="none" stroke="#fafafa" style="stroke: var(--color2, #fafafa)" stroke-linejoin="miter" stroke-linecap="butt" stroke-miterlimit="4" stroke-width="0.5714" d="M6.857 0.286h18.286c3.629 0 6.571 2.942 6.571 6.571v18.286c0 3.629-2.942 6.571-6.571 6.571h-18.286c-3.629 0-6.571-2.942-6.571-6.571v-18.286c0-3.629 2.942-6.571 6.571-6.571z"></path>
<path fill="#fafafa" style="fill: var(--color2, #fafafa)" d="M19.991 11.115c-0.177 0-0.35 0.053-0.498 0.151s-0.262 0.238-0.33 0.402c-0.068 0.164-0.086 0.344-0.051 0.518s0.12 0.333 0.245 0.459c0.125 0.125 0.285 0.211 0.459 0.245s0.354 0.017 0.518-0.051c0.164-0.068 0.304-0.183 0.402-0.33s0.151-0.321 0.151-0.498c0-0.238-0.094-0.466-0.262-0.634s-0.396-0.262-0.634-0.262zM23.426 12.922c-0.015-0.62-0.131-1.232-0.343-1.814-0.19-0.498-0.485-0.949-0.866-1.322-0.37-0.383-0.822-0.676-1.322-0.859-0.58-0.219-1.194-0.338-1.814-0.351-0.791-0.045-1.045-0.045-3.076-0.045s-2.285 0-3.076 0.045c-0.62 0.013-1.234 0.132-1.814 0.351-0.499 0.184-0.95 0.478-1.322 0.859-0.383 0.37-0.676 0.822-0.859 1.322-0.219 0.58-0.338 1.194-0.351 1.814-0.045 0.791-0.045 1.045-0.045 3.076s0 2.285 0.045 3.076c0.013 0.62 0.132 1.234 0.351 1.814 0.182 0.5 0.476 0.952 0.859 1.322 0.371 0.381 0.823 0.674 1.322 0.859 0.58 0.219 1.194 0.338 1.814 0.351 0.791 0.045 1.045 0.045 3.076 0.045s2.285 0 3.076-0.045c0.62-0.013 1.234-0.132 1.814-0.351 0.5-0.182 0.952-0.476 1.322-0.859 0.382-0.371 0.678-0.823 0.866-1.322 0.213-0.582 0.329-1.195 0.343-1.814 0-0.791 0.045-1.045 0.045-3.076s0-2.285-0.045-3.076zM22.082 18.985c-0.005 0.474-0.091 0.944-0.254 1.389-0.119 0.325-0.311 0.619-0.56 0.859-0.242 0.247-0.535 0.438-0.859 0.56-0.445 0.163-0.915 0.248-1.389 0.254-0.747 0.037-1.023 0.045-2.987 0.045s-2.24 0-2.987-0.045c-0.492 0.009-0.982-0.067-1.448-0.224-0.309-0.128-0.589-0.319-0.821-0.56-0.248-0.24-0.437-0.534-0.553-0.859-0.182-0.452-0.283-0.932-0.299-1.419 0-0.747-0.045-1.023-0.045-2.987s0-2.24 0.045-2.987c0.003-0.485 0.092-0.965 0.261-1.419 0.131-0.315 0.333-0.596 0.59-0.821 0.227-0.257 0.507-0.461 0.821-0.597 0.455-0.164 0.935-0.25 1.419-0.254 0.747 0 1.023-0.045 2.987-0.045s2.24 0 2.987 0.045c0.474 0.005 0.944 0.091 1.389 0.254 0.339 0.126 0.644 0.331 0.889 0.597 0.245 0.229 0.436 0.51 0.56 0.821 0.166 0.455 0.252 0.935 0.254 1.419 0.037 0.747 0.045 1.023 0.045 2.987s-0.008 2.24-0.045 2.987zM16.004 12.168c-0.757 0.001-1.497 0.227-2.126 0.649s-1.119 1.021-1.408 1.721c-0.289 0.7-0.364 1.47-0.215 2.212s0.514 1.424 1.050 1.959c0.536 0.535 1.219 0.899 1.961 1.046s1.513 0.071 2.212-0.219c0.7-0.29 1.297-0.781 1.718-1.411s0.645-1.37 0.645-2.127c0.001-0.504-0.098-1.003-0.29-1.469s-0.475-0.889-0.832-1.245c-0.357-0.356-0.78-0.638-1.246-0.83s-0.965-0.289-1.469-0.287zM16.004 18.484c-0.492 0-0.972-0.146-1.381-0.419s-0.728-0.662-0.916-1.116-0.237-0.954-0.142-1.437c0.096-0.482 0.333-0.925 0.68-1.273s0.791-0.585 1.273-0.68c0.482-0.096 0.982-0.047 1.437 0.142s0.843 0.507 1.116 0.916c0.273 0.409 0.419 0.89 0.419 1.381 0 0.327-0.064 0.65-0.189 0.952s-0.308 0.576-0.539 0.807c-0.231 0.231-0.505 0.414-0.807 0.539s-0.625 0.189-0.951 0.189z"></path>
</symbol>
<symbol id="icon-twitter" viewBox="0 0 32 32">
<path fill="none" opacity="0.2" stroke="#fafafa" style="stroke: var(--color2, #fafafa)" stroke-linejoin="miter" stroke-linecap="butt" stroke-miterlimit="4" stroke-width="0.5714" d="M6.857 0.286h18.286c3.629 0 6.571 2.942 6.571 6.571v18.286c0 3.629-2.942 6.571-6.571 6.571h-18.286c-3.629 0-6.571-2.942-6.571-6.571v-18.286c0-3.629 2.942-6.571 6.571-6.571z"></path>
<path fill="none" stroke="#fafafa" style="stroke: var(--color2, #fafafa)" stroke-linejoin="round" stroke-linecap="round" stroke-miterlimit="4" stroke-width="1.1429" d="M22.286 10.857c-0.547 0.386-1.153 0.681-1.794 0.874-0.344-0.396-0.802-0.676-1.31-0.803s-1.044-0.095-1.534 0.092-0.911 0.52-1.205 0.954c-0.295 0.434-0.449 0.948-0.442 1.472v0.571c-1.004 0.026-1.999-0.197-2.897-0.648s-1.669-1.118-2.246-1.94c0 0-2.286 5.143 2.857 7.429-1.177 0.799-2.579 1.199-4 1.143 5.143 2.857 11.429 0 11.429-6.571-0-0.159-0.016-0.318-0.046-0.474 0.583-0.575 0.995-1.301 1.189-2.097z"></path>
</symbol>
<symbol id="icon-instlight" viewBox="0 0 32 32">
<path fill="none" stroke="#111" style="stroke: var(--color1, #111)" stroke-linejoin="miter" stroke-linecap="butt" stroke-miterlimit="4" stroke-width="0.5714" d="M6.857 0.286h18.286c3.629 0 6.571 2.942 6.571 6.571v18.286c0 3.629-2.942 6.571-6.571 6.571h-18.286c-3.629 0-6.571-2.942-6.571-6.571v-18.286c0-3.629 2.942-6.571 6.571-6.571z"></path>
<path d="M19.991 11.115c-0.177 0-0.35 0.053-0.498 0.151s-0.262 0.238-0.33 0.402-0.086 0.344-0.051 0.518c0.035 0.174 0.12 0.333 0.245 0.459s0.285 0.211 0.459 0.245c0.174 0.035 0.354 0.017 0.518-0.051s0.304-0.183 0.402-0.33c0.098-0.147 0.151-0.321 0.151-0.498 0-0.238-0.094-0.466-0.262-0.634s-0.396-0.262-0.634-0.262zM23.426 12.922c-0.015-0.62-0.131-1.232-0.343-1.814-0.19-0.498-0.485-0.949-0.866-1.322-0.37-0.383-0.822-0.676-1.322-0.859-0.58-0.219-1.194-0.338-1.814-0.351-0.791-0.045-1.045-0.045-3.076-0.045s-2.285 0-3.076 0.045c-0.62 0.013-1.234 0.132-1.814 0.351-0.499 0.184-0.951 0.478-1.322 0.859-0.383 0.37-0.676 0.822-0.859 1.322-0.219 0.58-0.338 1.194-0.351 1.814-0.045 0.791-0.045 1.045-0.045 3.076s0 2.285 0.045 3.076c0.013 0.62 0.132 1.234 0.351 1.814 0.182 0.5 0.476 0.952 0.859 1.322 0.371 0.381 0.823 0.674 1.322 0.859 0.58 0.219 1.194 0.338 1.814 0.351 0.791 0.045 1.045 0.045 3.076 0.045s2.285 0 3.076-0.045c0.62-0.013 1.234-0.132 1.814-0.351 0.5-0.182 0.952-0.476 1.322-0.859 0.382-0.371 0.678-0.823 0.866-1.322 0.213-0.582 0.329-1.195 0.343-1.814 0-0.791 0.045-1.045 0.045-3.076s0-2.285-0.045-3.076zM22.082 18.985c-0.005 0.474-0.091 0.944-0.254 1.389-0.119 0.325-0.311 0.619-0.56 0.859-0.242 0.247-0.535 0.438-0.859 0.56-0.445 0.163-0.915 0.248-1.389 0.254-0.747 0.037-1.023 0.045-2.987 0.045s-2.24 0-2.987-0.045c-0.492 0.009-0.982-0.067-1.448-0.224-0.309-0.128-0.589-0.319-0.821-0.56-0.248-0.24-0.437-0.534-0.553-0.859-0.182-0.452-0.283-0.932-0.299-1.419 0-0.747-0.045-1.023-0.045-2.987s0-2.24 0.045-2.987c0.003-0.485 0.092-0.965 0.261-1.419 0.131-0.315 0.333-0.596 0.59-0.821 0.227-0.257 0.507-0.461 0.821-0.597 0.455-0.164 0.935-0.25 1.419-0.254 0.747 0 1.023-0.045 2.987-0.045s2.24 0 2.987 0.045c0.474 0.005 0.944 0.091 1.389 0.254 0.339 0.126 0.644 0.331 0.889 0.597 0.245 0.229 0.436 0.51 0.56 0.821 0.166 0.455 0.252 0.935 0.254 1.419 0.037 0.747 0.045 1.023 0.045 2.987s-0.008 2.24-0.045 2.987zM16.004 12.168c-0.757 0.001-1.497 0.227-2.126 0.649s-1.119 1.021-1.408 1.721c-0.289 0.7-0.364 1.47-0.215 2.212s0.514 1.424 1.050 1.959c0.536 0.535 1.219 0.899 1.961 1.046s1.513 0.071 2.212-0.219c0.7-0.29 1.297-0.781 1.718-1.411s0.645-1.37 0.645-2.127c0.001-0.504-0.098-1.003-0.29-1.469s-0.475-0.889-0.832-1.245-0.78-0.638-1.246-0.83c-0.466-0.192-0.965-0.289-1.469-0.287zM16.004 18.484c-0.492 0-0.972-0.146-1.381-0.419s-0.728-0.662-0.916-1.116c-0.188-0.454-0.237-0.954-0.142-1.437s0.333-0.925 0.68-1.273 0.791-0.585 1.273-0.68c0.482-0.096 0.982-0.047 1.437 0.142s0.843 0.507 1.116 0.916c0.273 0.409 0.419 0.89 0.419 1.381 0 0.327-0.064 0.65-0.189 0.952s-0.308 0.576-0.539 0.807c-0.231 0.231-0.505 0.414-0.807 0.539s-0.625 0.189-0.952 0.189z"></path>
</symbol>
</defs>
</svg>
