<svg xmlns="http://www.w3.org/2000/svg" width="1408" height="173" fill="none"><rect width="213.853" height="49.852" x="796.421" y="105.437" fill="#0D171D" rx="24.926"/><path fill="#FAFAFA" d="M820.395 137.965v-14.7h6.048c1.302 0 2.415.21 3.339.63.938.42 1.659 1.022 2.163 1.806.504.784.756 1.715.756 2.793s-.252 2.009-.756 2.793c-.504.77-1.225 1.365-2.163 1.785-.924.406-2.037.609-3.339.609h-4.536l1.218-1.239v5.523h-2.73Zm9.618 0-3.717-5.334h2.919l3.738 5.334h-2.94Zm-6.888-5.229-1.218-1.302h4.41c1.204 0 2.107-.259 2.709-.777.616-.518.924-1.239.924-2.163 0-.938-.308-1.659-.924-2.163-.602-.504-1.505-.756-2.709-.756h-4.41l1.218-1.344v8.505Zm12.819 5.229v-11.214h2.625v11.214h-2.625Zm1.323-13.062c-.49 0-.896-.154-1.218-.462a1.517 1.517 0 0 1-.462-1.113c0-.448.154-.819.462-1.113.322-.308.728-.462 1.218-.462s.889.147 1.197.441c.322.28.483.637.483 1.071 0 .462-.154.854-.462 1.176-.308.308-.714.462-1.218.462Zm10.332 13.209c-1.176 0-2.226-.245-3.15-.735a5.607 5.607 0 0 1-2.142-2.058c-.518-.868-.777-1.855-.777-2.961 0-1.12.259-2.107.777-2.961a5.455 5.455 0 0 1 2.142-2.037c.924-.49 1.974-.735 3.15-.735 1.092 0 2.051.224 2.877.672a4.324 4.324 0 0 1 1.911 1.932l-2.016 1.176c-.336-.532-.749-.924-1.239-1.176a3.27 3.27 0 0 0-1.554-.378c-.644 0-1.225.14-1.743.42-.518.28-.924.686-1.218 1.218-.294.518-.441 1.141-.441 1.869s.147 1.358.441 1.89c.294.518.7.917 1.218 1.197s1.099.42 1.743.42a3.27 3.27 0 0 0 1.554-.378c.49-.252.903-.644 1.239-1.176l2.016 1.176a4.592 4.592 0 0 1-1.911 1.953c-.826.448-1.785.672-2.877.672Zm9.537-2.646.063-3.297 5.859-5.418h3.15l-4.977 4.998-1.386 1.155-2.709 2.562Zm-2.142 2.499v-15.582h2.625v15.582h-2.625Zm8.463 0-4.095-5.061 1.659-2.1 5.628 7.161h-3.192Zm18.48 0v-2.268l-.147-.483v-3.969c0-.77-.231-1.365-.693-1.785-.462-.434-1.162-.651-2.1-.651a6.13 6.13 0 0 0-1.869.294c-.602.196-1.113.469-1.533.819l-1.029-1.911c.602-.462 1.316-.805 2.142-1.029a9.506 9.506 0 0 1 2.604-.357c1.624 0 2.877.392 3.759 1.176.896.77 1.344 1.967 1.344 3.591v6.573h-2.478Zm-3.528.147c-.84 0-1.575-.14-2.205-.42-.63-.294-1.12-.693-1.47-1.197a3.134 3.134 0 0 1-.504-1.743c0-.63.147-1.197.441-1.701.308-.504.805-.903 1.491-1.197.686-.294 1.596-.441 2.73-.441h3.255v1.743h-3.066c-.896 0-1.498.147-1.806.441a1.36 1.36 0 0 0-.462 1.05c0 .476.189.854.567 1.134.378.28.903.42 1.575.42.644 0 1.218-.147 1.722-.441a2.488 2.488 0 0 0 1.113-1.302l.441 1.575c-.252.658-.707 1.169-1.365 1.533-.644.364-1.463.546-2.457.546Zm16.178-11.487c.896 0 1.694.175 2.394.525.714.35 1.274.889 1.68 1.617.406.714.609 1.638.609 2.772v6.426h-2.625v-6.09c0-.994-.238-1.736-.714-2.226-.462-.49-1.113-.735-1.953-.735-.616 0-1.162.126-1.638.378s-.847.63-1.113 1.134c-.252.49-.378 1.113-.378 1.869v5.67h-2.625v-11.214h2.499v3.024l-.441-.924a3.925 3.925 0 0 1 1.701-1.638c.756-.392 1.624-.588 2.604-.588Zm13.219 11.487c-1.078 0-2.051-.238-2.919-.714a5.36 5.36 0 0 1-2.016-2.016c-.49-.854-.735-1.862-.735-3.024s.245-2.17.735-3.024a5.209 5.209 0 0 1 2.016-1.995c.868-.476 1.841-.714 2.919-.714.938 0 1.778.21 2.52.63.742.406 1.33 1.029 1.764 1.869.434.84.651 1.918.651 3.234 0 1.302-.21 2.38-.63 3.234-.42.84-1.001 1.47-1.743 1.89-.742.42-1.596.63-2.562.63Zm.315-2.247c.63 0 1.19-.14 1.68-.42.504-.28.903-.686 1.197-1.218.308-.532.462-1.155.462-1.869 0-.728-.154-1.351-.462-1.869a3.039 3.039 0 0 0-1.197-1.218c-.49-.28-1.05-.42-1.68-.42-.63 0-1.197.14-1.701.42-.49.28-.889.686-1.197 1.218-.294.518-.441 1.141-.441 1.869 0 .714.147 1.337.441 1.869.308.532.707.938 1.197 1.218.504.28 1.071.42 1.701.42Zm3.402 2.1v-2.646l.105-2.982-.21-2.982v-6.972h2.604v15.582h-2.499Zm12.89 0v-14.7h2.247l6.426 10.731h-1.176l6.321-10.731h2.247l.021 14.7h-2.583l-.021-10.647h.546l-5.376 8.967h-1.218l-5.46-8.967h.63v10.647h-2.604Zm25.285.147c-1.148 0-2.17-.245-3.066-.735a5.65 5.65 0 0 1-2.121-2.058c-.518-.868-.777-1.855-.777-2.961 0-1.12.259-2.107.777-2.961a5.494 5.494 0 0 1 2.121-2.037c.896-.49 1.918-.735 3.066-.735 1.162 0 2.191.245 3.087.735a5.353 5.353 0 0 1 2.121 2.016c.518.854.777 1.848.777 2.982 0 1.106-.259 2.093-.777 2.961a5.454 5.454 0 0 1-2.121 2.058c-.896.49-1.925.735-3.087.735Zm0-2.247c.644 0 1.218-.14 1.722-.42.504-.28.896-.686 1.176-1.218.294-.532.441-1.155.441-1.869 0-.728-.147-1.351-.441-1.869a2.905 2.905 0 0 0-1.176-1.218 3.443 3.443 0 0 0-1.701-.42c-.644 0-1.218.14-1.722.42-.49.28-.882.686-1.176 1.218-.294.518-.441 1.141-.441 1.869 0 .714.147 1.337.441 1.869.294.532.686.938 1.176 1.218.504.28 1.071.42 1.701.42Zm8.935 2.1v-11.214h2.499v3.087l-.294-.903a3.559 3.559 0 0 1 1.575-1.722c.728-.392 1.631-.588 2.709-.588v2.499a1.302 1.302 0 0 0-.315-.042 2.076 2.076 0 0 0-.294-.021c-.994 0-1.785.294-2.373.882-.588.574-.882 1.435-.882 2.583v5.439h-2.625Zm13.787.147c-1.232 0-2.184-.315-2.856-.945-.672-.644-1.008-1.589-1.008-2.835v-10.059h2.625v9.996c0 .532.133.945.399 1.239.28.294.665.441 1.155.441.588 0 1.078-.154 1.47-.462l.735 1.869a3.084 3.084 0 0 1-1.134.567c-.448.126-.91.189-1.386.189Zm-5.712-9.177v-2.1h7.476v2.1h-7.476Zm11.55 13.251a5.153 5.153 0 0 1-1.638-.273c-.546-.182-1.001-.434-1.365-.756l1.05-1.932c.266.238.567.427.903.567.336.14.679.21 1.029.21.476 0 .861-.119 1.155-.357.294-.238.567-.637.819-1.197l.651-1.47.21-.315 4.242-9.912h2.52l-5.25 12.117c-.35.84-.742 1.505-1.176 1.995-.42.49-.896.833-1.428 1.029a4.832 4.832 0 0 1-1.722.294Zm2.31-3.822-5.061-11.613h2.73l4.116 9.681-1.785 1.932Z"/><rect width="207.857" height="49.852" x="254.794" y="105.437" fill="#A1D737" rx="24.926"/><path fill="#111" d="M283.057 138.175a6.2 6.2 0 0 1-2.604-.546 4.936 4.936 0 0 1-1.932-1.575l1.554-1.869c.406.56.847.98 1.323 1.26.49.28 1.022.42 1.596.42 1.526 0 2.289-.903 2.289-2.709v-7.602h-5.229v-2.289h7.959v9.744c0 1.736-.427 3.031-1.281 3.885-.84.854-2.065 1.281-3.675 1.281Zm13.72-.063c-.952 0-1.792-.175-2.52-.525a3.92 3.92 0 0 1-1.701-1.638c-.406-.742-.609-1.673-.609-2.793v-6.405h2.625v6.048c0 1.008.224 1.764.672 2.268.462.49 1.113.735 1.953.735.616 0 1.148-.126 1.596-.378a2.55 2.55 0 0 0 1.071-1.134c.266-.504.399-1.127.399-1.869v-5.67h2.625v11.214h-2.499v-3.024l.441.924a3.921 3.921 0 0 1-1.659 1.68 5.117 5.117 0 0 1-2.394.567Zm13.453 0c-.938 0-1.841-.119-2.709-.357-.854-.252-1.533-.553-2.037-.903l1.008-1.995c.504.322 1.106.588 1.806.798.7.21 1.4.315 2.1.315.826 0 1.421-.112 1.785-.336.378-.224.567-.525.567-.903 0-.308-.126-.539-.378-.693-.252-.168-.581-.294-.987-.378a21.136 21.136 0 0 0-1.365-.231c-.49-.07-.987-.161-1.491-.273a5.716 5.716 0 0 1-1.344-.525 2.9 2.9 0 0 1-.987-.945c-.252-.392-.378-.91-.378-1.554 0-.714.203-1.33.609-1.848.406-.532.973-.938 1.701-1.218.742-.294 1.617-.441 2.625-.441.756 0 1.519.084 2.289.252.77.168 1.407.406 1.911.714l-1.008 1.995a5.097 5.097 0 0 0-1.617-.651 6.904 6.904 0 0 0-1.596-.189c-.798 0-1.393.119-1.785.357-.378.238-.567.539-.567.903 0 .336.126.588.378.756.252.168.581.301.987.399.406.098.854.182 1.344.252.504.056 1.001.147 1.491.273.49.126.938.301 1.344.525.42.21.756.511 1.008.903s.378.903.378 1.533c0 .7-.21 1.309-.63 1.827-.406.518-.987.924-1.743 1.218-.756.28-1.659.42-2.709.42Zm12.003 0c-1.232 0-2.184-.315-2.856-.945-.672-.644-1.008-1.589-1.008-2.835v-10.059h2.625v9.996c0 .532.133.945.399 1.239.28.294.665.441 1.155.441.588 0 1.078-.154 1.47-.462l.735 1.869a3.084 3.084 0 0 1-1.134.567c-.448.126-.91.189-1.386.189Zm-5.712-9.177v-2.1h7.476v2.1h-7.476Zm10.832 9.03v-11.214h2.625v11.214h-2.625Zm1.323-13.062c-.49 0-.896-.154-1.218-.462a1.517 1.517 0 0 1-.462-1.113c0-.448.154-.819.462-1.113.322-.308.728-.462 1.218-.462s.889.147 1.197.441c.322.28.483.637.483 1.071 0 .462-.154.854-.462 1.176-.308.308-.714.462-1.218.462Zm11.55 1.722c.896 0 1.694.175 2.394.525.714.35 1.274.889 1.68 1.617.406.714.609 1.638.609 2.772v6.426h-2.625v-6.09c0-.994-.238-1.736-.714-2.226-.462-.49-1.113-.735-1.953-.735-.616 0-1.162.126-1.638.378s-.847.63-1.113 1.134c-.252.49-.378 1.113-.378 1.869v5.67h-2.625v-11.214h2.499v3.024l-.441-.924a3.925 3.925 0 0 1 1.701-1.638c.756-.392 1.624-.588 2.604-.588Zm14.949 11.34v-14.7h6.048c1.302 0 2.415.21 3.339.63.938.42 1.659 1.022 2.163 1.806.504.784.756 1.715.756 2.793s-.252 2.009-.756 2.793c-.504.77-1.225 1.365-2.163 1.785-.924.406-2.037.609-3.339.609h-4.536l1.218-1.239v5.523h-2.73Zm9.618 0-3.717-5.334h2.919l3.738 5.334h-2.94Zm-6.888-5.229-1.218-1.302h4.41c1.204 0 2.107-.259 2.709-.777.616-.518.924-1.239.924-2.163 0-.938-.308-1.659-.924-2.163-.602-.504-1.505-.756-2.709-.756h-4.41l1.218-1.344v8.505Zm17.858 5.376c-1.148 0-2.17-.245-3.066-.735a5.65 5.65 0 0 1-2.121-2.058c-.518-.868-.777-1.855-.777-2.961 0-1.12.259-2.107.777-2.961a5.494 5.494 0 0 1 2.121-2.037c.896-.49 1.918-.735 3.066-.735 1.162 0 2.191.245 3.087.735a5.353 5.353 0 0 1 2.121 2.016c.518.854.777 1.848.777 2.982 0 1.106-.259 2.093-.777 2.961a5.454 5.454 0 0 1-2.121 2.058c-.896.49-1.925.735-3.087.735Zm0-2.247c.644 0 1.218-.14 1.722-.42.504-.28.896-.686 1.176-1.218.294-.532.441-1.155.441-1.869 0-.728-.147-1.351-.441-1.869a2.905 2.905 0 0 0-1.176-1.218 3.443 3.443 0 0 0-1.701-.42c-.644 0-1.218.14-1.722.42-.49.28-.882.686-1.176 1.218-.294.518-.441 1.141-.441 1.869 0 .714.147 1.337.441 1.869.294.532.686.938 1.176 1.218.504.28 1.071.42 1.701.42Zm8.935 2.1v-11.214h2.625v11.214h-2.625Zm1.323-13.062c-.49 0-.896-.154-1.218-.462a1.517 1.517 0 0 1-.462-1.113c0-.448.154-.819.462-1.113.322-.308.728-.462 1.218-.462s.889.147 1.197.441c.322.28.483.637.483 1.071 0 .462-.154.854-.462 1.176-.308.308-.714.462-1.218.462Zm5.187 13.062v-15.582h2.625v15.582h-2.625Zm13.42 0v-2.268l-.147-.483v-3.969c0-.77-.231-1.365-.693-1.785-.462-.434-1.162-.651-2.1-.651a6.13 6.13 0 0 0-1.869.294c-.602.196-1.113.469-1.533.819l-1.029-1.911c.602-.462 1.316-.805 2.142-1.029a9.506 9.506 0 0 1 2.604-.357c1.624 0 2.877.392 3.759 1.176.896.77 1.344 1.967 1.344 3.591v6.573h-2.478Zm-3.528.147c-.84 0-1.575-.14-2.205-.42-.63-.294-1.12-.693-1.47-1.197a3.134 3.134 0 0 1-.504-1.743c0-.63.147-1.197.441-1.701.308-.504.805-.903 1.491-1.197.686-.294 1.596-.441 2.73-.441h3.255v1.743h-3.066c-.896 0-1.498.147-1.806.441a1.36 1.36 0 0 0-.462 1.05c0 .476.189.854.567 1.134.378.28.903.42 1.575.42.644 0 1.218-.147 1.722-.441a2.488 2.488 0 0 0 1.113-1.302l.441 1.575c-.252.658-.707 1.169-1.365 1.533-.644.364-1.463.546-2.457.546Zm16.178-11.487c.896 0 1.694.175 2.394.525.714.35 1.274.889 1.68 1.617.406.714.609 1.638.609 2.772v6.426h-2.625v-6.09c0-.994-.238-1.736-.714-2.226-.462-.49-1.113-.735-1.953-.735-.616 0-1.162.126-1.638.378s-.847.63-1.113 1.134c-.252.49-.378 1.113-.378 1.869v5.67h-2.625v-11.214h2.499v3.024l-.441-.924a3.925 3.925 0 0 1 1.701-1.638c.756-.392 1.624-.588 2.604-.588Zm13.219 11.487c-1.078 0-2.051-.238-2.919-.714a5.36 5.36 0 0 1-2.016-2.016c-.49-.854-.735-1.862-.735-3.024s.245-2.17.735-3.024a5.209 5.209 0 0 1 2.016-1.995c.868-.476 1.841-.714 2.919-.714.938 0 1.778.21 2.52.63.742.406 1.33 1.029 1.764 1.869.434.84.651 1.918.651 3.234 0 1.302-.21 2.38-.63 3.234-.42.84-1.001 1.47-1.743 1.89-.742.42-1.596.63-2.562.63Zm.315-2.247c.63 0 1.19-.14 1.68-.42.504-.28.903-.686 1.197-1.218.308-.532.462-1.155.462-1.869 0-.728-.154-1.351-.462-1.869a3.039 3.039 0 0 0-1.197-1.218c-.49-.28-1.05-.42-1.68-.42-.63 0-1.197.14-1.701.42-.49.28-.889.686-1.197 1.218-.294.518-.441 1.141-.441 1.869 0 .714.147 1.337.441 1.869.308.532.707.938 1.197 1.218.504.28 1.071.42 1.701.42Zm3.402 2.1v-2.646l.105-2.982-.21-2.982v-6.972h2.604v15.582h-2.499Z"/><rect width="161.79" height="49.891" fill="#DAF836" rx="24.946" transform="rotate(148.919 664.92 230.852) skewX(.116)"/><path fill="#111" d="M1311.905 72.253c1.008-.608 2.034-.94 3.079-.998a5.624 5.624 0 0 1 2.9.655c.894.475 1.627 1.185 2.2 2.131.58.958.87 1.936.868 2.934a5.44 5.44 0 0 1-.78 2.849c-.537.896-1.31 1.647-2.317 2.254-.935.564-1.872.868-2.812.91a4.337 4.337 0 0 1-2.637-.665l1.117-2.047c.564.282 1.12.404 1.67.366a3.275 3.275 0 0 0 1.527-.478 3.6 3.6 0 0 0 1.276-1.26 2.992 2.992 0 0 0 .412-1.67c-.017-.595-.214-1.204-.59-1.827-.378-.622-.83-1.085-1.357-1.389a3.045 3.045 0 0 0-1.663-.395 3.61 3.61 0 0 0-1.71.54c-.48.29-.859.665-1.136 1.126-.289.469-.44 1.017-.452 1.646l-2.336.035a4.578 4.578 0 0 1 .625-2.657c.476-.81 1.181-1.497 2.116-2.06Zm-5.832 16.928c-.768.462-1.542.725-2.322.787-.793.069-1.552-.103-2.277-.516-.717-.401-1.37-1.087-1.957-2.057l-3.329-5.497 2.248-1.355 3.155 5.21c.515.85 1.103 1.361 1.764 1.535.65.18 1.334.054 2.054-.38.527-.318.93-.707 1.207-1.169.277-.46.399-.976.366-1.544-.038-.55-.253-1.147-.645-1.794l-2.937-4.85 2.248-1.355 8.072 13.328-2.249 1.356-3.828-6.323.964.497a3.913 3.913 0 0 1-.609 2.28c-.444.725-1.086 1.34-1.925 1.847Zm-19.03-1.77 1.174 1.94.376.337 2.056 3.396c.399.658.905 1.048 1.518 1.169.62.132 1.332-.043 2.136-.528a6.125 6.125 0 0 0 1.448-1.216c.414-.478.71-.976.889-1.492l1.871 1.104c-.276.705-.71 1.367-1.301 1.986a9.498 9.498 0 0 1-2.046 1.65c-1.39.838-2.667 1.15-3.828.934-1.166-.196-2.17-.989-3.011-2.378l-3.405-5.623 2.122-1.279Zm2.945-1.947c.72-.434 1.421-.693 2.106-.779.692-.074 1.318.015 1.879.265.556.27 1 .68 1.334 1.23.326.54.494 1.1.504 1.684-.003.59-.222 1.188-.657 1.793-.436.606-1.139 1.201-2.11 1.787l-2.788 1.68-.903-1.49 2.626-1.584c.768-.462 1.207-.899 1.319-1.31.118-.398.069-.777-.149-1.136a1.341 1.341 0 0 0-1.073-.677c-.468-.045-.99.107-1.566.454-.552.332-.967.754-1.246 1.266a2.481 2.481 0 0 0-.28 1.688l-1.193-1.12c-.125-.692 0-1.364.375-2.015.363-.644.97-1.223 1.822-1.736Zm-8.33 5.193 5.809 9.592-2.14 1.29-1.6-2.64.72.62a3.548 3.548 0 0 1-.457 2.286c-.42.711-1.092 1.345-2.016 1.902l-1.294-2.138c.11-.034.208-.076.292-.127.09-.038.178-.083.262-.133.852-.513 1.377-1.173 1.576-1.98.206-.794.012-1.683-.583-2.665l-2.817-4.652 2.248-1.355Zm-13.074 7.88 1.175 1.94.376.338 2.056 3.395c.399.658.905 1.048 1.518 1.169.62.132 1.333-.043 2.136-.528a6.125 6.125 0 0 0 1.448-1.216c.414-.478.71-.976.889-1.492l1.871 1.104c-.276.706-.71 1.368-1.301 1.986a9.498 9.498 0 0 1-2.046 1.65c-1.39.838-2.667 1.15-3.828.934-1.166-.196-2.17-.989-3.011-2.378l-3.405-5.623 2.122-1.279Zm2.946-1.947c.72-.433 1.421-.693 2.106-.779.692-.074 1.318.015 1.879.265.556.27 1 .68 1.334 1.23.327.54.494 1.1.504 1.684-.003.59-.222 1.188-.657 1.793-.436.606-1.139 1.201-2.11 1.787l-2.788 1.68-.902-1.49 2.625-1.584c.768-.462 1.207-.899 1.319-1.31.118-.398.069-.777-.149-1.136a1.341 1.341 0 0 0-1.073-.677c-.468-.044-.99.107-1.566.454-.552.332-.967.754-1.246 1.266a2.481 2.481 0 0 0-.28 1.688l-1.193-1.12c-.125-.692 0-1.364.375-2.015.363-.644.97-1.223 1.822-1.736Zm-12.83 7.734c1.007-.607 2.033-.94 3.079-.998a5.624 5.624 0 0 1 2.9.655c.893.475 1.626 1.185 2.2 2.132.58.958.869 1.936.867 2.933a5.44 5.44 0 0 1-.779 2.849c-.537.896-1.31 1.648-2.317 2.255-.935.563-1.873.867-2.812.91a4.337 4.337 0 0 1-2.637-.666l1.117-2.047c.563.282 1.12.404 1.67.367a3.275 3.275 0 0 0 1.527-.48 3.6 3.6 0 0 0 1.275-1.258 2.992 2.992 0 0 0 .412-1.671c-.016-.595-.213-1.204-.59-1.826-.377-.623-.83-1.086-1.357-1.39a3.045 3.045 0 0 0-1.663-.395 3.61 3.61 0 0 0-1.71.54c-.48.29-.858.665-1.135 1.127-.29.468-.44 1.017-.452 1.645l-2.336.035a4.578 4.578 0 0 1 .625-2.657c.476-.81 1.18-1.497 2.116-2.06Zm-10.159 6.123c1.055-.636 2.034-.858 2.936-.666.909.204 1.686.839 2.331 1.905l5.21 8.604-2.247 1.355-5.178-8.55c-.276-.455-.603-.74-.984-.854-.392-.107-.798-.034-1.217.22-.504.303-.844.687-1.02 1.153l-1.597-1.22c.133-.374.359-.73.677-1.07a5.09 5.09 0 0 1 1.09-.877Zm9.646 4.901 1.087 1.797-6.402 3.86-1.088-1.797 6.403-3.86Zm-18.228.273c1.067-.644 2.129-.998 3.186-1.063a5.584 5.584 0 0 1 2.918.644c.882.482 1.609 1.196 2.182 2.143.58.958.881 1.928.904 2.912a5.409 5.409 0 0 1-.708 2.805c-.501.874-1.231 1.6-2.19 2.179-.936.563-1.893.862-2.87.896a5.184 5.184 0 0 1-2.771-.684c-.87-.49-1.609-1.237-2.218-2.243a3.834 3.834 0 0 1-.178-.334 3.615 3.615 0 0 1-.188-.352l8.003-4.825.903 1.491-6.817 4.109.599-.998c.321.558.73.974 1.223 1.249a3.06 3.06 0 0 0 1.587.392c.553-.007 1.099-.172 1.639-.498.551-.332.964-.745 1.239-1.237a3.046 3.046 0 0 0 .362-1.591c-.026-.557-.213-1.123-.561-1.697l-.218-.36c-.348-.574-.788-1.004-1.32-1.288a3.09 3.09 0 0 0-1.735-.352c-.625.05-1.249.263-1.872.638-.54.326-.975.702-1.305 1.13a3.61 3.61 0 0 0-.672 1.484l-2.043-.657a5.008 5.008 0 0 1 .93-2.154c.488-.654 1.151-1.233 1.99-1.74Zm-6.975 4.375 5.809 9.593-2.14 1.29-1.6-2.64.72.62a3.548 3.548 0 0 1-.457 2.286c-.42.711-1.092 1.345-2.015 1.901l-1.295-2.137c.11-.034.208-.076.292-.127.091-.039.179-.083.263-.134.85-.513 1.376-1.173 1.575-1.98.206-.794.012-1.682-.583-2.664l-2.817-4.653 2.248-1.355Zm-10.973 6.443a10.206 10.206 0 0 1 2.505-1.093c.862-.225 1.6-.318 2.212-.279l.17 2.227c-.598-.015-1.252.068-1.96.25a7.282 7.282 0 0 0-1.962.814c-.707.427-1.159.83-1.354 1.21-.208.386-.214.741-.018 1.064.16.264.387.396.683.398.302.014.65-.049 1.04-.186.392-.138.821-.307 1.29-.507a19.77 19.77 0 0 1 1.418-.537c.485-.145.959-.226 1.423-.244.47-.006.916.093 1.335.299.418.205.795.583 1.128 1.134.37.61.515 1.242.436 1.895-.072.664-.348 1.304-.826 1.92-.483.634-1.156 1.212-2.02 1.732a10.72 10.72 0 0 1-2.09.966c-.747.254-1.416.38-2.007.376l-.17-2.227c.622.001 1.196-.092 1.722-.278a6.909 6.909 0 0 0 1.465-.662c.683-.412 1.131-.82 1.343-1.227.2-.399.207-.754.018-1.065-.174-.287-.412-.438-.715-.451-.303-.014-.654.042-1.052.168-.399.126-.826.285-1.282.478-.46.212-.933.391-1.418.536-.485.145-.96.227-1.423.245a2.519 2.519 0 0 1-1.331-.252c-.419-.205-.791-.577-1.118-1.116-.362-.599-.498-1.228-.407-1.888.08-.653.367-1.3.862-1.942.503-.63 1.204-1.216 2.103-1.758Z"/><rect width="218.849" height="49.852" y="105.437" fill="#0D171D" rx="24.926"/><path fill="#FAFAFA" d="M29.943 138.112c-1.232 0-2.184-.315-2.856-.945-.672-.644-1.008-1.589-1.008-2.835v-10.059h2.625v9.996c0 .532.133.945.399 1.239.28.294.665.441 1.155.441.588 0 1.078-.154 1.47-.462l.735 1.869a3.084 3.084 0 0 1-1.134.567c-.448.126-.91.189-1.386.189Zm-5.712-9.177v-2.1h7.476v2.1h-7.476Zm17.194-2.31c.896 0 1.694.175 2.394.525.714.35 1.274.889 1.68 1.617.406.714.61 1.638.61 2.772v6.426h-2.626v-6.09c0-.994-.238-1.736-.714-2.226-.462-.49-1.113-.735-1.953-.735-.616 0-1.162.126-1.638.378s-.847.63-1.113 1.134c-.252.49-.378 1.113-.378 1.869v5.67h-2.625v-15.582h2.625v7.392l-.567-.924a3.925 3.925 0 0 1 1.701-1.638c.756-.392 1.624-.588 2.604-.588Zm13.745 11.487c-1.246 0-2.338-.245-3.276-.735a5.568 5.568 0 0 1-2.163-2.058c-.504-.868-.756-1.855-.756-2.961 0-1.12.245-2.107.735-2.961a5.425 5.425 0 0 1 2.058-2.037c.882-.49 1.883-.735 3.003-.735 1.092 0 2.065.238 2.919.714a5.169 5.169 0 0 1 2.016 2.016c.49.868.735 1.89.735 3.066 0 .112-.007.238-.021.378 0 .14-.007.273-.021.399h-9.345v-1.743h7.959l-1.03.546c.015-.644-.118-1.211-.398-1.701a3.05 3.05 0 0 0-1.155-1.155c-.476-.28-1.03-.42-1.66-.42-.643 0-1.21.14-1.7.42-.476.28-.854.672-1.134 1.176-.266.49-.4 1.071-.4 1.743v.42c0 .672.155 1.267.463 1.785a3.08 3.08 0 0 0 1.302 1.197c.56.28 1.204.42 1.932.42.63 0 1.197-.098 1.7-.294a3.62 3.62 0 0 0 1.345-.924l1.407 1.617a5.022 5.022 0 0 1-1.911 1.365c-.756.308-1.624.462-2.604.462Zm21.385-.147v-2.268l-.147-.483v-3.969c0-.77-.23-1.365-.693-1.785-.462-.434-1.162-.651-2.1-.651a6.13 6.13 0 0 0-1.869.294c-.602.196-1.113.469-1.533.819l-1.029-1.911c.602-.462 1.316-.805 2.142-1.029a9.506 9.506 0 0 1 2.604-.357c1.624 0 2.877.392 3.76 1.176.895.77 1.343 1.967 1.343 3.591v6.573h-2.478Zm-3.528.147c-.84 0-1.575-.14-2.205-.42-.63-.294-1.12-.693-1.47-1.197a3.134 3.134 0 0 1-.504-1.743c0-.63.147-1.197.441-1.701.308-.504.805-.903 1.491-1.197.686-.294 1.596-.441 2.73-.441h3.255v1.743H73.7c-.896 0-1.498.147-1.806.441a1.36 1.36 0 0 0-.462 1.05c0 .476.19.854.567 1.134.378.28.903.42 1.575.42.644 0 1.218-.147 1.722-.441a2.488 2.488 0 0 0 1.113-1.302l.441 1.575c-.252.658-.707 1.169-1.365 1.533-.644.364-1.463.546-2.457.546Zm14.581 0c-1.078 0-2.05-.238-2.919-.714a5.36 5.36 0 0 1-2.016-2.016c-.49-.854-.735-1.862-.735-3.024s.245-2.17.735-3.024a5.209 5.209 0 0 1 2.016-1.995c.868-.476 1.841-.714 2.92-.714.937 0 1.777.21 2.52.63.741.406 1.33 1.029 1.763 1.869.434.84.651 1.918.651 3.234 0 1.302-.21 2.38-.63 3.234-.42.84-1 1.47-1.743 1.89-.742.42-1.596.63-2.562.63Zm.315-2.247c.63 0 1.19-.14 1.68-.42.504-.28.903-.686 1.197-1.218.308-.532.462-1.155.462-1.869 0-.728-.154-1.351-.462-1.869a3.039 3.039 0 0 0-1.197-1.218c-.49-.28-1.05-.42-1.68-.42-.63 0-1.197.14-1.7.42-.49.28-.89.686-1.198 1.218-.294.518-.44 1.141-.44 1.869 0 .714.146 1.337.44 1.869.308.532.707.938 1.197 1.218.504.28 1.071.42 1.701.42Zm3.402 2.1v-2.646l.105-2.982-.21-2.982v-6.972h2.604v15.582h-2.499Zm9.376 0-4.809-11.214h2.73l4.137 9.891h-1.344l4.284-9.891h2.52l-4.809 11.214h-2.709Zm14.562.147c-1.246 0-2.338-.245-3.276-.735a5.568 5.568 0 0 1-2.163-2.058c-.504-.868-.756-1.855-.756-2.961 0-1.12.245-2.107.735-2.961a5.425 5.425 0 0 1 2.058-2.037c.882-.49 1.883-.735 3.003-.735 1.092 0 2.065.238 2.919.714a5.169 5.169 0 0 1 2.016 2.016c.49.868.735 1.89.735 3.066 0 .112-.007.238-.021.378 0 .14-.007.273-.021.399h-9.345v-1.743h7.959l-1.029.546c.014-.644-.119-1.211-.399-1.701a3.05 3.05 0 0 0-1.155-1.155c-.476-.28-1.029-.42-1.659-.42-.644 0-1.211.14-1.701.42-.476.28-.854.672-1.134 1.176-.266.49-.399 1.071-.399 1.743v.42c0 .672.154 1.267.462 1.785a3.08 3.08 0 0 0 1.302 1.197c.56.28 1.204.42 1.932.42.63 0 1.197-.098 1.701-.294a3.62 3.62 0 0 0 1.344-.924l1.407 1.617a5.022 5.022 0 0 1-1.911 1.365c-.756.308-1.624.462-2.604.462Zm14.596-11.487c.896 0 1.694.175 2.394.525.714.35 1.274.889 1.68 1.617.406.714.609 1.638.609 2.772v6.426h-2.625v-6.09c0-.994-.238-1.736-.714-2.226-.462-.49-1.113-.735-1.953-.735-.616 0-1.162.126-1.638.378s-.847.63-1.113 1.134c-.252.49-.378 1.113-.378 1.869v5.67h-2.625v-11.214h2.499v3.024l-.441-.924a3.925 3.925 0 0 1 1.701-1.638c.756-.392 1.624-.588 2.604-.588Zm12.674 11.487c-1.232 0-2.184-.315-2.856-.945-.672-.644-1.008-1.589-1.008-2.835v-10.059h2.625v9.996c0 .532.133.945.399 1.239.28.294.665.441 1.155.441.588 0 1.078-.154 1.47-.462l.735 1.869a3.084 3.084 0 0 1-1.134.567c-.448.126-.91.189-1.386.189Zm-5.712-9.177v-2.1h7.476v2.1h-7.476Zm15.577 9.177c-.952 0-1.792-.175-2.52-.525a3.92 3.92 0 0 1-1.701-1.638c-.406-.742-.609-1.673-.609-2.793v-6.405h2.625v6.048c0 1.008.224 1.764.672 2.268.462.49 1.113.735 1.953.735.616 0 1.148-.126 1.596-.378a2.55 2.55 0 0 0 1.071-1.134c.266-.504.399-1.127.399-1.869v-5.67h2.625v11.214h-2.499v-3.024l.441.924a3.921 3.921 0 0 1-1.659 1.68 5.117 5.117 0 0 1-2.394.567Zm9.988-.147v-11.214h2.499v3.087l-.294-.903a3.559 3.559 0 0 1 1.575-1.722c.728-.392 1.631-.588 2.709-.588v2.499a1.302 1.302 0 0 0-.315-.042 2.076 2.076 0 0 0-.294-.021c-.994 0-1.785.294-2.373.882-.588.574-.882 1.435-.882 2.583v5.439h-2.625Zm14.324.147c-1.246 0-2.338-.245-3.276-.735a5.574 5.574 0 0 1-2.163-2.058c-.503-.868-.755-1.855-.755-2.961 0-1.12.244-2.107.735-2.961a5.425 5.425 0 0 1 2.058-2.037c.882-.49 1.882-.735 3.002-.735 1.093 0 2.065.238 2.919.714a5.165 5.165 0 0 1 2.017 2.016c.489.868.735 1.89.735 3.066 0 .112-.007.238-.022.378 0 .14-.006.273-.021.399h-9.345v-1.743h7.959l-1.028.546c.013-.644-.119-1.211-.399-1.701a3.057 3.057 0 0 0-1.155-1.155c-.476-.28-1.03-.42-1.66-.42-.644 0-1.211.14-1.7.42-.476.28-.854.672-1.134 1.176-.267.49-.4 1.071-.4 1.743v.42c0 .672.155 1.267.463 1.785.308.518.741.917 1.301 1.197.561.28 1.205.42 1.932.42.631 0 1.198-.098 1.702-.294a3.617 3.617 0 0 0 1.343-.924l1.407 1.617a5.014 5.014 0 0 1-1.911 1.365c-.755.308-1.623.462-2.604.462Zm11.698 0c-.938 0-1.841-.119-2.709-.357-.854-.252-1.533-.553-2.037-.903l1.008-1.995c.504.322 1.106.588 1.806.798.7.21 1.4.315 2.1.315.826 0 1.421-.112 1.785-.336.378-.224.567-.525.567-.903 0-.308-.126-.539-.378-.693-.252-.168-.581-.294-.987-.378a21.136 21.136 0 0 0-1.365-.231c-.49-.07-.987-.161-1.491-.273a5.716 5.716 0 0 1-1.344-.525 2.9 2.9 0 0 1-.987-.945c-.252-.392-.378-.91-.378-1.554 0-.714.203-1.33.609-1.848.406-.532.973-.938 1.701-1.218.742-.294 1.617-.441 2.625-.441.756 0 1.519.084 2.289.252.77.168 1.407.406 1.911.714l-1.008 1.995a5.097 5.097 0 0 0-1.617-.651 6.904 6.904 0 0 0-1.596-.189c-.798 0-1.393.119-1.785.357-.378.238-.567.539-.567.903 0 .336.126.588.378.756.252.168.581.301.987.399.406.098.854.182 1.344.252.504.056 1.001.147 1.491.273.49.126.938.301 1.344.525.42.21.756.511 1.008.903s.378.903.378 1.533c0 .7-.21 1.309-.63 1.827-.406.518-.987.924-1.743 1.218-.756.28-1.659.42-2.709.42Z"/><rect width="187.834" height="49.864" fill="#0D171D" rx="24.932" transform="rotate(17.005 4.576 1275.994) skewX(-.073)"/><path fill="#A1D737" d="M397.652 96.045a10.193 10.193 0 0 1-2.485-1.134c-.743-.49-1.304-.977-1.683-1.459l1.55-1.612c.387.455.885.885 1.492 1.29.608.406 1.247.711 1.916.916.79.242 1.392.309 1.806.201.427-.104.696-.336.807-.697.09-.295.038-.552-.158-.773-.191-.235-.47-.451-.833-.65a21.122 21.122 0 0 0-1.237-.62c-.448-.21-.897-.443-1.346-.697a5.708 5.708 0 0 1-1.13-.895 2.894 2.894 0 0 1-.667-1.192c-.126-.449-.094-.98.095-1.596.21-.683.584-1.212 1.125-1.589.544-.39 1.206-.612 1.984-.667.796-.064 1.676.052 2.64.347.723.22 1.428.524 2.115.91.687.386 1.226.8 1.618 1.241l-1.55 1.613a5.09 5.09 0 0 0-1.355-1.096 6.901 6.901 0 0 0-1.471-.647c-.763-.233-1.367-.294-1.812-.18-.431.116-.7.349-.807.697-.099.32-.052.598.14.833.19.234.466.457.826.67.36.212.763.424 1.211.634.466.2.914.433 1.346.697.431.263.808.562 1.13.895.34.323.574.71.7 1.158.125.448.096.973-.09 1.576-.205.669-.584 1.19-1.138 1.562-.54.376-1.215.594-2.025.654-.805.047-1.71-.083-2.714-.39Zm11.981 3.664c-.91-.279-1.662-.692-2.255-1.24a3.912 3.912 0 0 1-1.146-2.063c-.17-.828-.091-1.777.238-2.847l1.88-6.123 2.511.768-1.776 5.781c-.296.964-.304 1.752-.023 2.364.297.604.848 1.029 1.651 1.274.59.18 1.135.216 1.638.106a2.555 2.555 0 0 0 1.357-.771c.402-.404.712-.96.93-1.67l1.665-5.42 2.51.768-3.293 10.72-2.39-.732.889-2.89.15 1.012a3.929 3.929 0 0 1-2.08 1.12 5.121 5.121 0 0 1-2.456-.157Zm15.496 4.738a5.054 5.054 0 0 1-2.205-1.333c-.586-.618-.97-1.394-1.152-2.328-.164-.944-.055-2.037.327-3.282.387-1.258.904-2.227 1.553-2.907.661-.676 1.407-1.1 2.235-1.27.833-.185 1.705-.138 2.615.14 1.058.323 1.918.835 2.582 1.536a5.199 5.199 0 0 1 1.342 2.497c.231.963.176 2-.165 3.112-.341 1.11-.88 2.007-1.617 2.69a5.218 5.218 0 0 1-2.514 1.317c-.943.209-1.944.152-3.001-.172Zm-7.098 1.936 4.49-14.613 2.39.73-.777 2.53-.956 2.826-.675 2.912-1.961 6.383-2.51-.768Zm7.477-4.17c.602.185 1.179.215 1.73.09a3.044 3.044 0 0 0 1.502-.814c.437-.422.76-.975.97-1.657.214-.696.257-1.335.128-1.916a3.033 3.033 0 0 0-.787-1.514c-.387-.411-.881-.709-1.484-.893a3.446 3.446 0 0 0-1.75-.096 3.044 3.044 0 0 0-1.502.814c-.433.41-.757.962-.97 1.658-.21.682-.253 1.32-.128 1.915s.388 1.1.787 1.515c.4.415.901.714 1.504.899Zm12.905 6.297c-1.192-.364-2.164-.918-2.917-1.66a5.557 5.557 0 0 1-1.464-2.6c-.227-.978-.178-1.995.147-3.052.329-1.07.853-1.942 1.572-2.615a5.435 5.435 0 0 1 2.566-1.346c.988-.21 2.017-.152 3.088.176 1.044.32 1.905.831 2.582 1.536a5.159 5.159 0 0 1 1.335 2.517c.214.973.148 2.021-.197 3.145a3.836 3.836 0 0 1-.131.356 3.617 3.617 0 0 1-.137.375l-8.937-2.733.512-1.666 7.611 2.327-1.144.221c.202-.611.241-1.192.118-1.742a3.045 3.045 0 0 0-.766-1.442c-.373-.407-.86-.702-1.463-.887-.616-.188-1.199-.22-1.75-.096a3.06 3.06 0 0 0-1.43.793c-.398.39-.696.907-.893 1.55l-.123.4c-.198.643-.225 1.257-.083 1.842.143.585.44 1.094.894 1.525.453.432 1.028.754 1.724.967.602.184 1.173.256 1.713.216a3.627 3.627 0 0 0 1.557-.49l.87 1.957a5.031 5.031 0 0 1-2.228.746c-.814.073-1.689-.033-2.626-.32Zm7.916 2.267 3.293-10.72 2.39.731-.907 2.951-.016-.949a3.565 3.565 0 0 1 2.012-1.185c.811-.162 1.732-.085 2.763.23l-.734 2.389a1.302 1.302 0 0 0-.289-.133 2.076 2.076 0 0 0-.275-.106c-.95-.29-1.793-.24-2.528.15-.73.376-1.265 1.113-1.602 2.21l-1.597 5.2-2.51-.768Zm14.656 4.636a5.054 5.054 0 0 1-2.204-1.333c-.587-.618-.97-1.395-1.152-2.329-.165-.943-.055-2.037.327-3.281.386-1.258.904-2.227 1.552-2.908.662-.676 1.407-1.1 2.236-1.27.833-.185 1.704-.138 2.615.14 1.057.324 1.918.836 2.581 1.537a5.199 5.199 0 0 1 1.342 2.496c.232.964.177 2.001-.165 3.112-.34 1.111-.88 2.008-1.617 2.69a5.218 5.218 0 0 1-2.514 1.317c-.943.21-1.943.153-3-.17Zm-7.097 1.936 4.49-14.614 2.39.731-.778 2.53-.956 2.825-.675 2.912-1.96 6.384-2.511-.768Zm7.476-4.17c.603.185 1.18.214 1.73.09a3.044 3.044 0 0 0 1.502-.814c.438-.423.761-.975.97-1.658.215-.696.257-1.334.128-1.915a3.033 3.033 0 0 0-.787-1.515c-.386-.41-.88-.708-1.483-.892a3.446 3.446 0 0 0-1.75-.096 3.044 3.044 0 0 0-1.502.814c-.434.409-.757.962-.971 1.657-.21.683-.252 1.321-.127 1.916.125.594.387 1.1.787 1.514.4.415.9.715 1.503.9Zm12.684 6.23c-1.097-.337-2.003-.87-2.716-1.6a5.639 5.639 0 0 1-1.424-2.588c-.24-.98-.198-2 .127-3.057.329-1.07.866-1.939 1.613-2.603a5.504 5.504 0 0 1 2.626-1.327c1-.207 2.05-.142 3.148.194 1.111.34 2.023.875 2.736 1.605a5.343 5.343 0 0 1 1.436 2.547c.245.968.2 1.994-.132 3.078-.325 1.057-.863 1.925-1.613 2.603a5.464 5.464 0 0 1-2.633 1.347c-1 .207-2.056.14-3.168-.2Zm.66-2.149c.616.189 1.206.223 1.77.102a2.91 2.91 0 0 0 1.483-.82c.437-.423.76-.975.97-1.658.214-.696.256-1.334.127-1.915a2.9 2.9 0 0 0-.766-1.508 3.44 3.44 0 0 0-1.504-.9c-.616-.188-1.206-.222-1.77-.101a3.087 3.087 0 0 0-1.482.82c-.433.41-.757.962-.97 1.658-.21.682-.253 1.32-.128 1.915s.38 1.097.767 1.508c.4.415.9.715 1.503.9Zm10.004 5.255-.643-11.923 2.37.725.469 10.487-1.125-.344 6.44-8.374 2.108.645.529 10.505-1.105-.338 6.38-8.393 2.228.682-7.249 9.51-2.41-.737-.56-9.33.742.228-5.765 7.394-2.41-.737Zm21.208 6.64c-1.192-.364-2.164-.918-2.917-1.66a5.557 5.557 0 0 1-1.464-2.6c-.227-.977-.178-1.995.147-3.052.328-1.07.853-1.942 1.572-2.615a5.435 5.435 0 0 1 2.566-1.346c.988-.21 2.017-.152 3.088.176 1.044.32 1.905.831 2.581 1.536a5.159 5.159 0 0 1 1.336 2.517c.214.973.148 2.021-.197 3.146a3.836 3.836 0 0 1-.131.355 3.617 3.617 0 0 1-.138.375l-8.936-2.733.512-1.666 7.61 2.328-1.144.22c.203-.61.242-1.192.118-1.742a3.045 3.045 0 0 0-.765-1.442c-.373-.407-.86-.702-1.463-.887-.616-.188-1.2-.22-1.75-.096a3.06 3.06 0 0 0-1.43.793c-.398.39-.696.907-.893 1.55l-.124.4c-.197.643-.224 1.257-.082 1.842.143.585.44 1.094.894 1.525.453.432 1.028.754 1.724.967.602.184 1.173.256 1.713.216a3.627 3.627 0 0 0 1.556-.49l.871 1.957a5.031 5.031 0 0 1-2.228.746c-.814.073-1.689-.033-2.626-.32Zm7.916 2.267 3.293-10.72 2.39.732-.906 2.95-.016-.949a3.565 3.565 0 0 1 2.011-1.185c.812-.162 1.733-.085 2.764.23l-.734 2.389a1.302 1.302 0 0 0-.29-.132 2.076 2.076 0 0 0-.274-.106c-.95-.291-1.793-.241-2.528.149-.731.376-1.265 1.114-1.602 2.21l-1.598 5.2-2.51-.768Z"/><rect width="111.923" height="49.852" fill="#A1D737" rx="24.926" transform="rotate(180 704 77.644)"/><path fill="#111" d="m1364.147 137.46 3.759-11.236 3.717 11.236h2.52l3.801-11.172 3.654 11.172h2.835l-4.872-14.7h-2.919l-3.696 10.878-3.633-10.879h-2.898l-4.872 14.7h2.604Zm-11.687-3.36c1.554 0 2.877-.504 3.738-1.428v5.67h2.625v-15.583h-2.625v5.67c0 2.248-1.26 3.382-3.129 3.382-1.68 0-2.667-.966-2.667-2.962v-6.09h-2.625v6.427c0 3.38 1.995 4.913 4.683 4.913Zm-13.595-11.487c-3.486 0-5.985 2.394-5.985 5.754 0 3.36 2.499 5.733 5.985 5.733 3.444 0 5.964-2.373 5.964-5.733 0-3.36-2.52-5.754-5.964-5.754Zm0 2.247c1.89 0 3.318 1.365 3.318 3.507 0 2.142-1.428 3.507-3.318 3.507-1.911 0-3.34-1.365-3.34-3.507 0-2.142 1.429-3.507 3.34-3.507Zm-13.076 9.24c1.806 0 3.55-.462 4.746-1.386l-1.029-1.911c-.84.693-2.142 1.113-3.402 1.113-1.869 0-2.793-.903-2.793-2.436v-.168h2.898c3.402 0 4.662-1.47 4.662-3.34 0-1.952-1.617-3.36-4.179-3.36-1.68 0-2.898.547-3.528 1.513v-1.365h-2.478v6.573c0 3.234 1.87 4.767 5.103 4.767Zm.357-9.576c1.344 0 2.142.609 2.142 1.554 0 .819-.483 1.49-2.268 1.49h-2.709v-1.301c.441-1.155 1.554-1.743 2.835-1.743Z"/><rect width="151.895" height="49.852" fill="#A1D737" rx="24.926" transform="rotate(180 396.212 77.644)"/><path fill="#111" d="m769.529 122.76-6.615 14.7h-2.688l-6.636-14.7h2.856l5.691 13.25h-1.092l5.67-13.25h2.814Zm-3.045 3.402-.735 2.142h-7.938l-.735-2.142h9.408Zm-29.106 7.938c-.896 0-1.687-.175-2.373-.525-.7-.35-1.245-.89-1.638-1.617-.391-.714-.587-1.638-.587-2.772v-6.427h2.625v6.09c0 .995.216 1.737.65 2.227.435.49 1.058.735 1.87.735.573 0 1.085-.126 1.533-.379.433-.251.777-.622 1.029-1.112.238-.49.356-1.113.356-1.87v-5.69h2.625v6.09c0 .994.217 1.736.652 2.226.433.49 1.057.735 1.868.735.574 0 1.085-.126 1.533-.379.435-.251.778-.622 1.03-1.112.237-.49.356-1.113.356-1.87v-5.69h2.625v11.213h-2.499v-2.982l.442.882a3.826 3.826 0 0 1-1.639 1.66c-.728.378-1.553.567-2.478.567-1.05 0-1.96-.26-2.73-.777-.784-.518-1.302-1.303-1.554-2.352l1.03.357c-.365.84-.967 1.512-1.807 2.016s-1.813.756-2.918.756Zm-15.302-11.34v2.267l.147.484v3.969c0 .77.231 1.365.693 1.785.462.434 1.162.65 2.1.65a6.13 6.13 0 0 0 1.87-.293c.601-.197 1.112-.47 1.532-.82l1.03 1.912c-.603.462-1.317.805-2.143 1.029a9.506 9.506 0 0 1-2.604.357c-1.624 0-2.877-.392-3.759-1.176-.896-.77-1.344-1.968-1.344-3.591v-6.573h2.478Zm3.528-.147c.84 0 1.575.14 2.205.42.63.294 1.12.693 1.47 1.197.336.517.504 1.099.504 1.743 0 .63-.147 1.197-.44 1.7-.309.505-.806.904-1.492 1.198-.686.293-1.596.44-2.73.44h-3.255v-1.742h3.066c.896 0 1.498-.147 1.806-.441.308-.28.462-.63.462-1.05 0-.476-.189-.854-.567-1.134-.378-.28-.903-.42-1.575-.42-.644 0-1.218.147-1.722.44a2.488 2.488 0 0 0-1.113 1.303l-.44-1.575c.251-.658.706-1.17 1.364-1.533.644-.364 1.463-.546 2.457-.546Zm-8.89.147v1.659l-6.91 8.358-.483-.903h7.266v2.1h-9.366v-1.66l6.91-8.357.524.903h-7.623v-2.1h9.681Zm-12.542 0v11.213h-2.625V122.76h2.625Zm-1.322 13.062c.49 0 .895.154 1.217.462.308.308.462.679.462 1.113 0 .448-.154.819-.462 1.113-.322.308-.728.462-1.217.462-.49 0-.89-.148-1.198-.441a1.356 1.356 0 0 1-.483-1.071c0-.463.154-.855.462-1.177.308-.307.715-.461 1.219-.461ZM691.3 134.1c-.897 0-1.695-.175-2.395-.525-.714-.35-1.274-.89-1.68-1.617-.406-.714-.609-1.638-.609-2.772v-6.427h2.625v6.09c0 .995.238 1.737.714 2.227.462.49 1.113.735 1.953.735.616 0 1.162-.126 1.638-.379.476-.251.847-.63 1.113-1.133.252-.49.378-1.113.378-1.87v-5.67h2.625v11.215h-2.499v-3.024l.441.924a3.925 3.925 0 0 1-1.7 1.638c-.757.392-1.625.588-2.605.588Zm-13.556-15.561c1.036 0 2.05.14 3.045.42.98.266 1.785.657 2.415 1.175l-1.176 1.975c-.49-.406-1.106-.728-1.848-.966a7.197 7.197 0 0 0-2.29-.378c-1.231 0-2.134.287-2.708.86-.574.56-.861 1.408-.861 2.542v1.995l-.21 2.54.084 2.542v2.73h-2.5v-9.513c0-2.03.519-3.521 1.555-4.473 1.036-.966 2.534-1.45 4.494-1.45Zm.336 4.725c1.064 0 2.03.224 2.898.672a5.349 5.349 0 0 1 2.037 1.91c.49.813.735 1.765.735 2.857 0 1.078-.245 2.023-.735 2.835a5.192 5.192 0 0 1-2.037 1.89c-.868.448-1.834.672-2.898.672-.952 0-1.806-.19-2.562-.567-.756-.378-1.358-.966-1.806-1.764-.462-.798-.693-1.82-.693-3.066 0-1.246.23-2.275.693-3.087.448-.798 1.05-1.393 1.806-1.785.756-.378 1.61-.567 2.562-.567Zm-.4 2.226c-.657 0-1.245.133-1.763.399-.518.28-.917.658-1.197 1.134-.294.49-.441 1.05-.441 1.68 0 .63.147 1.183.44 1.659.28.49.68.86 1.198 1.113.518.266 1.106.399 1.764.399.658 0 1.253-.133 1.785-.4a2.838 2.838 0 0 0 1.218-1.112c.28-.476.42-1.03.42-1.66 0-.63-.14-1.19-.42-1.68a3.173 3.173 0 0 0-1.218-1.133 3.936 3.936 0 0 0-1.785-.4Zm-10.043 2.142.504 9.828h-3.108l.525-9.828h2.079Zm-1.05-5.02c.49 0 .896.162 1.218.484.322.322.483.707.483 1.155 0 .448-.161.826-.483 1.134-.322.322-.728.483-1.218.483s-.889-.161-1.197-.483a1.542 1.542 0 0 1-.462-1.134c0-.448.154-.833.462-1.155.308-.322.707-.483 1.197-.483Z"/><rect width="123.915" height="49.852" fill="#0D171D" rx="24.926" transform="rotate(180 586.58 77.644)"/><path fill="#DAF836" d="M1147.18 123.118v11.28c0 1.12-.327 2.013-.98 2.68-.667.68-1.613 1.02-2.84 1.02-.44 0-.853-.047-1.24-.14a2.65 2.65 0 0 1-1-.44l.68-1.88c.187.147.4.253.64.32.24.08.487.12.74.12.52 0 .913-.147 1.18-.44.267-.28.4-.707.4-1.28v-1.2l-.08-1.12v-8.92h2.5Zm1.76 8.6v2h-7.12v-2h7.12Zm-13.887-8.74c1.094 0 2.067.233 2.92.7a5.38 5.38 0 0 1 2.02 1.96c.494.827.74 1.767.74 2.82 0 1.067-.246 2.007-.74 2.82a5.232 5.232 0 0 1-2.02 1.94c-.853.467-1.826.7-2.92.7-1.106 0-2.086-.233-2.94-.7a5.098 5.098 0 0 1-2.02-1.92c-.493-.813-.74-1.76-.74-2.84 0-1.053.247-1.993.74-2.82a5.194 5.194 0 0 1 2.02-1.96c.854-.467 1.834-.7 2.94-.7Zm0 2.14c-.613 0-1.16.133-1.64.4s-.853.653-1.12 1.16c-.28.507-.42 1.1-.42 1.78 0 .693.14 1.287.42 1.78.267.507.64.893 1.12 1.16.48.267 1.02.4 1.62.4.614 0 1.16-.133 1.64-.4.467-.267.84-.653 1.12-1.16.28-.493.42-1.087.42-1.78 0-.68-.14-1.273-.42-1.78a2.934 2.934 0 0 0-1.12-1.16c-.48-.267-1.02-.4-1.62-.4Zm-8.53-2v14.84h-2.5v-14.84h2.5Zm-6.221 0v14.84h-2.5v-14.84h2.5Zm-11.022-.14c1.094 0 2.067.233 2.92.7a5.38 5.38 0 0 1 2.02 1.96c.494.827.74 1.767.74 2.82 0 1.067-.246 2.007-.74 2.82a5.232 5.232 0 0 1-2.02 1.94c-.853.467-1.826.7-2.92.7-1.106 0-2.086-.233-2.94-.7a5.098 5.098 0 0 1-2.02-1.92c-.493-.813-.74-1.76-.74-2.84 0-1.053.247-1.993.74-2.82a5.193 5.193 0 0 1 2.02-1.96c.854-.467 1.834-.7 2.94-.7Zm0 2.14c-.613 0-1.16.133-1.64.4s-.853.653-1.12 1.16c-.28.507-.42 1.1-.42 1.78 0 .693.14 1.287.42 1.78.267.507.64.893 1.12 1.16.48.267 1.02.4 1.62.4.614 0 1.16-.133 1.64-.4.467-.267.84-.653 1.12-1.16.28-.493.42-1.087.42-1.78 0-.68-.14-1.273-.42-1.78a2.934 2.934 0 0 0-1.12-1.16c-.48-.267-1.02-.4-1.62-.4Zm-10.597-2 3.92 10.68h-2.36l-3.36-9.42h1.12l-3.52 9.42h-2.1l-3.42-9.42h1.1l-3.46 9.42h-2.22l3.94-10.68h2.4l3.12 8.34h-.74l3.18-8.34h2.4Zm-19.622-.14c.893 0 1.753.113 2.58.34.813.24 1.46.527 1.94.86l-.96 1.9c-.48-.307-1.054-.56-1.72-.76a6.93 6.93 0 0 0-2-.3c-.787 0-1.354.107-1.7.32-.36.213-.54.5-.54.86 0 .293.12.513.36.66.24.16.553.28.94.36.386.08.82.153 1.3.22.466.067.94.153 1.42.26.466.12.893.287 1.28.5.386.227.7.527.94.9s.36.867.36 1.48c0 .68-.194 1.267-.58 1.76-.387.507-.927.893-1.62 1.16-.707.28-1.54.42-2.5.42-.72 0-1.447-.08-2.18-.24-.734-.16-1.34-.387-1.82-.68l.96-1.9c.506.307 1.02.513 1.54.62.506.12 1.013.18 1.52.18.76 0 1.326-.113 1.7-.34.36-.227.54-.513.54-.86 0-.32-.12-.56-.36-.72-.24-.16-.554-.287-.94-.38a13.816 13.816 0 0 0-1.28-.24c-.48-.053-.954-.14-1.42-.26a5.443 5.443 0 0 1-1.28-.5c-.4-.2-.72-.487-.96-.86s-.36-.86-.36-1.46c0-.667.2-1.247.6-1.74.386-.493.94-.88 1.66-1.16.72-.267 1.58-.4 2.58-.4Z"/><rect width="153.894" height="49.852" x="56.931" y="54.448" fill="#A1D737" rx="24.926"/><path fill="#111" d="m80.83 86.618 6.3-14h2.56l6.32 14h-2.72l-5.42-12.62h1.04l-5.4 12.62h-2.68Zm2.9-3.24.7-2.04h7.56l.7 2.04h-8.96Zm20.321-7.56c.853 0 1.613.167 2.28.5a3.64 3.64 0 0 1 1.6 1.54c.387.68.58 1.56.58 2.64v6.12h-2.5v-5.8c0-.947-.227-1.653-.68-2.12-.44-.466-1.06-.7-1.86-.7-.587 0-1.107.12-1.56.36-.453.24-.807.6-1.06 1.08-.24.467-.36 1.06-.36 1.78v5.4h-2.5v-10.68h2.38v2.88l-.42-.88c.373-.68.913-1.2 1.62-1.56.72-.373 1.547-.56 2.48-.56Zm8.072 10.8v-10.68h2.5v10.68h-2.5Zm1.26-12.44c-.467 0-.854-.147-1.16-.44a1.442 1.442 0 0 1-.44-1.06c0-.427.146-.78.44-1.06.306-.293.693-.44 1.16-.44.466 0 .846.14 1.14.42.306.267.46.607.46 1.02 0 .44-.147.813-.44 1.12-.294.293-.68.44-1.16.44Zm18.441 1.64c.853 0 1.606.167 2.26.5.666.334 1.186.847 1.56 1.54.373.68.56 1.56.56 2.64v6.12h-2.5v-5.8c0-.947-.207-1.653-.62-2.12-.414-.466-1.007-.7-1.78-.7-.547 0-1.034.12-1.46.36-.414.24-.74.593-.98 1.06-.227.467-.34 1.06-.34 1.78v5.42h-2.5v-5.8c0-.947-.207-1.653-.62-2.12-.414-.466-1.007-.7-1.78-.7-.547 0-1.034.12-1.46.36-.414.24-.74.593-.98 1.06-.227.467-.34 1.06-.34 1.78v5.42h-2.5v-10.68h2.38v2.84l-.42-.84c.36-.693.88-1.22 1.56-1.58.693-.36 1.48-.54 2.36-.54 1 0 1.866.247 2.6.74.746.493 1.24 1.24 1.48 2.24l-.98-.34c.346-.8.92-1.44 1.72-1.92.8-.48 1.726-.72 2.78-.72Zm14.594 10.8v-2.16l-.14-.46v-3.78c0-.733-.22-1.3-.66-1.7-.44-.413-1.106-.62-2-.62-.6 0-1.193.094-1.78.28a4.366 4.366 0 0 0-1.46.78l-.98-1.82c.574-.44 1.254-.767 2.04-.98.8-.227 1.627-.34 2.48-.34 1.547 0 2.74.374 3.58 1.12.854.733 1.28 1.873 1.28 3.42v6.26h-2.36Zm-3.36.14c-.8 0-1.5-.133-2.1-.4-.6-.28-1.066-.66-1.4-1.14a2.984 2.984 0 0 1-.48-1.66c0-.6.14-1.14.42-1.62.294-.48.767-.86 1.42-1.14.654-.28 1.52-.42 2.6-.42h3.1v1.66h-2.92c-.853 0-1.426.14-1.72.42-.293.267-.44.6-.44 1 0 .454.18.814.54 1.08.36.267.86.4 1.5.4.614 0 1.16-.14 1.64-.42.494-.28.847-.693 1.06-1.24l.42 1.5c-.24.627-.673 1.113-1.3 1.46-.613.347-1.393.52-2.34.52Zm13.389 0c-1.173 0-2.08-.3-2.72-.9-.64-.613-.96-1.513-.96-2.7v-9.58h2.5v9.52c0 .507.127.9.38 1.18.267.28.633.42 1.1.42.56 0 1.027-.146 1.4-.44l.7 1.78c-.293.24-.653.42-1.08.54-.427.12-.867.18-1.32.18Zm-5.44-8.74v-2h7.12v2h-7.12Zm15.005 8.74c-1.187 0-2.227-.233-3.12-.7a5.3 5.3 0 0 1-2.06-1.96c-.48-.826-.72-1.766-.72-2.82 0-1.067.233-2.007.7-2.82a5.165 5.165 0 0 1 1.96-1.94c.84-.466 1.793-.7 2.86-.7 1.04 0 1.967.227 2.78.68a4.928 4.928 0 0 1 1.92 1.92c.467.827.7 1.8.7 2.92 0 .107-.007.227-.02.36 0 .134-.007.26-.02.38h-8.9v-1.66h7.58l-.98.52c.013-.613-.113-1.153-.38-1.62a2.906 2.906 0 0 0-1.1-1.1c-.453-.267-.98-.4-1.58-.4-.613 0-1.153.133-1.62.4-.453.267-.813.64-1.08 1.12-.253.467-.38 1.02-.38 1.66v.4c0 .64.147 1.207.44 1.7.293.493.707.874 1.24 1.14.533.267 1.147.4 1.84.4.6 0 1.14-.093 1.62-.28.48-.187.907-.48 1.28-.88l1.34 1.54c-.48.56-1.087.993-1.82 1.3-.72.294-1.547.44-2.48.44Zm12.381 0c-1.026 0-1.953-.227-2.78-.68a5.109 5.109 0 0 1-1.92-1.92c-.466-.813-.7-1.773-.7-2.88s.234-2.067.7-2.88a4.966 4.966 0 0 1 1.92-1.9c.827-.453 1.754-.68 2.78-.68.894 0 1.694.2 2.4.6.707.387 1.267.98 1.68 1.78.414.8.62 1.827.62 3.08 0 1.24-.2 2.267-.6 3.08-.4.8-.953 1.4-1.66 1.8-.706.4-1.52.6-2.44.6Zm.3-2.14c.6 0 1.134-.133 1.6-.4.48-.267.86-.653 1.14-1.16.294-.507.44-1.1.44-1.78 0-.693-.146-1.287-.44-1.78a2.895 2.895 0 0 0-1.14-1.16c-.466-.266-1-.4-1.6-.4-.6 0-1.14.133-1.62.4a3.085 3.085 0 0 0-1.14 1.16c-.28.493-.42 1.087-.42 1.78 0 .68.14 1.273.42 1.78.294.507.674.893 1.14 1.16.48.267 1.02.4 1.62.4Zm3.24 2v-2.52l.1-2.84-.2-2.84v-6.64h2.48v14.84h-2.38Z"/><rect width="133.739" height="49.934" fill="#DAF836" rx="24.967" transform="rotate(132.059 329.321 190.556) skewX(.13)"/><path fill="#111" d="M646.916 74.79c.75-.832 1.594-1.418 2.53-1.76a5.357 5.357 0 0 1 2.825-.205c.946.186 1.81.631 2.594 1.335.793.713 1.327 1.524 1.602 2.434.285.919.31 1.856.077 2.81-.243.966-.739 1.864-1.49 2.696-.696.772-1.466 1.308-2.31 1.607a4.132 4.132 0 0 1-2.589.121l.453-2.174c.591.101 1.133.059 1.624-.127a3.12 3.12 0 0 0 1.259-.858c.41-.456.682-.956.814-1.5a2.849 2.849 0 0 0-.085-1.637c-.18-.537-.528-1.038-1.043-1.5-.516-.464-1.056-.761-1.62-.892a2.902 2.902 0 0 0-1.626.1c-.529.188-.999.51-1.41.965a3.11 3.11 0 0 0-.723 1.34c-.134.506-.12 1.048.042 1.624l-2.12.677a4.358 4.358 0 0 1-.164-2.594c.21-.87.663-1.69 1.36-2.462Zm-4.693 5.41 7.945 7.137-1.594 1.767-2.187-1.965.827.367c.321.719.393 1.455.215 2.21-.186.764-.624 1.527-1.311 2.29l-1.771-1.591c.091-.062.168-.127.23-.196.073-.06.14-.126.203-.195.634-.703.93-1.45.89-2.239-.032-.781-.455-1.537-1.268-2.267l-3.854-3.462 1.675-1.856Zm-9.257 10.05c.795-.88 1.665-1.497 2.61-1.848a5.32 5.32 0 0 1 2.839-.22c.936.196 1.796.646 2.58 1.35.794.713 1.337 1.514 1.63 2.404a5.15 5.15 0 0 1 .13 2.752c-.216.935-.681 1.799-1.396 2.59-.696.773-1.486 1.31-2.368 1.61a4.938 4.938 0 0 1-2.715.143c-.927-.206-1.808-.683-2.641-1.432a3.63 3.63 0 0 1-.254-.255c-.1-.089-.19-.179-.27-.269l5.962-6.608 1.235 1.11-5.077 5.627.27-1.075c.446.42.933.687 1.459.8a2.914 2.914 0 0 0 1.555-.08c.502-.16.954-.461 1.356-.907.411-.455.674-.945.788-1.47a2.9 2.9 0 0 0-.11-1.55c-.177-.5-.504-.964-.98-1.391l-.298-.268c-.476-.427-.996-.697-1.56-.809a2.944 2.944 0 0 0-1.678.159c-.556.218-1.066.584-1.53 1.099a4.434 4.434 0 0 0-.877 1.39c-.183.48-.25.994-.203 1.538l-2.043-.034a4.768 4.768 0 0 1 .252-2.22c.264-.73.708-1.442 1.334-2.135Zm-9.374 10.599 1.607 1.443.436.204 2.812 2.525c.545.49 1.114.706 1.707.646.602-.05 1.202-.407 1.8-1.07.403-.446.73-.949.985-1.509.245-.55.378-1.085.398-1.605l2.01.488c-.056.72-.269 1.443-.637 2.17a9.045 9.045 0 0 1-1.409 2.068c-1.036 1.149-2.113 1.785-3.231 1.91-1.117.143-2.251-.302-3.402-1.335l-4.657-4.183 1.58-1.752Zm2.146-2.588c.536-.594 1.104-1.025 1.705-1.292.61-.259 1.205-.351 1.786-.278a2.99 2.99 0 0 1 1.556.753c.447.4.755.866.924 1.394.16.539.126 1.144-.103 1.816-.23.672-.706 1.41-1.43 2.211l-2.076 2.302-1.235-1.11 1.956-2.167c.572-.634.852-1.153.84-1.558a1.292 1.292 0 0 0-.45-.995 1.278 1.278 0 0 0-1.164-.32c-.44.088-.874.37-1.303.846-.41.455-.673.955-.786 1.498a2.362 2.362 0 0 0 .212 1.616l-1.397-.69c-.305-.598-.377-1.245-.215-1.942.153-.687.546-1.382 1.18-2.084Zm-8.969 9.94c.786-.871 1.617-1.344 2.492-1.418.885-.066 1.77.298 2.652 1.091l7.127 6.402-1.675 1.856-7.082-6.362c-.377-.338-.755-.507-1.133-.506-.387.01-.736.19-1.049.536-.375.416-.579.86-.61 1.333l-1.794-.67c.018-.377.126-.765.322-1.162.197-.397.447-.764.75-1.1Zm10.147 1.801 1.488 1.336-4.77 5.287-1.488-1.337 4.77-5.286Zm-13.323 1.928 7.946 7.136-1.675 1.856-7.945-7.136 1.674-1.856Zm8.411 9.248c.313-.347.681-.536 1.105-.567.415-.022.776.105 1.083.381a1.4 1.4 0 0 1 .494 1.035c.013.424-.137.809-.45 1.156-.312.346-.671.535-1.076.565-.404.05-.76-.064-1.067-.34a1.557 1.557 0 0 1-.538-1.075c-.022-.414.128-.799.45-1.155Zm-14.48-2.52 11.013 3.735-1.742 1.93-9.647-3.369.857-.95 4.275 9.324-1.608 1.782-4.877-10.537 1.728-1.916Zm-9.41 10.218c.795-.881 1.666-1.497 2.611-1.849a5.32 5.32 0 0 1 2.839-.22c.936.197 1.796.647 2.58 1.35.794.713 1.336 1.515 1.629 2.404a5.15 5.15 0 0 1 .13 2.752c-.215.935-.68 1.8-1.395 2.591-.697.772-1.486 1.309-2.368 1.61a4.938 4.938 0 0 1-2.715.142c-.927-.206-1.808-.683-2.641-1.431a3.63 3.63 0 0 1-.254-.256c-.1-.089-.19-.178-.27-.268l5.962-6.608 1.235 1.11-5.078 5.627.27-1.075c.447.42.934.686 1.46.8a2.914 2.914 0 0 0 1.555-.081c.502-.159.954-.46 1.356-.906.411-.456.674-.946.788-1.47a2.9 2.9 0 0 0-.11-1.55c-.177-.5-.504-.964-.98-1.392l-.298-.267c-.476-.428-.996-.698-1.56-.81a2.944 2.944 0 0 0-1.678.16c-.556.217-1.066.583-1.53 1.098a4.434 4.434 0 0 0-.877 1.39c-.183.481-.25.994-.203 1.538l-2.044-.034a4.768 4.768 0 0 1 .253-2.22c.264-.73.708-1.442 1.334-2.135Z"/><rect width="125.836" height="49.892" fill="#DAF836" rx="24.946" transform="matrix(.856 .518 -.52 .854 175.854 0)"/><path fill="#111" d="M184.723 44.185q-1.456-.88-2.561-2.113-1.105-1.232-1.484-2.396l1.914-1.322q.402 1.076 1.288 2.145.888 1.065 2.02 1.75 1.4.847 2.364.82.967-.032 1.415-.768.327-.54.154-1.123-.173-.584-.65-1.143-.472-.555-1.342-1.423-1.23-1.213-1.913-2.093-.679-.878-.88-1.989-.193-1.112.56-2.351.634-1.043 1.717-1.55 1.085-.512 2.529-.322 1.447.187 3.1 1.187 1.15.696 2.088 1.66.94.958 1.42 1.986l-1.837 1.363q-.531-.981-1.279-1.775-.744-.798-1.587-1.308-1.386-.839-2.346-.779-.953.059-1.422.83-.328.538-.15 1.114.179.575.651 1.13.477.559 1.347 1.427 1.206 1.174 1.888 2.066.686.894.885 1.997.207 1.102-.536 2.324-.634 1.043-1.714 1.546-1.077.499-2.533.307-1.453-.196-3.106-1.197Zm13.497-5.183 2.245 1.359-5.824 9.58-2.246-1.358 5.825-9.581Zm2.093-.897q-.61-.369-.788-1.004-.178-.635.171-1.209.349-.574.996-.71.646-.136 1.256.233.61.37.798.987.193.62-.145 1.176-.36.592-1.008.75-.649.16-1.28-.223Zm3.735 16.817q-.591.085-1.256-.095-.664-.18-1.296-.563-1.579-.955-1.942-2.302-.357-1.348.605-2.93l2.802-4.608-1.584-.959 1.092-1.796 1.584.959 1.331-2.19 2.246 1.358-1.332 2.19 2.566 1.554-1.092 1.796-2.566-1.553-2.77 4.556q-.426.7-.312 1.273.119.575.768.968.754.457 1.494.365l-.338 1.977Zm5.908 4.462q-1.491-.902-2.294-2.245-.801-1.348-.786-2.873.02-1.522.882-2.942.86-1.415 2.2-2.127 1.343-.709 2.899-.624 1.559.08 3.068.994 1.421.86 2.138 2.079.721 1.221.606 2.626l-2.334-.04q-.01-.911-.43-1.621-.417-.708-1.153-1.154-1.255-.759-2.582-.441-1.32.316-2.148 1.678-.831 1.367-.51 2.675.32 1.309 1.596 2.081.737.446 1.555.492.825.044 1.643-.372l1.11 2.05q-1.209.737-2.636.676-1.42-.062-2.824-.912Zm10.584 6.405q-1.457-.881-2.242-2.214-.784-1.337-.76-2.856.028-1.517.891-2.937.86-1.415 2.19-2.132 1.335-.715 2.883-.635 1.55.075 3.006.957 1.474.891 2.257 2.228.786 1.333.763 2.841-.018 1.511-.879 2.926-.862 1.42-2.202 2.143-1.336.726-2.886.65-1.548-.079-3.021-.97Zm1.169-1.923q1.241.751 2.549.416 1.308-.335 2.128-1.685.818-1.344.511-2.656-.303-1.317-1.545-2.068-1.241-.751-2.543-.406-1.299.34-2.116 1.685-.82 1.35-.523 2.656.298 1.307 1.539 2.058Zm24.563 4.066q1.811 1.096 2.233 2.79.425 1.69-.853 3.792l-3.337 5.49-2.246-1.36 3.164-5.204q.765-1.257.594-2.23-.171-.972-1.215-1.604-1.132-.685-2.269-.354-1.132.333-1.971 1.713l-2.957 4.863-2.246-1.359 3.165-5.204q.764-1.258.593-2.23-.17-.973-1.215-1.604-1.149-.696-2.272-.368-1.116.325-1.968 1.727l-2.956 4.863-2.246-1.36 5.825-9.58 2.136 1.292-.74 1.218q.93-.317 1.945-.17 1.02.149 2.006.746 1.08.653 1.668 1.56.592.91.593 1.995 1.054-.392 2.244-.247 1.193.14 2.325.825Z"/><rect width="118.831" height="49.899" fill="#DAF836" rx="24.95" transform="matrix(.824 .567 -.569 .823 929.585 42.624)"/><path fill="#111" d="M933.141 84.732c-.968-.666-1.694-1.463-2.177-2.39a5.59 5.59 0 0 1-.594-2.907c.066-1.008.414-1.966 1.043-2.876.637-.922 1.411-1.587 2.324-1.996a5.472 5.472 0 0 1 2.922-.461c1.04.12 2.045.514 3.013 1.18.9.62 1.563 1.347 1.989 2.184.445.833.604 1.724.476 2.672l-2.33-.175c.026-.628-.092-1.185-.352-1.67a3.265 3.265 0 0 0-1.065-1.191 3.611 3.611 0 0 0-1.675-.643 3.01 3.01 0 0 0-1.696.312c-.537.26-1.012.689-1.426 1.287-.414.6-.651 1.201-.711 1.805a3.027 3.027 0 0 0 .322 1.675 3.6 3.6 0 0 0 1.198 1.334c.461.317.96.507 1.495.57.547.07 1.11-.018 1.69-.266l.992 2.11c-.836.446-1.73.62-2.685.524-.935-.1-1.853-.459-2.753-1.078Zm10.194 7.013c-.946-.65-1.648-1.431-2.108-2.342a5.632 5.632 0 0 1-.577-2.895c.066-1.008.414-1.967 1.043-2.877.637-.921 1.411-1.586 2.324-1.995a5.51 5.51 0 0 1 2.905-.474c1.017.105 1.998.483 2.944 1.133.957.659 1.666 1.444 2.125 2.355.472.919.672 1.872.602 2.86-.06.997-.41 1.961-1.056 2.894-.628.91-1.403 1.575-2.323 1.995a5.47 5.47 0 0 1-2.918.491c-1.016-.105-2.004-.486-2.96-1.145Zm1.278-1.848c.53.365 1.083.575 1.657.63a2.914 2.914 0 0 0 1.662-.335c.544-.271 1.02-.7 1.425-1.288.414-.599.647-1.195.7-1.787a2.896 2.896 0 0 0-.277-1.669 3.438 3.438 0 0 0-1.162-1.31c-.53-.365-1.083-.575-1.658-.63a3.091 3.091 0 0 0-1.661.335c-.537.26-1.012.69-1.426 1.288-.406.587-.639 1.183-.7 1.787-.06.605.033 1.161.277 1.669.256.516.644.953 1.163 1.31Zm24.275 5.485c.738.508 1.29 1.1 1.657 1.777.377.685.52 1.438.43 2.259-.083.81-.447 1.68-1.092 2.613l-3.653 5.287-2.163-1.488 3.463-5.01c.565-.818.808-1.551.729-2.2-.079-.65-.453-1.204-1.122-1.664-.473-.326-.966-.512-1.478-.558-.5-.039-.994.072-1.48.332-.475.268-.927.713-1.357 1.335l-3.236 4.682-2.162-1.488 3.462-5.01c.565-.817.808-1.55.73-2.2-.08-.649-.454-1.204-1.123-1.664-.472-.325-.965-.511-1.477-.558-.501-.038-.995.072-1.481.333-.475.268-.927.713-1.357 1.335l-3.235 4.681-2.163-1.487 6.376-9.226 2.059 1.417-1.696 2.453.138-.976a3.838 3.838 0 0 1 2.293-.436c.815.102 1.603.414 2.364.938.865.595 1.467 1.324 1.807 2.187.352.87.333 1.809-.057 2.815l-.645-.877c.778-.484 1.656-.696 2.635-.634.978.061 1.923.405 2.834 1.032Zm.468 14.086 6.376-9.225 2.162 1.488-6.375 9.225-2.163-1.488Zm8.516-9.995c-.403-.278-.65-.635-.74-1.07-.08-.429.005-.821.252-1.178a1.476 1.476 0 0 1 1.013-.654c.44-.07.863.033 1.266.31.404.278.65.625.736 1.042.106.413.035.798-.211 1.155-.263.38-.613.615-1.05.705-.428.079-.85-.024-1.266-.31Zm1.003 16.723c-.97-.667-1.695-1.464-2.178-2.39a5.59 5.59 0 0 1-.594-2.908c.067-1.007.414-1.966 1.043-2.876.637-.921 1.411-1.586 2.324-1.995a5.472 5.472 0 0 1 2.923-.462c1.04.12 2.044.514 3.013 1.18.9.62 1.562 1.348 1.988 2.184.445.833.604 1.724.476 2.673l-2.33-.175c.026-.629-.091-1.185-.352-1.67a3.265 3.265 0 0 0-1.065-1.192 3.611 3.611 0 0 0-1.675-.642 3.01 3.01 0 0 0-1.696.311c-.537.26-1.012.689-1.426 1.288-.414.599-.65 1.2-.711 1.805a3.027 3.027 0 0 0 .323 1.675 3.6 3.6 0 0 0 1.197 1.333c.461.318.96.507 1.495.57.547.07 1.11-.018 1.69-.265l.992 2.11c-.835.445-1.73.62-2.685.523-.935-.1-1.853-.459-2.752-1.077Zm9.03 6.213a10.19 10.19 0 0 1-2.028-1.83c-.56-.69-.949-1.323-1.165-1.897l1.965-1.07c.232.55.577 1.111 1.034 1.68.457.57.974 1.053 1.551 1.45.68.468 1.235.713 1.662.735.439.03.765-.11.98-.421.175-.254.203-.515.083-.785-.112-.28-.312-.57-.598-.87-.287-.3-.618-.62-.994-.964a19.726 19.726 0 0 1-1.073-1.07 5.703 5.703 0 0 1-.809-1.193 2.89 2.89 0 0 1-.275-1.337c.015-.465.206-.963.572-1.493.406-.587.923-.979 1.552-1.175.637-.207 1.335-.22 2.094-.037.778.178 1.583.553 2.413 1.125.623.428 1.204.93 1.743 1.504.539.575.928 1.132 1.168 1.67l-1.964 1.07a5.086 5.086 0 0 0-.962-1.451 6.899 6.899 0 0 0-1.208-1.06c-.657-.453-1.215-.692-1.673-.719-.447-.018-.774.122-.98.422-.192.276-.231.555-.12.836.113.281.308.577.587.888.279.31.6.634.964.969.383.332.741.688 1.073 1.07.332.38.602.779.809 1.193.227.411.332.85.317 1.314-.015.466-.202.957-.56 1.476-.398.576-.917.958-1.558 1.146-.629.196-1.338.2-2.128.014-.782-.198-1.606-.595-2.471-1.19Z"/></svg>