<svg width="127" height="109" viewBox="0 0 127 109" fill="none" xmlns="http://www.w3.org/2000/svg">
<path d="M14.1852 20.5248C22.0195 9.18929 37.5732 6.33132 48.9255 14.1414L105.715 53.2114C117.067 61.0214 119.919 76.542 112.085 87.8776C104.251 99.2131 88.697 102.071 77.3447 94.261L20.555 55.1911C9.20281 47.381 6.35095 31.8604 14.1852 20.5248Z" fill="#DAF836"/>
<path d="M31.6593 42.4964C30.6904 41.8298 29.9646 41.0332 29.482 40.1063C29.0188 39.1759 28.8206 38.2069 28.8874 37.1993C28.9541 36.1916 29.3019 35.2328 29.9307 34.323C30.5675 33.4016 31.342 32.7365 32.2543 32.3275C33.1746 31.9071 34.1489 31.7532 35.1772 31.8659C36.217 31.9865 37.2214 32.3801 38.1902 33.0466C39.0899 33.6656 39.7526 34.3934 40.1784 35.2301C40.6237 36.0633 40.7823 36.9541 40.6543 37.9026L38.3248 37.7274C38.3505 37.0993 38.2331 36.5427 37.9727 36.0577C37.7238 35.5806 37.3687 35.1834 36.9073 34.866C36.3767 34.5009 35.8185 34.2868 35.2325 34.2235C34.6466 34.1603 34.0813 34.2642 33.5366 34.5352C32.9999 34.7947 32.5245 35.2239 32.1106 35.8227C31.6967 36.4216 31.4596 37.0232 31.3994 37.6275C31.3471 38.2203 31.4547 38.7786 31.7223 39.3026C31.9899 39.8265 32.3889 40.271 32.9195 40.636C33.3809 40.9534 33.8792 41.1434 34.4147 41.2058C34.9616 41.2763 35.5248 41.1879 36.1041 40.9407L37.0963 43.0508C36.2612 43.4958 35.3663 43.6703 34.4116 43.5742C33.4763 43.4746 32.5589 43.1153 31.6593 42.4964ZM41.8529 49.5094C40.9071 48.8587 40.2045 48.0779 39.7449 47.167C39.2932 46.2445 39.1008 45.2794 39.1675 44.2718C39.2343 43.2641 39.5821 42.3054 40.2109 41.3955C40.8477 40.4742 41.6222 39.809 42.5345 39.4001C43.4548 38.9796 44.4233 38.8217 45.44 38.9265C46.4568 39.0313 47.4381 39.409 48.3839 40.0596C49.3412 40.7183 50.0497 41.503 50.5092 42.414C50.9804 43.3329 51.1808 44.2864 51.1105 45.2746C51.0517 46.2708 50.6999 47.2353 50.0552 48.1682C49.4264 49.078 48.6518 49.7432 47.7315 50.1636C46.8228 50.592 45.8503 50.7556 44.8141 50.6545C43.7973 50.5497 42.8103 50.168 41.8529 49.5094ZM43.1305 47.6609C43.661 48.0259 44.2135 48.2361 44.7879 48.2914C45.3624 48.3467 45.9161 48.2349 46.4493 47.956C46.994 47.685 47.4693 47.2558 47.8752 46.6684C48.2891 46.0695 48.5222 45.4737 48.5745 44.8809C48.6463 44.2846 48.5542 43.7284 48.2982 43.2124C48.0421 42.6964 47.6546 42.2598 47.1356 41.9028C46.605 41.5377 46.0525 41.3276 45.4781 41.2723C44.9152 41.2249 44.3614 41.3367 43.8168 41.6077C43.28 41.8672 42.8047 42.2964 42.3908 42.8953C41.9849 43.4826 41.7518 44.0785 41.6915 44.6827C41.6313 45.287 41.7234 45.8432 41.9679 46.3513C42.2239 46.8673 42.6114 47.3038 43.1305 47.6609ZM67.4061 53.1465C68.1443 53.6543 68.6964 54.2466 69.0626 54.9234C69.4403 55.6081 69.5837 56.3609 69.4927 57.182C69.4097 57.9916 69.0459 58.8628 68.4011 59.7957L64.7476 65.082L62.585 63.5942L66.0475 58.5842C66.6126 57.7665 66.8557 57.0331 66.7767 56.384C66.6978 55.7349 66.3238 55.1803 65.6548 54.72C65.1819 54.3947 64.6893 54.2087 64.177 54.1621C63.6761 54.1234 63.1826 54.2342 62.6964 54.4945C62.2217 54.7627 61.7695 55.2077 61.3397 55.8297L58.104 60.5114L55.9414 59.0235L59.4039 54.0136C59.969 53.1959 60.2121 52.4625 60.1331 51.8134C60.0542 51.1643 59.6802 50.6096 59.0112 50.1494C58.5383 49.8241 58.0457 49.6381 57.5334 49.5915C57.0325 49.5528 56.539 49.6636 56.0528 49.9238C55.5781 50.192 55.1259 50.6371 54.6961 51.259L51.4604 55.9407L49.2978 54.4529L55.6735 45.2277L57.7324 46.6441L56.037 49.0973L56.1751 48.1217C56.9004 47.7371 57.6647 47.5916 58.4678 47.6854C59.2825 47.787 60.0704 48.0997 60.8317 48.6235C61.6967 49.2186 62.2992 49.9474 62.6391 50.81C62.9905 51.6805 62.9715 52.6191 62.5821 53.6257L61.9373 52.7487C62.7148 52.264 63.5928 52.0524 64.5714 52.1139C65.55 52.1754 66.4949 52.5196 67.4061 53.1465ZM67.8737 67.2327L74.2494 58.0075L76.4121 59.4953L70.0363 68.7205L67.8737 67.2327ZM76.3901 57.2371C75.9864 56.9594 75.7395 56.6026 75.6493 56.1667C75.5707 55.7387 75.6547 55.3462 75.9015 54.9892C76.1562 54.6207 76.494 54.4028 76.9149 54.3355C77.3553 54.2646 77.7773 54.368 78.181 54.6458C78.5847 54.9235 78.8299 55.2706 78.9164 55.687C79.0225 56.0999 78.9522 56.4848 78.7055 56.8418C78.4428 57.2219 78.093 57.4571 77.6562 57.5474C77.2274 57.6262 76.8053 57.5228 76.3901 57.2371ZM77.3924 73.9598C76.4236 73.2932 75.6978 72.4965 75.2152 71.5697C74.752 70.6393 74.5538 69.6703 74.6206 68.6626C74.6873 67.655 75.0351 66.6962 75.6639 65.7864C76.3007 64.865 77.0752 64.1998 77.9875 63.7909C78.9078 63.3704 79.8821 63.2166 80.9104 63.3293C81.9502 63.4499 82.9545 63.8435 83.9234 64.51C84.8231 65.129 85.4858 65.8568 85.9116 66.6935C86.3569 67.5266 86.5155 68.4175 86.3875 69.366L84.058 69.1908C84.0837 68.5627 83.9663 68.0061 83.7059 67.5211C83.457 67.044 83.1019 66.6467 82.6405 66.3293C82.1099 65.9643 81.5517 65.7502 80.9657 65.6869C80.3798 65.6236 79.8145 65.7275 79.2698 65.9985C78.733 66.258 78.2577 66.6872 77.8438 67.2861C77.4299 67.885 77.1928 68.4866 77.1326 69.0909C77.0803 69.6836 77.1879 70.242 77.4555 70.7659C77.7231 71.2899 78.1221 71.7344 78.6527 72.0994C79.114 72.4168 79.6124 72.6067 80.1479 72.6692C80.6948 72.7396 81.258 72.6512 81.8372 72.404L82.8295 74.5141C81.9944 74.9592 81.0995 75.1337 80.1448 75.0376C79.2095 74.938 78.2921 74.5787 77.3924 73.9598ZM86.4237 80.1731C85.6509 79.6414 84.9746 79.0317 84.3948 78.3439C83.8345 77.6526 83.4463 77.0201 83.23 76.4465L85.1948 75.3767C85.4269 75.9272 85.7716 76.4873 86.2289 77.0568C86.6862 77.6263 87.2033 78.1094 87.78 78.5062C88.4605 78.9743 89.0143 79.2194 89.4416 79.2415C89.8803 79.2715 90.2072 79.131 90.4221 78.82C90.5972 78.5666 90.6247 78.3052 90.5047 78.0357C90.3926 77.7546 90.1932 77.4645 89.9065 77.1653C89.6197 76.8661 89.2886 76.5448 88.9132 76.2016C88.5493 75.8663 88.1916 75.5097 87.8401 75.1319C87.508 74.7505 87.2384 74.3526 87.0313 73.9382C86.8321 73.5123 86.7402 73.0667 86.7554 72.6014C86.7707 72.1361 86.9614 71.6385 87.3275 71.1088C87.7335 70.5214 88.2509 70.1297 88.8799 69.9337C89.5169 69.7262 90.2149 69.7135 90.9738 69.8958C91.7523 70.0745 92.5567 70.4495 93.3872 71.0209C94.01 71.4494 94.5909 71.9509 95.1297 72.5256C95.6686 73.1002 96.0581 73.6571 96.2982 74.1961L94.3335 75.2659C94.0782 74.6995 93.7576 74.2155 93.3714 73.8139C93.0048 73.4087 92.6023 73.0553 92.164 72.7538C91.5065 72.3015 90.9487 72.0622 90.4904 72.0358C90.0437 72.0173 89.7168 72.1578 89.5099 72.4572C89.3189 72.7336 89.2794 73.0124 89.3915 73.2934C89.5036 73.5744 89.699 73.8703 89.9778 74.1811C90.2566 74.4918 90.5779 74.8148 90.9418 75.1502C91.3252 75.4819 91.6829 75.8384 92.0149 76.2198C92.347 76.6012 92.6166 76.9991 92.8237 77.4135C93.0503 77.8243 93.156 78.2624 93.1408 78.7277C93.1255 79.193 92.9388 79.6848 92.5806 80.203C92.1826 80.7789 91.6633 81.1609 91.0228 81.3489C90.3938 81.5449 89.6843 81.5496 88.8943 81.363C88.1123 81.1648 87.2888 80.7682 86.4237 80.1731Z" fill="#111111"/>
</svg>
