<svg width="127" height="133" viewBox="0 0 127 133" fill="none" xmlns="http://www.w3.org/2000/svg">
<path d="M108.167 16.6832C118.425 25.897 119.253 41.6655 110.016 51.903L53.8743 114.124C44.6372 124.362 28.8329 125.192 18.5745 115.978C8.3161 106.764 7.48817 90.9956 16.7253 80.7581L72.8668 18.5366C82.1039 8.29912 97.9082 7.46931 108.167 16.6832Z" fill="#DAF836"/>
<path d="M82.3712 34.5644C83.1215 33.7328 83.9649 33.1463 84.9016 32.8048C85.8393 32.4821 86.7809 32.4138 87.7264 32.5999C88.6719 32.786 89.5365 33.231 90.3201 33.9348C91.1137 34.6476 91.6478 35.4588 91.9224 36.3686C92.2069 37.2873 92.2325 38.2242 91.9991 39.1795C91.7568 40.1447 91.2605 41.0431 90.5102 41.8746C89.8135 42.6468 89.0429 43.1823 88.1985 43.4813C87.3551 43.7991 86.4924 43.8396 85.6104 43.603L86.0634 41.4291C86.6547 41.5301 87.1959 41.4875 87.6871 41.3014C88.1693 41.1252 88.5891 40.8391 88.9464 40.4432C89.3572 39.9878 89.6287 39.4879 89.7608 38.9434C89.8929 38.399 89.8643 37.8535 89.6749 37.307C89.4954 36.7695 89.1478 36.2691 88.632 35.8058C88.1162 35.3425 87.576 35.0455 87.0115 34.9148C86.4569 34.7931 85.9152 34.8262 85.3863 35.0143C84.8574 35.2024 84.3875 35.5241 83.9767 35.9795C83.6194 36.3755 83.3782 36.8219 83.253 37.3189C83.119 37.8257 83.1332 38.3672 83.2958 38.9434L81.1763 39.6205C80.8581 38.779 80.8032 37.9143 81.0118 37.0263C81.2213 36.1572 81.6745 35.3365 82.3712 34.5644ZM77.6781 39.9747L85.6237 47.1112L84.0293 48.8782L81.8421 46.9137L82.6694 47.2805C82.9907 47.9992 83.0625 48.7357 82.8847 49.49C82.698 50.2542 82.2607 51.0175 81.573 51.7797L79.8023 50.1894C79.8936 50.128 79.9705 50.0627 80.0331 49.9934C80.1055 49.933 80.173 49.8682 80.2355 49.7989C80.8697 49.096 81.166 48.3496 81.1245 47.5596C81.093 46.7786 80.6705 46.0227 79.8571 45.2922L76.0033 41.8308L77.6781 39.9747ZM68.421 50.0253C69.2159 49.1443 70.0862 48.528 71.0319 48.1766C71.9785 47.844 72.9245 47.7708 73.87 47.9569C74.8066 48.1529 75.6667 48.6028 76.4504 49.3067C77.2439 50.0194 77.787 50.8208 78.0794 51.7108C78.3729 52.6195 78.4163 53.5367 78.2097 54.4623C77.9942 55.3978 77.5291 56.2615 76.8146 57.0535C76.1179 57.8256 75.3285 58.3621 74.4464 58.6631C73.5642 58.964 72.6594 59.0115 71.7317 58.8056C70.8041 58.5997 69.9236 58.1225 69.0904 57.3741C69.011 57.3029 68.9262 57.2177 68.836 57.1187C68.7368 57.0296 68.647 56.94 68.5667 56.85L74.5288 50.2422L75.7638 51.3514L70.6859 56.9792L70.9556 55.9041C71.4029 56.3238 71.8895 56.5906 72.4154 56.7045C72.9412 56.8183 73.4596 56.7911 73.9706 56.6228C74.4727 56.4644 74.9247 56.1625 75.3266 55.717C75.7375 55.2617 76.0001 54.7716 76.1143 54.247C76.2196 53.7322 76.183 53.2155 76.0045 52.6967C75.8271 52.1968 75.5003 51.733 75.0241 51.3054L74.7265 51.0381C74.2504 50.6104 73.7306 50.3406 73.167 50.2288C72.6035 50.1169 72.0439 50.1699 71.4882 50.3877C70.9326 50.6054 70.4225 50.9717 69.958 51.4865C69.5561 51.9319 69.2638 52.3952 69.0811 52.8763C68.8984 53.3575 68.8308 53.8702 68.8783 54.4147L66.8349 54.3805C66.7399 53.65 66.8239 52.91 67.087 52.1606C67.3511 51.43 67.7958 50.7183 68.421 50.0253ZM59.0471 60.6234L60.6541 62.0667L61.0901 62.2702L63.9023 64.796C64.4479 65.286 65.0168 65.5013 65.6092 65.442C66.2114 65.3915 66.8118 65.0346 67.4102 64.3713C67.8122 63.9259 68.1402 63.423 68.3943 62.8627C68.6395 62.3123 68.7721 61.7772 68.7921 61.2575L70.8026 61.7461C70.7459 62.4657 70.5334 63.1889 70.1651 63.9155C69.7978 64.6609 69.3284 65.3504 68.7567 65.984C67.7206 67.1323 66.6434 67.7688 65.5252 67.8935C64.408 68.0371 63.274 67.5921 62.1234 66.5586L57.4661 62.3756L59.0471 60.6234ZM61.1938 58.0352C61.7297 57.4412 62.2979 57.0106 62.8982 56.7433C63.5084 56.485 64.1038 56.3924 64.6842 56.4657C65.2656 56.5577 65.7844 56.8087 66.2407 57.2185C66.6871 57.6195 66.9951 58.0842 67.1646 58.6129C67.3252 59.1514 67.2908 59.7567 67.0615 60.4289C66.8321 61.1011 66.3557 61.8381 65.6322 62.6399L63.5555 64.9415L62.3205 63.8323L64.2766 61.6643C64.8483 61.0308 65.1282 60.5116 65.1164 60.1067C65.1145 59.7107 64.9647 59.3791 64.6672 59.1118C64.3299 58.8089 63.9415 58.7019 63.5019 58.791C63.0624 58.8801 62.6282 59.1623 62.1995 59.6374C61.7886 60.0928 61.5266 60.5922 61.4133 61.1357C61.2911 61.6891 61.3619 62.2276 61.6257 62.7513L60.2284 62.0608C59.923 61.4638 59.8512 60.8169 60.0131 60.12C60.1661 59.433 60.5596 58.738 61.1938 58.0352ZM52.2249 67.9754C53.0109 67.1043 53.8415 66.6316 54.7166 66.5574C55.6016 66.492 56.4856 66.8559 57.3684 67.6488L64.4956 74.0503L62.8209 75.9064L55.7383 69.545C55.3613 69.2065 54.9839 69.0377 54.6058 69.0387C54.2189 69.0495 53.8691 69.2282 53.5565 69.5747C53.1813 69.9905 52.9778 70.435 52.946 70.9081L51.1528 70.2384C51.1707 69.8603 51.278 69.4727 51.4745 69.0758C51.6711 68.6788 51.9212 68.312 52.2249 67.9754ZM62.3714 69.7767L63.8594 71.1131L59.0897 76.3994L57.6017 75.063L62.3714 69.7767ZM49.0488 71.7044L56.9944 78.841L55.3197 80.6971L47.3741 73.5606L49.0488 71.7044ZM57.4597 80.9525C57.7723 80.606 58.1405 80.417 58.5641 80.3853C58.9789 80.3635 59.34 80.4907 59.6475 80.7669C59.9649 81.052 60.1296 81.397 60.1414 81.8019C60.1542 82.2256 60.0042 82.6107 59.6916 82.9572C59.379 83.3036 59.0203 83.4922 58.6155 83.5229C58.2116 83.5724 57.856 83.4591 57.5485 83.1829C57.2211 82.8888 57.0416 82.5305 57.01 82.1078C56.9883 81.694 57.1382 81.3089 57.4597 80.9525ZM42.9787 78.432L53.9924 82.1681L52.2507 84.0985L42.6031 80.7291L43.4605 79.7788L47.7355 89.1026L46.1278 90.8844L41.2503 80.3475L42.9787 78.432ZM33.5699 88.6507C34.3649 87.7697 35.2351 87.1534 36.1808 86.802C37.1274 86.4694 38.0735 86.3962 39.019 86.5823C39.9555 86.7783 40.8156 87.2282 41.5993 87.9321C42.3928 88.6448 42.9359 89.4462 43.2283 90.3362C43.5218 91.2449 43.5652 92.1621 43.3586 93.0877C43.1431 94.0232 42.678 94.8869 41.9635 95.6788C41.2668 96.451 40.4774 96.9875 39.5953 97.2885C38.7131 97.5894 37.8083 97.6369 36.8806 97.431C35.953 97.2251 35.0726 96.7479 34.2393 95.9995C34.16 95.9283 34.0751 95.8431 33.9849 95.7441C33.8857 95.655 33.7959 95.5654 33.7156 95.4754L39.6777 88.8676L40.9127 89.9768L35.8348 95.6046L36.1045 94.5295C36.5518 94.9492 37.0384 95.216 37.5643 95.3299C38.0901 95.4437 38.6085 95.4165 39.1195 95.2482C39.6216 95.0898 40.0736 94.7879 40.4755 94.3424C40.8864 93.887 41.149 93.397 41.2632 92.8724C41.3685 92.3576 41.3319 91.8408 41.1535 91.3221C40.976 90.8222 40.6492 90.3584 40.173 89.9308L39.8754 89.6635C39.3993 89.2358 38.8795 88.966 38.3159 88.8542C37.7524 88.7423 37.1928 88.7953 36.6371 89.0131C36.0815 89.2308 35.5714 89.5971 35.1069 90.1119C34.705 90.5573 34.4127 91.0206 34.23 91.5017C34.0473 91.9829 33.9797 92.4956 34.0272 93.0401L31.9838 93.0059C31.8888 92.2754 31.9728 91.5354 32.2359 90.786C32.5 90.0554 32.9447 89.3437 33.5699 88.6507Z" fill="#111111"/>
</svg>
