<svg width="154" height="50" viewBox="0 0 154 50" fill="none" xmlns="http://www.w3.org/2000/svg">
<path d="M0 24.9258C0 11.1597 11.1597 0 24.9258 0H128.968C142.734 0 153.894 11.1597 153.894 24.9258C153.894 38.692 142.734 49.8517 128.968 49.8517H24.9258C11.1597 49.8517 0 38.692 0 24.9258Z" fill="#A1D737"/>
<path d="M23.9 32L30.2 18H32.76L39.08 32H36.36L30.94 19.38H31.98L26.58 32H23.9ZM26.8 28.76L27.5 26.72H35.06L35.76 28.76H26.8ZM47.1205 21.2C47.9738 21.2 48.7338 21.3667 49.4005 21.7C50.0805 22.0333 50.6138 22.5467 51.0005 23.24C51.3871 23.92 51.5805 24.8 51.5805 25.88V32H49.0805V26.2C49.0805 25.2533 48.8538 24.5467 48.4005 24.08C47.9605 23.6133 47.3405 23.38 46.5405 23.38C45.9538 23.38 45.4338 23.5 44.9805 23.74C44.5271 23.98 44.1738 24.34 43.9205 24.82C43.6805 25.2867 43.5605 25.88 43.5605 26.6V32H41.0605V21.32H43.4405V24.2L43.0205 23.32C43.3938 22.64 43.9338 22.12 44.6405 21.76C45.3605 21.3867 46.1871 21.2 47.1205 21.2ZM55.1919 32V21.32H57.6919V32H55.1919ZM56.4519 19.56C55.9852 19.56 55.5985 19.4133 55.2919 19.12C54.9985 18.8267 54.8519 18.4733 54.8519 18.06C54.8519 17.6333 54.9985 17.28 55.2919 17C55.5985 16.7067 55.9852 16.56 56.4519 16.56C56.9185 16.56 57.2985 16.7 57.5919 16.98C57.8985 17.2467 58.0519 17.5867 58.0519 18C58.0519 18.44 57.9052 18.8133 57.6119 19.12C57.3185 19.4133 56.9319 19.56 56.4519 19.56ZM74.8931 21.2C75.7465 21.2 76.4998 21.3667 77.1531 21.7C77.8198 22.0333 78.3398 22.5467 78.7131 23.24C79.0865 23.92 79.2731 24.8 79.2731 25.88V32H76.7731V26.2C76.7731 25.2533 76.5665 24.5467 76.1531 24.08C75.7398 23.6133 75.1465 23.38 74.3731 23.38C73.8265 23.38 73.3398 23.5 72.9131 23.74C72.4998 23.98 72.1731 24.3333 71.9331 24.8C71.7065 25.2667 71.5931 25.86 71.5931 26.58V32H69.0931V26.2C69.0931 25.2533 68.8865 24.5467 68.4731 24.08C68.0598 23.6133 67.4665 23.38 66.6931 23.38C66.1465 23.38 65.6598 23.5 65.2331 23.74C64.8198 23.98 64.4931 24.3333 64.2531 24.8C64.0265 25.2667 63.9131 25.86 63.9131 26.58V32H61.4131V21.32H63.7931V24.16L63.3731 23.32C63.7331 22.6267 64.2531 22.1 64.9331 21.74C65.6265 21.38 66.4131 21.2 67.2931 21.2C68.2931 21.2 69.1598 21.4467 69.8931 21.94C70.6398 22.4333 71.1331 23.18 71.3731 24.18L70.3931 23.84C70.7398 23.04 71.3131 22.4 72.1131 21.92C72.9131 21.44 73.8398 21.2 74.8931 21.2ZM89.4878 32V29.84L89.3478 29.38V25.6C89.3478 24.8667 89.1278 24.3 88.6878 23.9C88.2478 23.4867 87.5811 23.28 86.6878 23.28C86.0878 23.28 85.4945 23.3733 84.9078 23.56C84.3345 23.7467 83.8478 24.0067 83.4478 24.34L82.4678 22.52C83.0411 22.08 83.7211 21.7533 84.5078 21.54C85.3078 21.3133 86.1345 21.2 86.9878 21.2C88.5345 21.2 89.7278 21.5733 90.5678 22.32C91.4211 23.0533 91.8478 24.1933 91.8478 25.74V32H89.4878ZM86.1278 32.14C85.3278 32.14 84.6278 32.0067 84.0278 31.74C83.4278 31.46 82.9611 31.08 82.6278 30.6C82.3078 30.1067 82.1478 29.5533 82.1478 28.94C82.1478 28.34 82.2878 27.8 82.5678 27.32C82.8611 26.84 83.3345 26.46 83.9878 26.18C84.6411 25.9 85.5078 25.76 86.5878 25.76H89.6878V27.42H86.7678C85.9145 27.42 85.3411 27.56 85.0478 27.84C84.7545 28.1067 84.6078 28.44 84.6078 28.84C84.6078 29.2933 84.7878 29.6533 85.1478 29.92C85.5078 30.1867 86.0078 30.32 86.6478 30.32C87.2611 30.32 87.8078 30.18 88.2878 29.9C88.7811 29.62 89.1345 29.2067 89.3478 28.66L89.7678 30.16C89.5278 30.7867 89.0945 31.2733 88.4678 31.62C87.8545 31.9667 87.0745 32.14 86.1278 32.14ZM99.5162 32.14C98.3429 32.14 97.4362 31.84 96.7962 31.24C96.1562 30.6267 95.8362 29.7267 95.8362 28.54V18.96H98.3362V28.48C98.3362 28.9867 98.4629 29.38 98.7162 29.66C98.9829 29.94 99.3496 30.08 99.8162 30.08C100.376 30.08 100.843 29.9333 101.216 29.64L101.916 31.42C101.623 31.66 101.263 31.84 100.836 31.96C100.41 32.08 99.9696 32.14 99.5162 32.14ZM94.0762 23.4V21.4H101.196V23.4H94.0762ZM109.081 32.14C107.895 32.14 106.855 31.9067 105.961 31.44C105.081 30.96 104.395 30.3067 103.901 29.48C103.421 28.6533 103.181 27.7133 103.181 26.66C103.181 25.5933 103.415 24.6533 103.881 23.84C104.361 23.0133 105.015 22.3667 105.841 21.9C106.681 21.4333 107.635 21.2 108.701 21.2C109.741 21.2 110.668 21.4267 111.481 21.88C112.295 22.3333 112.935 22.9733 113.401 23.8C113.868 24.6267 114.101 25.6 114.101 26.72C114.101 26.8267 114.095 26.9467 114.081 27.08C114.081 27.2133 114.075 27.34 114.061 27.46H105.161V25.8H112.741L111.761 26.32C111.775 25.7067 111.648 25.1667 111.381 24.7C111.115 24.2333 110.748 23.8667 110.281 23.6C109.828 23.3333 109.301 23.2 108.701 23.2C108.088 23.2 107.548 23.3333 107.081 23.6C106.628 23.8667 106.268 24.24 106.001 24.72C105.748 25.1867 105.621 25.74 105.621 26.38V26.78C105.621 27.42 105.768 27.9867 106.061 28.48C106.355 28.9733 106.768 29.3533 107.301 29.62C107.835 29.8867 108.448 30.02 109.141 30.02C109.741 30.02 110.281 29.9267 110.761 29.74C111.241 29.5533 111.668 29.26 112.041 28.86L113.381 30.4C112.901 30.96 112.295 31.3933 111.561 31.7C110.841 31.9933 110.015 32.14 109.081 32.14ZM121.463 32.14C120.436 32.14 119.509 31.9133 118.683 31.46C117.869 30.9933 117.229 30.3533 116.763 29.54C116.296 28.7267 116.063 27.7667 116.063 26.66C116.063 25.5533 116.296 24.5933 116.763 23.78C117.229 22.9667 117.869 22.3333 118.683 21.88C119.509 21.4267 120.436 21.2 121.463 21.2C122.356 21.2 123.156 21.4 123.863 21.8C124.569 22.1867 125.129 22.78 125.543 23.58C125.956 24.38 126.163 25.4067 126.163 26.66C126.163 27.9 125.963 28.9267 125.563 29.74C125.163 30.54 124.609 31.14 123.903 31.54C123.196 31.94 122.383 32.14 121.463 32.14ZM121.763 30C122.363 30 122.896 29.8667 123.363 29.6C123.843 29.3333 124.223 28.9467 124.503 28.44C124.796 27.9333 124.943 27.34 124.943 26.66C124.943 25.9667 124.796 25.3733 124.503 24.88C124.223 24.3733 123.843 23.9867 123.363 23.72C122.896 23.4533 122.363 23.32 121.763 23.32C121.163 23.32 120.623 23.4533 120.143 23.72C119.676 23.9867 119.296 24.3733 119.003 24.88C118.723 25.3733 118.583 25.9667 118.583 26.66C118.583 27.34 118.723 27.9333 119.003 28.44C119.296 28.9467 119.676 29.3333 120.143 29.6C120.623 29.8667 121.163 30 121.763 30ZM125.003 32V29.48L125.103 26.64L124.903 23.8V17.16H127.383V32H125.003Z" fill="#111111"/>
</svg>
