<svg width="112" height="50" viewBox="0 0 112 50" fill="none" xmlns="http://www.w3.org/2000/svg">
<path d="M111.923 24.9258C111.923 38.692 100.763 49.8517 86.9971 49.8517H24.9259C11.1597 49.8517 1.52588e-05 38.692 1.52588e-05 24.9258C1.52588e-05 11.1597 11.1597 0 24.9259 0H86.9971C100.763 0 111.923 11.1597 111.923 24.9258Z" fill="#A1D737"/>
<path d="M68.0699 31.5517L71.8289 20.3167L75.5459 31.5517H78.0659L81.8669 20.3797L85.5209 31.5517H88.3559L83.4839 16.8517H80.5649L76.8689 27.7297L73.2359 16.8517H70.3379L65.4659 31.5517H68.0699ZM56.3833 28.1917C57.9373 28.1917 59.2603 27.6877 60.1213 26.7637V32.4337H62.7463V16.8517H60.1213V22.5217C60.1213 24.7687 58.8613 25.9027 56.9923 25.9027C55.3123 25.9027 54.3253 24.9367 54.3253 22.9417V16.8517H51.7003V23.2777C51.7003 26.6587 53.6953 28.1917 56.3833 28.1917ZM42.7877 16.7047C39.3017 16.7047 36.8027 19.0987 36.8027 22.4587C36.8027 25.8187 39.3017 28.1917 42.7877 28.1917C46.2317 28.1917 48.7517 25.8187 48.7517 22.4587C48.7517 19.0987 46.2317 16.7047 42.7877 16.7047ZM42.7877 18.9517C44.6777 18.9517 46.1057 20.3167 46.1057 22.4587C46.1057 24.6007 44.6777 25.9657 42.7877 25.9657C40.8767 25.9657 39.4487 24.6007 39.4487 22.4587C39.4487 20.3167 40.8767 18.9517 42.7877 18.9517ZM29.7121 28.1917C31.5181 28.1917 33.2611 27.7297 34.4581 26.8057L33.4291 24.8947C32.5891 25.5877 31.2871 26.0077 30.0271 26.0077C28.1581 26.0077 27.2341 25.1047 27.2341 23.5717V23.4037H30.1321C33.5341 23.4037 34.7941 21.9337 34.7941 20.0647C34.7941 18.1117 33.1771 16.7047 30.6151 16.7047C28.9351 16.7047 27.7171 17.2507 27.0871 18.2167V16.8517H24.6091V23.4247C24.6091 26.6587 26.4781 28.1917 29.7121 28.1917ZM30.0691 18.6157C31.4131 18.6157 32.2111 19.2247 32.2111 20.1697C32.2111 20.9887 31.7281 21.6607 29.9431 21.6607H27.2341V20.3587C27.6751 19.2037 28.7881 18.6157 30.0691 18.6157Z" fill="#111111"/>
</svg>
