<svg width="195" height="103" viewBox="0 0 195 103" fill="none" xmlns="http://www.w3.org/2000/svg">
<path d="M7.32198 23.8328C11.3658 10.6703 25.3185 3.26451 38.4861 7.29148L170.424 47.641C183.591 51.668 190.988 65.6028 186.944 78.7653C182.9 91.9278 168.947 99.3336 155.78 95.3066L23.8422 54.9571C10.6745 50.9302 3.27816 36.9953 7.32198 23.8328Z" fill="#0D171D"/>
<path d="M38.7912 42.0472C37.8942 41.7729 37.0656 41.395 36.3055 40.9137C35.5628 40.423 35.0019 39.9367 34.6227 39.4548L36.1725 37.8425C36.5599 38.2977 37.0575 38.7281 37.6652 39.1335C38.2729 39.539 38.9115 39.8441 39.5809 40.0488C40.3708 40.2903 40.9726 40.3573 41.3865 40.2496C41.8138 40.146 42.0829 39.9136 42.1939 39.5523C42.2844 39.2578 42.2317 39.0002 42.036 38.7793C41.8443 38.545 41.5667 38.3283 41.2031 38.1293C40.8395 37.9302 40.427 37.7236 39.9656 37.5093C39.5176 37.2991 39.0691 37.0667 38.62 36.8123C38.1884 36.5485 37.8114 36.2502 37.4889 35.9174C37.1706 35.5711 36.9485 35.1738 36.8226 34.7254C36.6968 34.277 36.7284 33.745 36.9175 33.1293C37.1272 32.4468 37.5022 31.9174 38.0426 31.5409C38.5871 31.1511 39.2485 30.9289 40.0269 30.8741C40.8228 30.8101 41.7027 30.9255 42.6667 31.2202C43.3896 31.4413 44.0946 31.7448 44.7816 32.1306C45.4686 32.5163 46.0078 32.9301 46.3994 33.3719L44.8495 34.9842C44.4354 34.5208 43.9837 34.1557 43.4944 33.889C43.0227 33.613 42.5324 33.3972 42.0237 33.2416C41.2606 33.0082 40.6567 32.9479 40.2119 33.0608C39.7805 33.1778 39.5114 33.4102 39.4045 33.7582C39.3058 34.0794 39.3523 34.3571 39.544 34.5914C39.7356 34.8257 40.0112 35.049 40.3706 35.2614C40.7301 35.4739 41.1338 35.6852 41.5819 35.8954C42.0474 36.0963 42.4959 36.3286 42.9275 36.5924C43.3591 36.8561 43.7361 37.1544 44.0586 37.4873C44.3985 37.8109 44.6314 38.1969 44.7573 38.6453C44.8832 39.0937 44.8536 39.619 44.6686 40.2212C44.463 40.8904 44.0833 41.4111 43.5296 41.7834C42.9892 42.1598 42.3144 42.378 41.5051 42.438C40.6999 42.4845 39.7953 42.3543 38.7912 42.0472ZM50.772 45.7112C49.8617 45.4328 49.1098 45.0199 48.5164 44.4724C47.9271 43.9115 47.5453 43.2238 47.3708 42.4091C47.2005 41.5811 47.2797 40.6318 47.6087 39.5612L49.4897 33.4386L51.9999 34.2063L50.2237 39.9876C49.9277 40.9512 49.9199 41.7394 50.2003 42.3522C50.4982 42.9557 51.0488 43.3802 51.8521 43.6259C52.4411 43.8061 52.9869 43.8412 53.4893 43.7313C54.0051 43.6255 54.4575 43.3686 54.8465 42.9605C55.2489 42.5566 55.559 41.9999 55.7769 41.2906L57.4421 35.8707L59.9523 36.6384L56.659 47.3579L54.2693 46.627L55.1574 43.7364L55.3077 44.7486C54.7325 45.334 54.0392 45.7075 53.2279 45.8693C52.4207 46.0178 51.6021 45.9651 50.772 45.7112ZM66.2676 50.4501C65.3973 50.184 64.6624 49.7396 64.0628 49.117C63.4766 48.4986 63.0926 47.7223 62.9109 46.7883C62.7467 45.8451 62.8558 44.7512 63.2381 43.5066C63.6246 42.2486 64.142 41.2795 64.7903 40.5994C65.452 39.9234 66.1973 39.4998 67.0261 39.3287C67.859 39.1442 68.7306 39.1912 69.641 39.4696C70.6986 39.7931 71.5592 40.3051 72.2227 41.0058C72.8996 41.7106 73.3469 42.5428 73.5647 43.5024C73.7958 44.4662 73.7408 45.5034 73.3996 46.6142C73.0583 47.7249 72.5192 48.6215 71.7824 49.3038C71.063 49.9768 70.2251 50.416 69.2686 50.6212C68.3256 50.8306 67.3252 50.7735 66.2676 50.4501ZM59.1701 52.3861L63.6598 37.7722L66.0495 38.503L65.2724 41.0323L64.3164 43.8583L63.6415 46.7702L61.6803 53.1537L59.1701 52.3861ZM66.6463 48.2162C67.2488 48.4004 67.8254 48.4304 68.3762 48.306C68.9404 48.1858 69.4412 47.9144 69.8786 47.4918C70.3159 47.0692 70.6395 46.5167 70.8492 45.8342C71.0629 45.1383 71.1053 44.4998 70.9763 43.9186C70.8514 43.3241 70.5891 42.8193 70.1893 42.4043C69.803 41.9933 69.3086 41.6957 68.7061 41.5115C68.1037 41.3272 67.5204 41.2952 66.9562 41.4155C66.392 41.5358 65.8912 41.8072 65.4538 42.2297C65.0205 42.6389 64.697 43.1914 64.4832 43.8873C64.2735 44.5699 64.2311 45.2084 64.356 45.8029C64.4809 46.3974 64.7433 46.9022 65.143 47.3173C65.5427 47.7323 66.0438 48.032 66.6463 48.2162ZM79.5517 54.5127C78.3602 54.1483 77.3879 53.5947 76.6348 52.852C75.8992 52.1 75.4112 51.2334 75.1707 50.2522C74.9437 49.2751 74.9925 48.2579 75.3174 47.2007C75.6463 46.1301 76.1704 45.2582 76.8898 44.5852C77.6267 43.9029 78.4821 43.4544 79.456 43.2399C80.4434 43.0294 81.4726 43.088 82.5436 43.4155C83.5879 43.7349 84.4484 44.2469 85.1253 44.9517C85.8022 45.6565 86.2474 46.4954 86.4611 47.4684C86.6748 48.4414 86.6089 49.49 86.2636 50.6142C86.2307 50.7212 86.187 50.8396 86.1325 50.9693C86.0914 51.1032 86.0456 51.2283 85.9952 51.3446L77.0588 48.6116L77.5706 46.9455L85.1817 49.2731L84.0373 49.4941C84.2398 48.8826 84.2792 48.3017 84.1553 47.7514C84.0315 47.2012 83.7763 46.7205 83.39 46.3096C83.017 45.9027 82.5293 45.6072 81.9269 45.4229C81.311 45.2346 80.7277 45.2026 80.1769 45.3269C79.6395 45.4554 79.1629 45.7196 78.7471 46.1194C78.3488 46.51 78.051 47.0265 77.8537 47.6689L77.7303 48.0704C77.533 48.7127 77.5055 49.3265 77.6479 49.9118C77.7903 50.497 78.0882 51.0053 78.5415 51.4368C78.9948 51.8682 79.5695 52.1904 80.2657 52.4033C80.8681 52.5875 81.4391 52.6597 81.9786 52.6197C82.5182 52.5797 83.037 52.4163 83.5352 52.1295L84.4058 54.0867C83.7512 54.5014 83.0084 54.75 82.1775 54.8326C81.3641 54.9059 80.4889 54.7993 79.5517 54.5127ZM87.4674 56.7798L90.7607 46.0603L93.1504 46.7911L92.2439 49.742L92.2279 48.7928C92.7712 48.1684 93.4419 47.7733 94.2398 47.6074C95.0511 47.4456 95.9721 47.5223 97.003 47.8375L96.2691 50.2264C96.1702 50.1668 96.0739 50.1227 95.9802 50.0941C95.8906 50.052 95.799 50.0167 95.7052 49.988C94.7547 49.6973 93.9119 49.747 93.177 50.1371C92.4461 50.5139 91.9121 51.2509 91.575 52.3483L89.9777 57.5475L87.4674 56.7798ZM102.124 61.4158C101.254 61.1497 100.519 60.7053 99.9193 60.0828C99.3331 59.4643 98.9491 58.6881 98.7674 57.7541C98.6032 56.8108 98.7122 55.7169 99.0946 54.4723C99.4811 53.2143 99.9985 52.2453 100.647 51.5651C101.309 50.8891 102.054 50.4655 102.883 50.2944C103.715 50.11 104.587 50.1569 105.497 50.4353C106.555 50.7588 107.416 51.2709 108.079 51.9715C108.756 52.6763 109.203 53.5085 109.421 54.4681C109.652 55.4319 109.597 56.4691 109.256 57.5799C108.915 58.6907 108.376 59.5872 107.639 60.2695C106.919 60.9426 106.082 61.3817 105.125 61.587C104.182 61.7963 103.182 61.7393 102.124 61.4158ZM95.0265 63.3518L99.5162 48.7379L101.906 49.4687L101.129 51.9981L100.173 54.824L99.4979 57.7359L97.5368 64.1195L95.0265 63.3518ZM102.503 59.1819C103.105 59.3662 103.682 59.3961 104.233 59.2718C104.797 59.1515 105.298 58.8801 105.735 58.4575C106.172 58.035 106.496 57.4824 106.706 56.7999C106.919 56.104 106.962 55.4655 106.833 54.8844C106.708 54.2898 106.446 53.7851 106.046 53.37C105.659 52.9591 105.165 52.6615 104.563 52.4772C103.96 52.293 103.377 52.261 102.813 52.3812C102.248 52.5015 101.748 52.7729 101.31 53.1955C100.877 53.6046 100.553 54.1572 100.34 54.8531C100.13 55.5356 100.088 56.1741 100.213 56.7686C100.337 57.3632 100.6 57.8679 100.999 58.283C101.399 58.698 101.9 58.9977 102.503 59.1819ZM115.187 65.4109C114.089 65.0751 113.184 64.5421 112.471 63.8116C111.762 63.0678 111.288 62.2053 111.047 61.2241C110.807 60.2429 110.849 59.2236 111.174 58.1664C111.503 57.0958 112.04 56.2281 112.786 55.5632C113.537 54.885 114.412 54.4427 115.413 54.2363C116.414 54.03 117.463 54.0947 118.561 54.4304C119.672 54.7702 120.584 55.3053 121.297 56.0358C122.023 56.7703 122.502 57.6194 122.733 58.5832C122.978 59.551 122.933 60.5769 122.6 61.6609C122.276 62.7182 121.738 63.5859 120.988 64.2641C120.251 64.9465 119.373 65.3954 118.355 65.6111C117.354 65.8174 116.298 65.7507 115.187 65.4109ZM115.847 63.263C116.463 63.4513 117.053 63.4853 117.617 63.3651C118.181 63.2448 118.676 62.9714 119.099 62.5447C119.537 62.1221 119.86 61.5696 120.07 60.8871C120.284 60.1912 120.326 59.5527 120.197 58.9715C120.086 58.3811 119.83 57.8784 119.43 57.4633C119.031 57.0483 118.53 56.7486 117.927 56.5644C117.311 56.376 116.721 56.342 116.157 56.4623C115.606 56.5866 115.112 56.8601 114.675 57.2826C114.241 57.6918 113.918 58.2443 113.704 58.9402C113.494 59.6228 113.452 60.2613 113.577 60.8558C113.702 61.4503 113.958 61.9531 114.344 62.364C114.744 62.7791 115.245 63.0787 115.847 63.263ZM125.85 68.5182L125.208 56.5949L127.577 57.3196L128.046 67.8063L126.922 67.4623L133.361 59.0884L135.47 59.7332L135.999 70.2383L134.894 69.9005L141.273 61.5081L143.502 62.1898L136.253 71.6995L133.843 70.9625L133.282 61.6336L134.025 61.8608L128.26 69.2552L125.85 68.5182ZM147.059 75.158C145.867 74.7936 144.895 74.24 144.142 73.4973C143.406 72.7453 142.918 71.8787 142.678 70.8975C142.451 69.9203 142.5 68.9032 142.825 67.8459C143.153 66.7753 143.678 65.9035 144.397 65.2304C145.134 64.5481 145.989 64.0997 146.963 63.8851C147.951 63.6747 148.98 63.7332 150.051 64.0608C151.095 64.3801 151.956 64.8922 152.632 65.597C153.309 66.3017 153.755 67.1406 153.968 68.1137C154.182 69.0867 154.116 70.1353 153.771 71.2594C153.738 71.3665 153.694 71.4849 153.64 71.6146C153.599 71.7484 153.553 71.8735 153.502 71.9899L144.566 69.2569L145.078 67.5908L152.689 69.9184L151.545 70.1394C151.747 69.5279 151.786 68.947 151.663 68.3967C151.539 67.8464 151.284 67.3658 150.897 66.9548C150.524 66.548 150.037 66.2524 149.434 66.0682C148.818 65.8798 148.235 65.8478 147.684 65.9722C147.147 66.1006 146.67 66.3648 146.254 66.7647C145.856 67.1553 145.558 67.6718 145.361 68.3142L145.238 68.7156C145.04 69.358 145.013 69.9718 145.155 70.557C145.298 71.1423 145.595 71.6506 146.049 72.082C146.502 72.5135 147.077 72.8356 147.773 73.0485C148.375 73.2328 148.946 73.3049 149.486 73.265C150.025 73.225 150.544 73.0616 151.042 72.7748L151.913 74.7319C151.258 75.1466 150.516 75.3953 149.685 75.4779C148.871 75.5512 147.996 75.4446 147.059 75.158ZM154.975 77.425L158.268 66.7055L160.658 67.4364L159.751 70.3872L159.735 69.4381C160.278 68.8137 160.949 68.4185 161.747 68.2526C162.558 68.0908 163.479 68.1675 164.51 68.4828L163.776 70.8716C163.677 70.8121 163.581 70.768 163.487 70.7393C163.398 70.6973 163.306 70.6619 163.212 70.6333C162.262 70.3426 161.419 70.3923 160.684 70.7824C159.953 71.1591 159.419 71.8962 159.082 72.9936L157.485 78.1927L154.975 77.425Z" fill="#A1D737"/>
</svg>
