<svg width="219" height="50" viewBox="0 0 219 50" fill="none" xmlns="http://www.w3.org/2000/svg">
<path d="M0 24.9258C0 11.1597 11.1597 0 24.9258 0H193.923C207.69 0 218.849 11.1597 218.849 24.9258C218.849 38.692 207.69 49.8517 193.923 49.8517H24.9259C11.1597 49.8517 0 38.692 0 24.9258Z" fill="#0D171D"/>
<path d="M29.943 33.147C28.711 33.147 27.759 32.832 27.087 32.202C26.415 31.558 26.079 30.613 26.079 29.367V19.308H28.704V29.304C28.704 29.836 28.837 30.249 29.103 30.543C29.383 30.837 29.768 30.984 30.258 30.984C30.846 30.984 31.336 30.83 31.728 30.522L32.463 32.391C32.155 32.643 31.777 32.832 31.329 32.958C30.881 33.084 30.419 33.147 29.943 33.147ZM24.231 23.97V21.87H31.707V23.97H24.231ZM41.4254 21.66C42.3214 21.66 43.1194 21.835 43.8194 22.185C44.5334 22.535 45.0934 23.074 45.4994 23.802C45.9054 24.516 46.1084 25.44 46.1084 26.574V33H43.4834V26.91C43.4834 25.916 43.2454 25.174 42.7694 24.684C42.3074 24.194 41.6564 23.949 40.8164 23.949C40.2004 23.949 39.6544 24.075 39.1784 24.327C38.7024 24.579 38.3314 24.957 38.0654 25.461C37.8134 25.951 37.6874 26.574 37.6874 27.33V33H35.0624V17.418H37.6874V24.81L37.1204 23.886C37.5124 23.172 38.0794 22.626 38.8214 22.248C39.5774 21.856 40.4454 21.66 41.4254 21.66ZM55.1699 33.147C53.9239 33.147 52.8319 32.902 51.8939 32.412C50.9699 31.908 50.2489 31.222 49.7309 30.354C49.2269 29.486 48.9749 28.499 48.9749 27.393C48.9749 26.273 49.2199 25.286 49.7099 24.432C50.2139 23.564 50.8999 22.885 51.7679 22.395C52.6499 21.905 53.6509 21.66 54.7709 21.66C55.8629 21.66 56.8359 21.898 57.6899 22.374C58.5439 22.85 59.2159 23.522 59.7059 24.39C60.1959 25.258 60.4409 26.28 60.4409 27.456C60.4409 27.568 60.4339 27.694 60.4199 27.834C60.4199 27.974 60.4129 28.107 60.3989 28.233H51.0539V26.49H59.0129L57.9839 27.036C57.9979 26.392 57.8649 25.825 57.5849 25.335C57.3049 24.845 56.9199 24.46 56.4299 24.18C55.9539 23.9 55.4009 23.76 54.7709 23.76C54.1269 23.76 53.5599 23.9 53.0699 24.18C52.5939 24.46 52.2159 24.852 51.9359 25.356C51.6699 25.846 51.5369 26.427 51.5369 27.099V27.519C51.5369 28.191 51.6909 28.786 51.9989 29.304C52.3069 29.822 52.7409 30.221 53.3009 30.501C53.8609 30.781 54.5049 30.921 55.2329 30.921C55.8629 30.921 56.4299 30.823 56.9339 30.627C57.4379 30.431 57.8859 30.123 58.2779 29.703L59.6849 31.32C59.1809 31.908 58.5439 32.363 57.7739 32.685C57.0179 32.993 56.1499 33.147 55.1699 33.147ZM76.5551 33V30.732L76.4081 30.249V26.28C76.4081 25.51 76.1771 24.915 75.7151 24.495C75.2531 24.061 74.5531 23.844 73.6151 23.844C72.9851 23.844 72.3621 23.942 71.7461 24.138C71.1441 24.334 70.6331 24.607 70.2131 24.957L69.1841 23.046C69.7861 22.584 70.5001 22.241 71.3261 22.017C72.1661 21.779 73.0341 21.66 73.9301 21.66C75.5541 21.66 76.8071 22.052 77.6891 22.836C78.5851 23.606 79.0331 24.803 79.0331 26.427V33H76.5551ZM73.0271 33.147C72.1871 33.147 71.4521 33.007 70.8221 32.727C70.1921 32.433 69.7021 32.034 69.3521 31.53C69.0161 31.012 68.8481 30.431 68.8481 29.787C68.8481 29.157 68.9951 28.59 69.2891 28.086C69.5971 27.582 70.0941 27.183 70.7801 26.889C71.4661 26.595 72.3761 26.448 73.5101 26.448H76.7651V28.191H73.6991C72.8031 28.191 72.2011 28.338 71.8931 28.632C71.5851 28.912 71.4311 29.262 71.4311 29.682C71.4311 30.158 71.6201 30.536 71.9981 30.816C72.3761 31.096 72.9011 31.236 73.5731 31.236C74.2171 31.236 74.7911 31.089 75.2951 30.795C75.8131 30.501 76.1841 30.067 76.4081 29.493L76.8491 31.068C76.5971 31.726 76.1421 32.237 75.4841 32.601C74.8401 32.965 74.0211 33.147 73.0271 33.147ZM87.6084 33.147C86.5304 33.147 85.5574 32.909 84.6894 32.433C83.8354 31.943 83.1634 31.271 82.6734 30.417C82.1834 29.563 81.9384 28.555 81.9384 27.393C81.9384 26.231 82.1834 25.223 82.6734 24.369C83.1634 23.515 83.8354 22.85 84.6894 22.374C85.5574 21.898 86.5304 21.66 87.6084 21.66C88.5464 21.66 89.3864 21.87 90.1284 22.29C90.8704 22.696 91.4584 23.319 91.8924 24.159C92.3264 24.999 92.5434 26.077 92.5434 27.393C92.5434 28.695 92.3334 29.773 91.9134 30.627C91.4934 31.467 90.9124 32.097 90.1704 32.517C89.4284 32.937 88.5744 33.147 87.6084 33.147ZM87.9234 30.9C88.5534 30.9 89.1134 30.76 89.6034 30.48C90.1074 30.2 90.5064 29.794 90.8004 29.262C91.1084 28.73 91.2624 28.107 91.2624 27.393C91.2624 26.665 91.1084 26.042 90.8004 25.524C90.5064 24.992 90.1074 24.586 89.6034 24.306C89.1134 24.026 88.5534 23.886 87.9234 23.886C87.2934 23.886 86.7264 24.026 86.2224 24.306C85.7324 24.586 85.3334 24.992 85.0254 25.524C84.7314 26.042 84.5844 26.665 84.5844 27.393C84.5844 28.107 84.7314 28.73 85.0254 29.262C85.3334 29.794 85.7324 30.2 86.2224 30.48C86.7264 30.76 87.2934 30.9 87.9234 30.9ZM91.3254 33V30.354L91.4304 27.372L91.2204 24.39V17.418H93.8244V33H91.3254ZM100.701 33L95.8924 21.786H98.6224L102.759 31.677H101.415L105.699 21.786H108.219L103.41 33H100.701ZM115.263 33.147C114.017 33.147 112.925 32.902 111.987 32.412C111.063 31.908 110.342 31.222 109.824 30.354C109.32 29.486 109.068 28.499 109.068 27.393C109.068 26.273 109.313 25.286 109.803 24.432C110.307 23.564 110.993 22.885 111.861 22.395C112.743 21.905 113.744 21.66 114.864 21.66C115.956 21.66 116.929 21.898 117.783 22.374C118.637 22.85 119.309 23.522 119.799 24.39C120.289 25.258 120.534 26.28 120.534 27.456C120.534 27.568 120.527 27.694 120.513 27.834C120.513 27.974 120.506 28.107 120.492 28.233H111.147V26.49H119.106L118.077 27.036C118.091 26.392 117.958 25.825 117.678 25.335C117.398 24.845 117.013 24.46 116.523 24.18C116.047 23.9 115.494 23.76 114.864 23.76C114.22 23.76 113.653 23.9 113.163 24.18C112.687 24.46 112.309 24.852 112.029 25.356C111.763 25.846 111.63 26.427 111.63 27.099V27.519C111.63 28.191 111.784 28.786 112.092 29.304C112.4 29.822 112.834 30.221 113.394 30.501C113.954 30.781 114.598 30.921 115.326 30.921C115.956 30.921 116.523 30.823 117.027 30.627C117.531 30.431 117.979 30.123 118.371 29.703L119.778 31.32C119.274 31.908 118.637 32.363 117.867 32.685C117.111 32.993 116.243 33.147 115.263 33.147ZM129.859 21.66C130.755 21.66 131.553 21.835 132.253 22.185C132.967 22.535 133.527 23.074 133.933 23.802C134.339 24.516 134.542 25.44 134.542 26.574V33H131.917V26.91C131.917 25.916 131.679 25.174 131.203 24.684C130.741 24.194 130.09 23.949 129.25 23.949C128.634 23.949 128.088 24.075 127.612 24.327C127.136 24.579 126.765 24.957 126.499 25.461C126.247 25.951 126.121 26.574 126.121 27.33V33H123.496V21.786H125.995V24.81L125.554 23.886C125.946 23.172 126.513 22.626 127.255 22.248C128.011 21.856 128.879 21.66 129.859 21.66ZM142.533 33.147C141.301 33.147 140.349 32.832 139.677 32.202C139.005 31.558 138.669 30.613 138.669 29.367V19.308H141.294V29.304C141.294 29.836 141.427 30.249 141.693 30.543C141.973 30.837 142.358 30.984 142.848 30.984C143.436 30.984 143.926 30.83 144.318 30.522L145.053 32.391C144.745 32.643 144.367 32.832 143.919 32.958C143.471 33.084 143.009 33.147 142.533 33.147ZM136.821 23.97V21.87H144.297V23.97H136.821ZM152.398 33.147C151.446 33.147 150.606 32.972 149.878 32.622C149.15 32.258 148.583 31.712 148.177 30.984C147.771 30.242 147.568 29.311 147.568 28.191V21.786H150.193V27.834C150.193 28.842 150.417 29.598 150.865 30.102C151.327 30.592 151.978 30.837 152.818 30.837C153.434 30.837 153.966 30.711 154.414 30.459C154.876 30.207 155.233 29.829 155.485 29.325C155.751 28.821 155.884 28.198 155.884 27.456V21.786H158.509V33H156.01V29.976L156.451 30.9C156.073 31.628 155.52 32.188 154.792 32.58C154.064 32.958 153.266 33.147 152.398 33.147ZM162.386 33V21.786H164.885V24.873L164.591 23.97C164.927 23.214 165.452 22.64 166.166 22.248C166.894 21.856 167.797 21.66 168.875 21.66V24.159C168.763 24.131 168.658 24.117 168.56 24.117C168.462 24.103 168.364 24.096 168.266 24.096C167.272 24.096 166.481 24.39 165.893 24.978C165.305 25.552 165.011 26.413 165.011 27.561V33H162.386ZM176.71 33.147C175.464 33.147 174.372 32.902 173.434 32.412C172.51 31.908 171.789 31.222 171.271 30.354C170.767 29.486 170.515 28.499 170.515 27.393C170.515 26.273 170.76 25.286 171.25 24.432C171.754 23.564 172.44 22.885 173.308 22.395C174.19 21.905 175.191 21.66 176.311 21.66C177.403 21.66 178.376 21.898 179.23 22.374C180.084 22.85 180.756 23.522 181.246 24.39C181.736 25.258 181.981 26.28 181.981 27.456C181.981 27.568 181.974 27.694 181.96 27.834C181.96 27.974 181.953 28.107 181.939 28.233H172.594V26.49H180.553L179.524 27.036C179.538 26.392 179.405 25.825 179.125 25.335C178.845 24.845 178.46 24.46 177.97 24.18C177.494 23.9 176.941 23.76 176.311 23.76C175.667 23.76 175.1 23.9 174.61 24.18C174.134 24.46 173.756 24.852 173.476 25.356C173.21 25.846 173.077 26.427 173.077 27.099V27.519C173.077 28.191 173.231 28.786 173.539 29.304C173.847 29.822 174.281 30.221 174.841 30.501C175.401 30.781 176.045 30.921 176.773 30.921C177.403 30.921 177.97 30.823 178.474 30.627C178.978 30.431 179.426 30.123 179.818 29.703L181.225 31.32C180.721 31.908 180.084 32.363 179.314 32.685C178.558 32.993 177.69 33.147 176.71 33.147ZM188.408 33.147C187.47 33.147 186.567 33.028 185.699 32.79C184.845 32.538 184.166 32.237 183.662 31.887L184.67 29.892C185.174 30.214 185.776 30.48 186.476 30.69C187.176 30.9 187.876 31.005 188.576 31.005C189.402 31.005 189.997 30.893 190.361 30.669C190.739 30.445 190.928 30.144 190.928 29.766C190.928 29.458 190.802 29.227 190.55 29.073C190.298 28.905 189.969 28.779 189.563 28.695C189.157 28.611 188.702 28.534 188.198 28.464C187.708 28.394 187.211 28.303 186.707 28.191C186.217 28.065 185.769 27.89 185.363 27.666C184.957 27.428 184.628 27.113 184.376 26.721C184.124 26.329 183.998 25.811 183.998 25.167C183.998 24.453 184.201 23.837 184.607 23.319C185.013 22.787 185.58 22.381 186.308 22.101C187.05 21.807 187.925 21.66 188.933 21.66C189.689 21.66 190.452 21.744 191.222 21.912C191.992 22.08 192.629 22.318 193.133 22.626L192.125 24.621C191.593 24.299 191.054 24.082 190.508 23.97C189.976 23.844 189.444 23.781 188.912 23.781C188.114 23.781 187.519 23.9 187.127 24.138C186.749 24.376 186.56 24.677 186.56 25.041C186.56 25.377 186.686 25.629 186.938 25.797C187.19 25.965 187.519 26.098 187.925 26.196C188.331 26.294 188.779 26.378 189.269 26.448C189.773 26.504 190.27 26.595 190.76 26.721C191.25 26.847 191.698 27.022 192.104 27.246C192.524 27.456 192.86 27.757 193.112 28.149C193.364 28.541 193.49 29.052 193.49 29.682C193.49 30.382 193.28 30.991 192.86 31.509C192.454 32.027 191.873 32.433 191.117 32.727C190.361 33.007 189.458 33.147 188.408 33.147Z" fill="#FAFAFA"/>
</svg>
