<svg width="214" height="50" viewBox="0 0 214 50" fill="none" xmlns="http://www.w3.org/2000/svg">
<path d="M0 24.9258C0 11.1597 11.1597 0 24.9258 0H188.927C202.693 0 213.853 11.1597 213.853 24.9258C213.853 38.692 202.693 49.8517 188.927 49.8517H24.9259C11.1597 49.8517 0 38.692 0 24.9258Z" fill="#0D171D"/>
<path d="M23.974 33V18.3H30.022C31.324 18.3 32.437 18.51 33.361 18.93C34.299 19.35 35.02 19.952 35.524 20.736C36.028 21.52 36.28 22.451 36.28 23.529C36.28 24.607 36.028 25.538 35.524 26.322C35.02 27.092 34.299 27.687 33.361 28.107C32.437 28.513 31.324 28.716 30.022 28.716H25.486L26.704 27.477V33H23.974ZM33.592 33L29.875 27.666H32.794L36.532 33H33.592ZM26.704 27.771L25.486 26.469H29.896C31.1 26.469 32.003 26.21 32.605 25.692C33.221 25.174 33.529 24.453 33.529 23.529C33.529 22.591 33.221 21.87 32.605 21.366C32.003 20.862 31.1 20.61 29.896 20.61H25.486L26.704 19.266V27.771ZM39.5224 33V21.786H42.1474V33H39.5224ZM40.8454 19.938C40.3554 19.938 39.9494 19.784 39.6274 19.476C39.3194 19.168 39.1654 18.797 39.1654 18.363C39.1654 17.915 39.3194 17.544 39.6274 17.25C39.9494 16.942 40.3554 16.788 40.8454 16.788C41.3354 16.788 41.7344 16.935 42.0424 17.229C42.3644 17.509 42.5254 17.866 42.5254 18.3C42.5254 18.762 42.3714 19.154 42.0634 19.476C41.7554 19.784 41.3494 19.938 40.8454 19.938ZM51.1777 33.147C50.0017 33.147 48.9517 32.902 48.0277 32.412C47.1177 31.908 46.4037 31.222 45.8857 30.354C45.3677 29.486 45.1087 28.499 45.1087 27.393C45.1087 26.273 45.3677 25.286 45.8857 24.432C46.4037 23.564 47.1177 22.885 48.0277 22.395C48.9517 21.905 50.0017 21.66 51.1777 21.66C52.2697 21.66 53.2287 21.884 54.0547 22.332C54.8947 22.766 55.5317 23.41 55.9657 24.264L53.9497 25.44C53.6137 24.908 53.2007 24.516 52.7107 24.264C52.2347 24.012 51.7167 23.886 51.1567 23.886C50.5127 23.886 49.9317 24.026 49.4137 24.306C48.8957 24.586 48.4897 24.992 48.1957 25.524C47.9017 26.042 47.7547 26.665 47.7547 27.393C47.7547 28.121 47.9017 28.751 48.1957 29.283C48.4897 29.801 48.8957 30.2 49.4137 30.48C49.9317 30.76 50.5127 30.9 51.1567 30.9C51.7167 30.9 52.2347 30.774 52.7107 30.522C53.2007 30.27 53.6137 29.878 53.9497 29.346L55.9657 30.522C55.5317 31.362 54.8947 32.013 54.0547 32.475C53.2287 32.923 52.2697 33.147 51.1777 33.147ZM60.7143 30.501L60.7773 27.204L66.6363 21.786H69.7863L64.8093 26.784L63.4233 27.939L60.7143 30.501ZM58.5723 33V17.418H61.1973V33H58.5723ZM67.0353 33L62.9403 27.939L64.5993 25.839L70.2273 33H67.0353ZM85.5156 33V30.732L85.3686 30.249V26.28C85.3686 25.51 85.1376 24.915 84.6756 24.495C84.2136 24.061 83.5136 23.844 82.5756 23.844C81.9456 23.844 81.3226 23.942 80.7066 24.138C80.1046 24.334 79.5936 24.607 79.1736 24.957L78.1446 23.046C78.7466 22.584 79.4606 22.241 80.2866 22.017C81.1266 21.779 81.9946 21.66 82.8906 21.66C84.5146 21.66 85.7676 22.052 86.6496 22.836C87.5456 23.606 87.9936 24.803 87.9936 26.427V33H85.5156ZM81.9876 33.147C81.1476 33.147 80.4126 33.007 79.7826 32.727C79.1526 32.433 78.6626 32.034 78.3126 31.53C77.9766 31.012 77.8086 30.431 77.8086 29.787C77.8086 29.157 77.9556 28.59 78.2496 28.086C78.5576 27.582 79.0546 27.183 79.7406 26.889C80.4266 26.595 81.3366 26.448 82.4706 26.448H85.7256V28.191H82.6596C81.7636 28.191 81.1616 28.338 80.8536 28.632C80.5456 28.912 80.3916 29.262 80.3916 29.682C80.3916 30.158 80.5806 30.536 80.9586 30.816C81.3366 31.096 81.8616 31.236 82.5336 31.236C83.1776 31.236 83.7516 31.089 84.2556 30.795C84.7736 30.501 85.1446 30.067 85.3686 29.493L85.8096 31.068C85.5576 31.726 85.1026 32.237 84.4446 32.601C83.8006 32.965 82.9816 33.147 81.9876 33.147ZM98.1654 21.66C99.0614 21.66 99.8594 21.835 100.559 22.185C101.273 22.535 101.833 23.074 102.239 23.802C102.645 24.516 102.848 25.44 102.848 26.574V33H100.223V26.91C100.223 25.916 99.9854 25.174 99.5094 24.684C99.0474 24.194 98.3964 23.949 97.5564 23.949C96.9404 23.949 96.3944 24.075 95.9184 24.327C95.4424 24.579 95.0714 24.957 94.8054 25.461C94.5534 25.951 94.4274 26.574 94.4274 27.33V33H91.8024V21.786H94.3014V24.81L93.8604 23.886C94.2524 23.172 94.8194 22.626 95.5614 22.248C96.3174 21.856 97.1854 21.66 98.1654 21.66ZM111.385 33.147C110.307 33.147 109.334 32.909 108.466 32.433C107.612 31.943 106.94 31.271 106.45 30.417C105.96 29.563 105.715 28.555 105.715 27.393C105.715 26.231 105.96 25.223 106.45 24.369C106.94 23.515 107.612 22.85 108.466 22.374C109.334 21.898 110.307 21.66 111.385 21.66C112.323 21.66 113.163 21.87 113.905 22.29C114.647 22.696 115.235 23.319 115.669 24.159C116.103 24.999 116.32 26.077 116.32 27.393C116.32 28.695 116.11 29.773 115.69 30.627C115.27 31.467 114.689 32.097 113.947 32.517C113.205 32.937 112.351 33.147 111.385 33.147ZM111.7 30.9C112.33 30.9 112.89 30.76 113.38 30.48C113.884 30.2 114.283 29.794 114.577 29.262C114.885 28.73 115.039 28.107 115.039 27.393C115.039 26.665 114.885 26.042 114.577 25.524C114.283 24.992 113.884 24.586 113.38 24.306C112.89 24.026 112.33 23.886 111.7 23.886C111.07 23.886 110.503 24.026 109.999 24.306C109.509 24.586 109.11 24.992 108.802 25.524C108.508 26.042 108.361 26.665 108.361 27.393C108.361 28.107 108.508 28.73 108.802 29.262C109.11 29.794 109.509 30.2 109.999 30.48C110.503 30.76 111.07 30.9 111.7 30.9ZM115.102 33V30.354L115.207 27.372L114.997 24.39V17.418H117.601V33H115.102ZM127.992 33V18.3H130.239L136.665 29.031H135.489L141.81 18.3H144.057L144.078 33H141.495L141.474 22.353H142.02L136.644 31.32H135.426L129.966 22.353H130.596V33H127.992ZM153.276 33.147C152.128 33.147 151.106 32.902 150.21 32.412C149.314 31.908 148.607 31.222 148.089 30.354C147.571 29.486 147.312 28.499 147.312 27.393C147.312 26.273 147.571 25.286 148.089 24.432C148.607 23.564 149.314 22.885 150.21 22.395C151.106 21.905 152.128 21.66 153.276 21.66C154.438 21.66 155.467 21.905 156.363 22.395C157.273 22.885 157.98 23.557 158.484 24.411C159.002 25.265 159.261 26.259 159.261 27.393C159.261 28.499 159.002 29.486 158.484 30.354C157.98 31.222 157.273 31.908 156.363 32.412C155.467 32.902 154.438 33.147 153.276 33.147ZM153.276 30.9C153.92 30.9 154.494 30.76 154.998 30.48C155.502 30.2 155.894 29.794 156.174 29.262C156.468 28.73 156.615 28.107 156.615 27.393C156.615 26.665 156.468 26.042 156.174 25.524C155.894 24.992 155.502 24.586 154.998 24.306C154.494 24.026 153.927 23.886 153.297 23.886C152.653 23.886 152.079 24.026 151.575 24.306C151.085 24.586 150.693 24.992 150.399 25.524C150.105 26.042 149.958 26.665 149.958 27.393C149.958 28.107 150.105 28.73 150.399 29.262C150.693 29.794 151.085 30.2 151.575 30.48C152.079 30.76 152.646 30.9 153.276 30.9ZM162.211 33V21.786H164.71V24.873L164.416 23.97C164.752 23.214 165.277 22.64 165.991 22.248C166.719 21.856 167.622 21.66 168.7 21.66V24.159C168.588 24.131 168.483 24.117 168.385 24.117C168.287 24.103 168.189 24.096 168.091 24.096C167.097 24.096 166.306 24.39 165.718 24.978C165.13 25.552 164.836 26.413 164.836 27.561V33H162.211ZM175.998 33.147C174.766 33.147 173.814 32.832 173.142 32.202C172.47 31.558 172.134 30.613 172.134 29.367V19.308H174.759V29.304C174.759 29.836 174.892 30.249 175.158 30.543C175.438 30.837 175.823 30.984 176.313 30.984C176.901 30.984 177.391 30.83 177.783 30.522L178.518 32.391C178.21 32.643 177.832 32.832 177.384 32.958C176.936 33.084 176.474 33.147 175.998 33.147ZM170.286 23.97V21.87H177.762V23.97H170.286ZM181.837 37.221C181.291 37.221 180.745 37.13 180.199 36.948C179.653 36.766 179.198 36.514 178.834 36.192L179.884 34.26C180.15 34.498 180.451 34.687 180.787 34.827C181.123 34.967 181.466 35.037 181.816 35.037C182.292 35.037 182.677 34.918 182.971 34.68C183.265 34.442 183.538 34.043 183.79 33.483L184.441 32.013L184.651 31.698L188.893 21.786H191.413L186.163 33.903C185.813 34.743 185.421 35.408 184.987 35.898C184.567 36.388 184.091 36.731 183.559 36.927C183.041 37.123 182.467 37.221 181.837 37.221ZM184.147 33.399L179.086 21.786H181.816L185.932 31.467L184.147 33.399Z" fill="#FAFAFA"/>
</svg>
