<svg width="208" height="50" viewBox="0 0 208 50" fill="none" xmlns="http://www.w3.org/2000/svg">
<path d="M0 24.9258C0 11.1597 11.1597 0 24.9258 0H182.931C196.697 0 207.857 11.1597 207.857 24.9258C207.857 38.692 196.697 49.8517 182.931 49.8517H24.9258C11.1597 49.8517 0 38.692 0 24.9258Z" fill="#A1D737"/>
<path d="M28.263 33.21C27.325 33.21 26.457 33.028 25.659 32.664C24.875 32.3 24.231 31.775 23.727 31.089L25.281 29.22C25.687 29.78 26.128 30.2 26.604 30.48C27.094 30.76 27.626 30.9 28.2 30.9C29.726 30.9 30.489 29.997 30.489 28.191V20.589H25.26V18.3H33.219V28.044C33.219 29.78 32.792 31.075 31.938 31.929C31.098 32.783 29.873 33.21 28.263 33.21ZM41.9822 33.147C41.0302 33.147 40.1902 32.972 39.4622 32.622C38.7342 32.258 38.1672 31.712 37.7612 30.984C37.3552 30.242 37.1522 29.311 37.1522 28.191V21.786H39.7772V27.834C39.7772 28.842 40.0012 29.598 40.4492 30.102C40.9112 30.592 41.5622 30.837 42.4022 30.837C43.0182 30.837 43.5502 30.711 43.9982 30.459C44.4602 30.207 44.8172 29.829 45.0692 29.325C45.3352 28.821 45.4682 28.198 45.4682 27.456V21.786H48.0932V33H45.5942V29.976L46.0352 30.9C45.6572 31.628 45.1042 32.188 44.3762 32.58C43.6482 32.958 42.8502 33.147 41.9822 33.147ZM55.4352 33.147C54.4972 33.147 53.5942 33.028 52.7262 32.79C51.8722 32.538 51.1932 32.237 50.6892 31.887L51.6972 29.892C52.2012 30.214 52.8032 30.48 53.5032 30.69C54.2032 30.9 54.9032 31.005 55.6032 31.005C56.4292 31.005 57.0242 30.893 57.3882 30.669C57.7662 30.445 57.9552 30.144 57.9552 29.766C57.9552 29.458 57.8292 29.227 57.5772 29.073C57.3252 28.905 56.9962 28.779 56.5902 28.695C56.1842 28.611 55.7292 28.534 55.2252 28.464C54.7352 28.394 54.2382 28.303 53.7342 28.191C53.2442 28.065 52.7962 27.89 52.3902 27.666C51.9842 27.428 51.6552 27.113 51.4032 26.721C51.1512 26.329 51.0252 25.811 51.0252 25.167C51.0252 24.453 51.2282 23.837 51.6342 23.319C52.0402 22.787 52.6072 22.381 53.3352 22.101C54.0772 21.807 54.9522 21.66 55.9602 21.66C56.7162 21.66 57.4792 21.744 58.2492 21.912C59.0192 22.08 59.6562 22.318 60.1602 22.626L59.1522 24.621C58.6202 24.299 58.0812 24.082 57.5352 23.97C57.0032 23.844 56.4712 23.781 55.9392 23.781C55.1412 23.781 54.5462 23.9 54.1542 24.138C53.7762 24.376 53.5872 24.677 53.5872 25.041C53.5872 25.377 53.7132 25.629 53.9652 25.797C54.2172 25.965 54.5462 26.098 54.9522 26.196C55.3582 26.294 55.8062 26.378 56.2962 26.448C56.8002 26.504 57.2972 26.595 57.7872 26.721C58.2772 26.847 58.7252 27.022 59.1312 27.246C59.5512 27.456 59.8872 27.757 60.1392 28.149C60.3912 28.541 60.5172 29.052 60.5172 29.682C60.5172 30.382 60.3072 30.991 59.8872 31.509C59.4812 32.027 58.9002 32.433 58.1442 32.727C57.3882 33.007 56.4852 33.147 55.4352 33.147ZM67.4388 33.147C66.2068 33.147 65.2548 32.832 64.5828 32.202C63.9108 31.558 63.5748 30.613 63.5748 29.367V19.308H66.1998V29.304C66.1998 29.836 66.3328 30.249 66.5988 30.543C66.8788 30.837 67.2638 30.984 67.7538 30.984C68.3418 30.984 68.8318 30.83 69.2238 30.522L69.9588 32.391C69.6508 32.643 69.2728 32.832 68.8248 32.958C68.3768 33.084 67.9148 33.147 67.4388 33.147ZM61.7268 23.97V21.87H69.2028V23.97H61.7268ZM72.5582 33V21.786H75.1832V33H72.5582ZM73.8812 19.938C73.3912 19.938 72.9852 19.784 72.6632 19.476C72.3552 19.168 72.2012 18.797 72.2012 18.363C72.2012 17.915 72.3552 17.544 72.6632 17.25C72.9852 16.942 73.3912 16.788 73.8812 16.788C74.3712 16.788 74.7702 16.935 75.0782 17.229C75.4002 17.509 75.5612 17.866 75.5612 18.3C75.5612 18.762 75.4072 19.154 75.0992 19.476C74.7912 19.784 74.3852 19.938 73.8812 19.938ZM85.4315 21.66C86.3275 21.66 87.1255 21.835 87.8255 22.185C88.5395 22.535 89.0995 23.074 89.5055 23.802C89.9115 24.516 90.1145 25.44 90.1145 26.574V33H87.4895V26.91C87.4895 25.916 87.2515 25.174 86.7755 24.684C86.3135 24.194 85.6625 23.949 84.8225 23.949C84.2065 23.949 83.6605 24.075 83.1845 24.327C82.7085 24.579 82.3375 24.957 82.0715 25.461C81.8195 25.951 81.6935 26.574 81.6935 27.33V33H79.0685V21.786H81.5675V24.81L81.1265 23.886C81.5185 23.172 82.0855 22.626 82.8275 22.248C83.5835 21.856 84.4515 21.66 85.4315 21.66ZM100.38 33V18.3H106.428C107.73 18.3 108.843 18.51 109.767 18.93C110.705 19.35 111.426 19.952 111.93 20.736C112.434 21.52 112.686 22.451 112.686 23.529C112.686 24.607 112.434 25.538 111.93 26.322C111.426 27.092 110.705 27.687 109.767 28.107C108.843 28.513 107.73 28.716 106.428 28.716H101.892L103.11 27.477V33H100.38ZM109.998 33L106.281 27.666H109.2L112.938 33H109.998ZM103.11 27.771L101.892 26.469H106.302C107.506 26.469 108.409 26.21 109.011 25.692C109.627 25.174 109.935 24.453 109.935 23.529C109.935 22.591 109.627 21.87 109.011 21.366C108.409 20.862 107.506 20.61 106.302 20.61H101.892L103.11 19.266V27.771ZM120.969 33.147C119.821 33.147 118.799 32.902 117.903 32.412C117.007 31.908 116.3 31.222 115.782 30.354C115.264 29.486 115.005 28.499 115.005 27.393C115.005 26.273 115.264 25.286 115.782 24.432C116.3 23.564 117.007 22.885 117.903 22.395C118.799 21.905 119.821 21.66 120.969 21.66C122.131 21.66 123.16 21.905 124.056 22.395C124.966 22.885 125.673 23.557 126.177 24.411C126.695 25.265 126.954 26.259 126.954 27.393C126.954 28.499 126.695 29.486 126.177 30.354C125.673 31.222 124.966 31.908 124.056 32.412C123.16 32.902 122.131 33.147 120.969 33.147ZM120.969 30.9C121.613 30.9 122.187 30.76 122.691 30.48C123.195 30.2 123.587 29.794 123.867 29.262C124.161 28.73 124.308 28.107 124.308 27.393C124.308 26.665 124.161 26.042 123.867 25.524C123.587 24.992 123.195 24.586 122.691 24.306C122.187 24.026 121.62 23.886 120.99 23.886C120.346 23.886 119.772 24.026 119.268 24.306C118.778 24.586 118.386 24.992 118.092 25.524C117.798 26.042 117.651 26.665 117.651 27.393C117.651 28.107 117.798 28.73 118.092 29.262C118.386 29.794 118.778 30.2 119.268 30.48C119.772 30.76 120.339 30.9 120.969 30.9ZM129.904 33V21.786H132.529V33H129.904ZM131.227 19.938C130.737 19.938 130.331 19.784 130.009 19.476C129.701 19.168 129.547 18.797 129.547 18.363C129.547 17.915 129.701 17.544 130.009 17.25C130.331 16.942 130.737 16.788 131.227 16.788C131.717 16.788 132.116 16.935 132.424 17.229C132.746 17.509 132.907 17.866 132.907 18.3C132.907 18.762 132.753 19.154 132.445 19.476C132.137 19.784 131.731 19.938 131.227 19.938ZM136.414 33V17.418H139.039V33H136.414ZM149.833 33V30.732L149.686 30.249V26.28C149.686 25.51 149.455 24.915 148.993 24.495C148.531 24.061 147.831 23.844 146.893 23.844C146.263 23.844 145.64 23.942 145.024 24.138C144.422 24.334 143.911 24.607 143.491 24.957L142.462 23.046C143.064 22.584 143.778 22.241 144.604 22.017C145.444 21.779 146.312 21.66 147.208 21.66C148.832 21.66 150.085 22.052 150.967 22.836C151.863 23.606 152.311 24.803 152.311 26.427V33H149.833ZM146.305 33.147C145.465 33.147 144.73 33.007 144.1 32.727C143.47 32.433 142.98 32.034 142.63 31.53C142.294 31.012 142.126 30.431 142.126 29.787C142.126 29.157 142.273 28.59 142.567 28.086C142.875 27.582 143.372 27.183 144.058 26.889C144.744 26.595 145.654 26.448 146.788 26.448H150.043V28.191H146.977C146.081 28.191 145.479 28.338 145.171 28.632C144.863 28.912 144.709 29.262 144.709 29.682C144.709 30.158 144.898 30.536 145.276 30.816C145.654 31.096 146.179 31.236 146.851 31.236C147.495 31.236 148.069 31.089 148.573 30.795C149.091 30.501 149.462 30.067 149.686 29.493L150.127 31.068C149.875 31.726 149.42 32.237 148.762 32.601C148.118 32.965 147.299 33.147 146.305 33.147ZM162.483 21.66C163.379 21.66 164.177 21.835 164.877 22.185C165.591 22.535 166.151 23.074 166.557 23.802C166.963 24.516 167.166 25.44 167.166 26.574V33H164.541V26.91C164.541 25.916 164.303 25.174 163.827 24.684C163.365 24.194 162.714 23.949 161.874 23.949C161.258 23.949 160.712 24.075 160.236 24.327C159.76 24.579 159.389 24.957 159.123 25.461C158.871 25.951 158.745 26.574 158.745 27.33V33H156.12V21.786H158.619V24.81L158.178 23.886C158.57 23.172 159.137 22.626 159.879 22.248C160.635 21.856 161.503 21.66 162.483 21.66ZM175.703 33.147C174.625 33.147 173.652 32.909 172.784 32.433C171.93 31.943 171.258 31.271 170.768 30.417C170.278 29.563 170.033 28.555 170.033 27.393C170.033 26.231 170.278 25.223 170.768 24.369C171.258 23.515 171.93 22.85 172.784 22.374C173.652 21.898 174.625 21.66 175.703 21.66C176.641 21.66 177.481 21.87 178.223 22.29C178.965 22.696 179.553 23.319 179.987 24.159C180.421 24.999 180.638 26.077 180.638 27.393C180.638 28.695 180.428 29.773 180.008 30.627C179.588 31.467 179.007 32.097 178.265 32.517C177.523 32.937 176.669 33.147 175.703 33.147ZM176.018 30.9C176.648 30.9 177.208 30.76 177.698 30.48C178.202 30.2 178.601 29.794 178.895 29.262C179.203 28.73 179.357 28.107 179.357 27.393C179.357 26.665 179.203 26.042 178.895 25.524C178.601 24.992 178.202 24.586 177.698 24.306C177.208 24.026 176.648 23.886 176.018 23.886C175.388 23.886 174.821 24.026 174.317 24.306C173.827 24.586 173.428 24.992 173.12 25.524C172.826 26.042 172.679 26.665 172.679 27.393C172.679 28.107 172.826 28.73 173.12 29.262C173.428 29.794 173.827 30.2 174.317 30.48C174.821 30.76 175.388 30.9 176.018 30.9ZM179.42 33V30.354L179.525 27.372L179.315 24.39V17.418H181.919V33H179.42Z" fill="#111111"/>
</svg>
