<svg width="134" height="108" viewBox="0 0 134 108" fill="none" xmlns="http://www.w3.org/2000/svg">
<path d="M12.9589 21.3157C20.1159 9.54337 35.4728 5.78256 47.2597 12.9157L112.233 52.236C124.019 59.3692 127.773 74.6951 120.616 86.4675C113.459 98.2398 98.1017 102.001 86.3149 94.8675L21.3419 55.5471C9.55509 48.414 5.80188 33.0881 12.9589 21.3157Z" fill="#DAF836"/>
<path d="M34.786 44.1848C33.8038 43.5904 32.9472 42.8838 32.2162 42.0651C31.4924 41.2343 31.0016 40.4382 30.7437 39.6766L32.654 38.3535C32.917 39.0527 33.3399 39.7586 33.9225 40.4712C34.5051 41.1838 35.1856 41.7757 35.9642 42.2468C36.6229 42.6455 37.1996 42.8963 37.6941 42.9992C38.1886 43.1021 38.6044 43.0919 38.9415 42.9686C39.2858 42.8334 39.5526 42.6102 39.7417 42.2992C39.9744 41.9164 40.0221 41.528 39.8848 41.134C39.7548 40.728 39.5082 40.3251 39.145 39.9253C38.8011 39.5208 38.396 39.0957 37.9298 38.6499C37.4755 38.2113 37.0261 37.7512 36.5817 37.2695C36.1565 36.7831 35.7987 36.2802 35.5082 35.7607C35.237 35.2366 35.0946 34.6759 35.081 34.0785C35.0673 33.4811 35.2641 32.8475 35.6714 32.1776C36.0859 31.4957 36.6438 30.9823 37.3449 30.6375C38.0653 30.288 38.8986 30.1705 39.8448 30.285C40.8103 30.3947 41.868 30.7975 43.0178 31.4934C43.7724 31.95 44.4628 32.4987 45.0891 33.1396C45.7153 33.7804 46.1948 34.4469 46.5276 35.1392L44.6892 36.5058C44.3298 35.8302 43.898 35.2334 43.3937 34.7154C42.8967 34.1855 42.3726 33.7539 41.8217 33.4204C41.1749 33.029 40.6006 32.7878 40.0988 32.6969C39.609 32.6132 39.192 32.639 38.8476 32.7742C38.5152 32.9167 38.2508 33.1495 38.0545 33.4725C37.8217 33.8553 37.7644 34.246 37.8824 34.6448C38.0197 35.0388 38.264 35.4321 38.6152 35.8246C38.9783 36.2244 39.3894 36.6532 39.8484 37.1109C40.3147 37.5567 40.764 38.0169 41.1965 38.4913C41.6409 38.973 42.0024 39.4699 42.2808 39.9821C42.5713 40.5015 42.7173 41.0563 42.719 41.6464C42.7327 42.2438 42.5395 42.8715 42.1395 43.5294C41.7322 44.1993 41.1684 44.709 40.448 45.0585C39.7469 45.4033 38.9136 45.5209 37.9481 45.4111C36.9898 45.2894 35.9358 44.8806 34.786 44.1848ZM42.4563 48.5812L48.2818 38.9991L50.5275 40.3582L44.7021 49.9403L42.4563 48.5812ZM50.3736 38.105C49.9544 37.8513 49.6871 37.5095 49.5716 37.0796C49.4681 36.6569 49.5291 36.2602 49.7545 35.8894C49.9872 35.5065 50.3117 35.2693 50.728 35.1775C51.1634 35.0811 51.5908 35.1597 52.01 35.4134C52.4292 35.6671 52.6942 35.9993 52.805 36.4099C52.935 36.8159 52.8873 37.2043 52.6618 37.5752C52.4218 37.9699 52.0864 38.2252 51.6557 38.3408C51.2322 38.4446 50.8048 38.3659 50.3736 38.105ZM51.5609 54.263C50.5069 53.6251 49.8561 52.8631 49.6084 51.9768C49.368 51.0786 49.5715 50.0972 50.2188 49.0325L55.4442 40.4372L57.69 41.7963L52.4973 50.3377C52.2209 50.7923 52.1201 51.2141 52.195 51.603C52.2818 51.9992 52.5348 52.3241 52.954 52.5778C53.4571 52.8823 53.9563 53.0044 54.4517 52.9442L54.1096 54.9217C53.7152 54.9776 53.2936 54.9434 52.8449 54.8191C52.3961 54.6948 51.9681 54.5094 51.5609 54.263ZM51.4414 43.464L52.5323 41.6696L58.9283 45.5403L57.8373 47.3347L51.4414 43.464ZM60.0266 59.3863C59.0205 58.7774 58.2495 58.0244 57.7135 57.1273C57.1968 56.2255 56.9423 55.2697 56.95 54.2598C56.9578 53.2499 57.2489 52.2724 57.8235 51.3274C58.4053 50.3703 59.1396 49.6611 60.0264 49.1995C60.9205 48.726 61.8841 48.5155 62.9171 48.568C63.9622 48.6277 64.9878 48.962 65.9939 49.5708C66.9281 50.1362 67.6322 50.8242 68.1062 51.6346C68.5994 52.4404 68.8098 53.3205 68.7374 54.2749L66.4018 54.236C66.3907 53.6074 66.241 53.0586 65.9527 52.5896C65.6764 52.1278 65.2987 51.752 64.8196 51.462C64.2686 51.1286 63.6988 50.9474 63.1102 50.9185C62.5216 50.8895 61.9633 51.0263 61.4354 51.3286C60.9148 51.619 60.4654 52.0753 60.0872 52.6973C59.709 53.3194 59.5075 53.9338 59.4827 54.5406C59.4651 55.1355 59.6052 55.6866 59.9029 56.1941C60.2006 56.7015 60.625 57.1219 61.1759 57.4554C61.655 57.7453 62.1636 57.9059 62.7018 57.937C63.2519 57.9753 63.8089 57.8542 64.3727 57.5736L65.4865 59.6222C64.6789 60.1153 63.7957 60.3418 62.8371 60.3016C61.8977 60.2568 60.9608 59.9517 60.0266 59.3863ZM70.6122 65.7924C69.63 65.1981 68.8829 64.4596 68.3709 63.577C67.8662 62.6824 67.6177 61.7302 67.6254 60.7203C67.6332 59.7104 67.9243 58.7329 68.4989 57.7879C69.0807 56.8309 69.815 56.1216 70.7018 55.6601C71.5959 55.1866 72.5535 54.9724 73.5746 55.0176C74.5957 55.0628 75.5973 55.3826 76.5795 55.977C77.5736 56.5786 78.3266 57.3208 78.8387 58.2034C79.3626 59.0932 79.6184 60.0335 79.606 61.0241C79.6055 62.0221 79.3107 63.0055 78.7216 63.9745C78.1471 64.9196 77.4128 65.6288 76.5187 66.1023C75.6366 66.5831 74.6754 66.8032 73.635 66.7627C72.6139 66.7175 71.6063 66.3941 70.6122 65.7924ZM71.7794 63.8724C72.3304 64.2059 72.8942 64.3834 73.4709 64.4051C74.0475 64.4268 74.5938 64.2828 75.1097 63.9732C75.6376 63.6709 76.087 63.2146 76.4579 62.6045C76.8361 61.9825 77.0339 61.374 77.0515 60.7792C77.0883 60.1796 76.9639 59.6297 76.6781 59.1295C76.3924 58.6293 75.98 58.2161 75.4411 57.89C74.8901 57.5565 74.3263 57.379 73.7496 57.3573C73.185 57.3428 72.6387 57.4868 72.1108 57.7892C71.5902 58.0796 71.1408 58.5358 70.7626 59.1579C70.3917 59.768 70.1938 60.3764 70.169 60.9832C70.1442 61.59 70.2686 62.1399 70.5424 62.6328C70.8281 63.1331 71.2405 63.5462 71.7794 63.8724ZM96.333 67.9314C97.0995 68.3953 97.6853 68.9544 98.0904 69.6087C98.5075 70.2702 98.6946 71.0134 98.6518 71.8384C98.6162 72.6515 98.3039 73.5425 97.7148 74.5115L94.3766 80.0024L92.1309 78.6433L95.2945 73.4395C95.8109 72.5902 96.0107 71.8438 95.8939 71.2004C95.7772 70.557 95.3714 70.0251 94.6767 69.6047C94.1857 69.3075 93.683 69.1506 93.1688 69.1339C92.6666 69.1246 92.1805 69.264 91.7103 69.5522C91.2522 69.8477 90.8267 70.3184 90.434 70.9644L87.4776 75.8273L85.2318 74.4682L88.3955 69.2644C88.9119 68.415 89.1117 67.6686 88.9949 67.0252C88.8782 66.3818 88.4724 65.8499 87.7777 65.4295C87.2867 65.1323 86.784 64.9754 86.2698 64.9588C85.7676 64.9494 85.2815 65.0888 84.8113 65.3771C84.3532 65.6725 83.9277 66.1433 83.535 66.7893L80.5786 71.6521L78.3328 70.293L84.1583 60.7109L86.2963 62.0047L84.7472 64.5528L84.8281 63.5708C85.5297 63.1445 86.284 62.9546 87.0913 63.0013C87.9105 63.0552 88.7153 63.3214 89.5058 63.7998C90.4041 64.3434 91.0481 65.0359 91.4378 65.8772C91.8394 66.7257 91.8753 67.6638 91.5455 68.6915L90.8506 67.8537C91.5983 67.3244 92.4625 67.0619 93.4429 67.0661C94.4234 67.0704 95.3867 67.3588 96.333 67.9314Z" fill="#111111"/>
</svg>
