<svg width="152" height="50" viewBox="0 0 152 50" fill="none" xmlns="http://www.w3.org/2000/svg">
<path d="M151.895 24.9258C151.895 38.692 140.736 49.8517 126.97 49.8517H24.9258C11.1597 49.8517 0 38.692 0 24.9258C0 11.1597 11.1597 0 24.9258 0H126.97C140.736 0 151.895 11.1597 151.895 24.9258Z" fill="#A1D737"/>
<path d="M129 16.8517L122.385 31.5517H119.697L113.061 16.8517H115.917L121.608 30.1027H120.516L126.186 16.8517H129ZM125.955 20.2537L125.22 22.3957H117.282L116.547 20.2537H125.955ZM96.8499 28.1917C95.9539 28.1917 95.1629 28.0167 94.4769 27.6667C93.7769 27.3167 93.2309 26.7777 92.8389 26.0497C92.4469 25.3357 92.2509 24.4117 92.2509 23.2777V16.8517H94.8759V22.9417C94.8759 23.9357 95.0929 24.6777 95.5269 25.1677C95.9609 25.6577 96.5839 25.9027 97.3959 25.9027C97.9699 25.9027 98.4809 25.7767 98.9289 25.5247C99.3629 25.2727 99.7059 24.9017 99.9579 24.4117C100.196 23.9217 100.315 23.2987 100.315 22.5427V16.8517H102.94V22.9417C102.94 23.9357 103.157 24.6777 103.591 25.1677C104.025 25.6577 104.648 25.9027 105.46 25.9027C106.034 25.9027 106.545 25.7767 106.993 25.5247C107.427 25.2727 107.77 24.9017 108.022 24.4117C108.26 23.9217 108.379 23.2987 108.379 22.5427V16.8517H111.004V28.0657H108.505V25.0837L108.946 25.9657C108.568 26.6937 108.022 27.2467 107.308 27.6247C106.58 28.0027 105.754 28.1917 104.83 28.1917C103.78 28.1917 102.87 27.9327 102.1 27.4147C101.316 26.8967 100.798 26.1127 100.546 25.0627L101.575 25.4197C101.211 26.2597 100.609 26.9317 99.7689 27.4357C98.9289 27.9397 97.9559 28.1917 96.8499 28.1917ZM81.5474 16.8517V19.1197L81.6944 19.6027V23.5717C81.6944 24.3417 81.9254 24.9367 82.3874 25.3567C82.8494 25.7907 83.5494 26.0077 84.4874 26.0077C85.1174 26.0077 85.7404 25.9097 86.3564 25.7137C86.9584 25.5177 87.4694 25.2447 87.8894 24.8947L88.9184 26.8057C88.3164 27.2677 87.6024 27.6107 86.7764 27.8347C85.9364 28.0727 85.0684 28.1917 84.1724 28.1917C82.5484 28.1917 81.2954 27.7997 80.4134 27.0157C79.5174 26.2457 79.0694 25.0487 79.0694 23.4247V16.8517H81.5474ZM85.0754 16.7047C85.9154 16.7047 86.6504 16.8447 87.2804 17.1247C87.9104 17.4187 88.4004 17.8177 88.7504 18.3217C89.0864 18.8397 89.2544 19.4207 89.2544 20.0647C89.2544 20.6947 89.1074 21.2617 88.8134 21.7657C88.5054 22.2697 88.0084 22.6687 87.3224 22.9627C86.6364 23.2567 85.7264 23.4037 84.5924 23.4037H81.3374V21.6607H84.4034C85.2994 21.6607 85.9014 21.5137 86.2094 21.2197C86.5174 20.9397 86.6714 20.5897 86.6714 20.1697C86.6714 19.6937 86.4824 19.3157 86.1044 19.0357C85.7264 18.7557 85.2014 18.6157 84.5294 18.6157C83.8854 18.6157 83.3114 18.7627 82.8074 19.0567C82.2894 19.3507 81.9184 19.7847 81.6944 20.3587L81.2534 18.7837C81.5054 18.1257 81.9604 17.6147 82.6184 17.2507C83.2624 16.8867 84.0814 16.7047 85.0754 16.7047ZM76.1846 16.8517V18.5107L69.2756 26.8687L68.7926 25.9657H76.0586V28.0657H66.6926V26.4067L73.6016 18.0487L74.1266 18.9517H66.5036V16.8517H76.1846ZM63.6438 16.8517V28.0657H61.0188V16.8517H63.6438ZM62.3208 29.9137C62.8108 29.9137 63.2168 30.0677 63.5388 30.3757C63.8468 30.6837 64.0008 31.0547 64.0008 31.4887C64.0008 31.9367 63.8468 32.3077 63.5388 32.6017C63.2168 32.9097 62.8108 33.0637 62.3208 33.0637C61.8308 33.0637 61.4318 32.9167 61.1238 32.6227C60.8018 32.3427 60.6408 31.9857 60.6408 31.5517C60.6408 31.0897 60.7948 30.6977 61.1028 30.3757C61.4108 30.0677 61.8168 29.9137 62.3208 29.9137ZM50.7705 28.1917C49.8745 28.1917 49.0765 28.0167 48.3765 27.6667C47.6625 27.3167 47.1025 26.7777 46.6965 26.0497C46.2905 25.3357 46.0875 24.4117 46.0875 23.2777V16.8517H48.7125V22.9417C48.7125 23.9357 48.9505 24.6777 49.4265 25.1677C49.8885 25.6577 50.5395 25.9027 51.3795 25.9027C51.9955 25.9027 52.5415 25.7767 53.0175 25.5247C53.4935 25.2727 53.8645 24.8947 54.1305 24.3907C54.3825 23.9007 54.5085 23.2777 54.5085 22.5217V16.8517H57.1335V28.0657H54.6345V25.0417L55.0755 25.9657C54.6835 26.6797 54.1165 27.2257 53.3745 27.6037C52.6185 27.9957 51.7505 28.1917 50.7705 28.1917ZM37.215 12.6307C38.251 12.6307 39.266 12.7707 40.26 13.0507C41.24 13.3167 42.045 13.7087 42.675 14.2267L41.499 16.2007C41.009 15.7947 40.393 15.4727 39.651 15.2347C38.895 14.9827 38.132 14.8567 37.362 14.8567C36.13 14.8567 35.227 15.1437 34.653 15.7177C34.079 16.2777 33.792 17.1247 33.792 18.2587V20.2537L33.582 22.7947L33.666 25.3357V28.0657H31.167V18.5527C31.167 16.5227 31.685 15.0317 32.721 14.0797C33.757 13.1137 35.255 12.6307 37.215 12.6307ZM37.551 17.3557C38.615 17.3557 39.581 17.5797 40.449 18.0277C41.303 18.4897 41.982 19.1267 42.486 19.9387C42.976 20.7507 43.221 21.7027 43.221 22.7947C43.221 23.8727 42.976 24.8177 42.486 25.6297C41.982 26.4417 41.303 27.0717 40.449 27.5197C39.581 27.9677 38.615 28.1917 37.551 28.1917C36.599 28.1917 35.745 28.0027 34.989 27.6247C34.233 27.2467 33.631 26.6587 33.183 25.8607C32.721 25.0627 32.49 24.0407 32.49 22.7947C32.49 21.5487 32.721 20.5197 33.183 19.7077C33.631 18.9097 34.233 18.3147 34.989 17.9227C35.745 17.5447 36.599 17.3557 37.551 17.3557ZM37.152 19.5817C36.494 19.5817 35.906 19.7147 35.388 19.9807C34.87 20.2607 34.471 20.6387 34.191 21.1147C33.897 21.6047 33.75 22.1647 33.75 22.7947C33.75 23.4247 33.897 23.9777 34.191 24.4537C34.471 24.9437 34.87 25.3147 35.388 25.5667C35.906 25.8327 36.494 25.9657 37.152 25.9657C37.81 25.9657 38.405 25.8327 38.937 25.5667C39.455 25.3147 39.861 24.9437 40.155 24.4537C40.435 23.9777 40.575 23.4247 40.575 22.7947C40.575 22.1647 40.435 21.6047 40.155 21.1147C39.861 20.6387 39.455 20.2607 38.937 19.9807C38.405 19.7147 37.81 19.5817 37.152 19.5817ZM27.108 21.7237L27.612 31.5517H24.504L25.029 21.7237H27.108ZM26.058 16.7047C26.548 16.7047 26.954 16.8657 27.276 17.1877C27.598 17.5097 27.759 17.8947 27.759 18.3427C27.759 18.7907 27.598 19.1687 27.276 19.4767C26.954 19.7987 26.548 19.9597 26.058 19.9597C25.568 19.9597 25.169 19.7987 24.861 19.4767C24.553 19.1687 24.399 18.7907 24.399 18.3427C24.399 17.8947 24.553 17.5097 24.861 17.1877C25.169 16.8657 25.568 16.7047 26.058 16.7047Z" fill="#111111"/>
</svg>
