<svg width="165" height="127" viewBox="0 0 165 127" fill="none" xmlns="http://www.w3.org/2000/svg">
<path d="M151.485 21.3384C158.621 33.1233 154.841 48.4425 143.041 55.5549L47.207 113.322C35.4077 120.435 20.0575 116.647 12.9212 104.862C5.78504 93.077 9.56521 77.7577 21.3645 70.6453L117.199 12.8781C128.998 5.76572 144.348 9.55353 151.485 21.3384Z" fill="#DAF836"/>
<path d="M122.514 29.2255C123.521 28.6184 124.547 28.2859 125.592 28.2281C126.633 28.1894 127.599 28.4076 128.493 28.8827C129.386 29.3577 130.119 30.0683 130.692 31.0144C131.272 31.9724 131.561 32.9504 131.56 33.9483C131.566 34.9582 131.306 35.9076 130.781 36.7965C130.243 37.6927 129.471 38.4443 128.464 39.0514C127.528 39.6152 126.591 39.9187 125.652 39.9619C124.707 40.0243 123.828 39.8022 123.014 39.2958L124.132 37.2491C124.695 37.5307 125.252 37.6528 125.802 37.6154C126.34 37.5852 126.849 37.4256 127.329 37.1365C127.88 36.804 128.305 36.3843 128.604 35.8774C128.902 35.3705 129.04 34.8136 129.016 34.2067C129 33.6119 128.803 33.0031 128.426 32.3803C128.049 31.7576 127.596 31.2946 127.069 30.9913C126.549 30.7 125.995 30.5683 125.406 30.5962C124.817 30.6241 124.247 30.8043 123.696 31.1367C123.216 31.4258 122.838 31.801 122.56 32.2623C122.271 32.7309 122.121 33.2794 122.108 33.9079L119.773 33.9427C119.709 33.0001 119.918 32.1144 120.398 31.2856C120.873 30.4759 121.578 29.7893 122.514 29.2255ZM116.681 46.1538C115.914 46.6163 115.14 46.8786 114.359 46.9406C113.566 47.0098 112.807 46.8378 112.082 46.4247C111.365 46.0235 110.712 45.3379 110.125 44.3679L106.797 38.8712L109.045 37.516L112.199 42.7254C112.714 43.5756 113.302 44.0875 113.964 44.2609C114.613 44.4415 115.298 44.315 116.017 43.8814C116.545 43.5634 116.947 43.1737 117.224 42.7124C117.501 42.2511 117.623 41.7363 117.59 41.1678C117.552 40.6186 117.337 40.0206 116.946 39.3739L114.009 34.5238L116.257 33.1687L124.328 46.4975L122.08 47.8526L118.251 41.5295L119.215 42.0272C119.249 42.8403 119.046 43.6001 118.607 44.3065C118.162 45.0321 117.52 45.6478 116.681 46.1538ZM97.6506 44.3841L98.8254 46.3242L99.2015 46.6614L101.257 50.0565C101.656 50.7152 102.162 51.1049 102.775 51.2256C103.396 51.3584 104.108 51.1826 104.911 50.6984C105.451 50.3731 105.933 49.9677 106.36 49.482C106.774 49.0036 107.07 48.5063 107.248 47.99L109.119 49.0935C108.843 49.7995 108.409 50.4615 107.818 51.0795C107.222 51.7167 106.54 52.2666 105.773 52.7292C104.382 53.5676 103.106 53.8791 101.944 53.6638C100.778 53.4677 99.7742 52.6751 98.933 51.2859L95.5284 45.6634L97.6506 44.3841ZM100.596 42.4371C101.315 42.0034 102.017 41.7437 102.702 41.658C103.394 41.5843 104.02 41.6726 104.581 41.923C105.137 42.1927 105.582 42.6029 105.915 43.1538C106.242 43.6927 106.41 44.2536 106.419 44.8365C106.416 45.4266 106.197 46.0245 105.762 46.6301C105.327 47.2358 104.623 47.8313 103.652 48.4167L100.865 50.0971L99.9617 48.6061L102.588 47.0233C103.355 46.5608 103.794 46.1243 103.906 45.7138C104.025 45.3152 103.975 44.9364 103.758 44.5771C103.511 44.1699 103.153 43.9442 102.685 43.8998C102.216 43.8554 101.694 44.0067 101.118 44.3536C100.567 44.6861 100.151 45.1081 99.8719 45.6198C99.5805 46.1387 99.4876 46.7015 99.5931 47.3081L98.3996 46.1885C98.2746 45.4956 98.3995 44.8236 98.7745 44.1725C99.1375 43.5287 99.7447 42.9502 100.596 42.4371ZM92.2663 47.6297L98.0749 57.2221L95.9346 58.5122L94.3356 55.8716L95.0552 56.4923C95.159 57.3124 95.0067 58.0744 94.5982 58.7783C94.1778 59.4895 93.5059 60.1233 92.5827 60.6798L91.2883 58.5422C91.3987 58.5083 91.4959 58.4661 91.5798 58.4155C91.671 58.3769 91.7586 58.3323 91.8425 58.2817C92.6938 57.7685 93.2189 57.1087 93.418 56.3022C93.6242 55.5076 93.4301 54.6193 92.8354 53.6373L90.0181 48.9849L92.2663 47.6297ZM79.1927 55.5102L80.3675 57.4503L80.7436 57.7875L82.7994 61.1826C83.1983 61.8412 83.7043 62.2309 84.3175 62.3517C84.938 62.4844 85.6499 62.3087 86.4532 61.8245C86.9928 61.4992 87.4756 61.0938 87.9017 60.6081C88.3157 60.1297 88.6119 59.6323 88.7904 59.1161L90.6615 60.2196C90.3852 60.9255 89.9514 61.5875 89.36 62.2056C88.7639 62.8428 88.0821 63.3927 87.3147 63.8553C85.9239 64.6936 84.6477 65.0052 83.4862 64.7899C82.32 64.5938 81.3163 63.8012 80.4751 62.412L77.0705 56.7895L79.1927 55.5102ZM82.1381 53.5632C82.8575 53.1295 83.5595 52.8698 84.2441 52.7841C84.936 52.7103 85.5623 52.7987 86.1231 53.0491C86.6792 53.3188 87.124 53.729 87.4576 54.2799C87.7839 54.8188 87.9517 55.3797 87.961 55.9626C87.9582 56.5527 87.7393 57.1506 87.304 57.7562C86.8688 58.3618 86.1656 58.9574 85.1944 59.5428L82.4067 61.2232L81.5038 59.7322L84.1297 58.1494C84.897 57.6869 85.3365 57.2503 85.448 56.8398C85.5667 56.4413 85.5173 56.0624 85.2998 55.7032C85.0532 55.296 84.6956 55.0702 84.2268 55.0259C83.758 54.9815 83.2359 55.1328 82.6603 55.4797C82.1088 55.8121 81.6933 56.2342 81.414 56.7459C81.1226 57.2648 81.0297 57.8276 81.1352 58.4342L79.9417 57.3146C79.8167 56.6217 79.9417 55.9497 80.3166 55.2986C80.6797 54.6548 81.2868 54.0763 82.1381 53.5632ZM69.3083 61.2967C70.3155 60.6896 71.3417 60.3571 72.3868 60.2993C73.4272 60.2606 74.3941 60.4788 75.2873 60.9539C76.1805 61.4289 76.9136 62.1395 77.4865 63.0856C78.0666 64.0436 78.356 65.0216 78.3548 66.0195C78.3607 67.0294 78.1009 67.9788 77.5754 68.8678C77.0378 69.7639 76.2655 70.5155 75.2583 71.1226C74.3231 71.6864 73.3857 71.9899 72.4462 72.0331C71.502 72.0955 70.6229 71.8734 69.8089 71.367L70.9263 69.3203C71.4896 69.6019 72.0464 69.724 72.5966 69.6866C73.1348 69.6564 73.6437 69.4968 74.1233 69.2077C74.6748 68.8752 75.0999 68.4555 75.3985 67.9486C75.6971 67.4417 75.8345 66.8848 75.8108 66.2779C75.7942 65.6831 75.5974 65.0743 75.2203 64.4516C74.8433 63.8288 74.391 63.3658 73.8637 63.0625C73.3436 62.7712 72.7892 62.6395 72.2005 62.6674C71.6119 62.6953 71.0417 62.8755 70.4902 63.2079C70.0106 63.497 69.6322 63.8722 69.3551 64.3335C69.066 64.8021 68.9153 65.3506 68.9031 65.9791L66.5674 66.0139C66.504 65.0713 66.7123 64.1856 67.1924 63.3568C67.6678 62.5471 68.3731 61.8605 69.3083 61.2967ZM59.1495 67.4203C60.2046 66.7843 61.1831 66.5622 62.085 66.7542C62.9941 66.9582 63.7713 67.5931 64.4167 68.6589L69.627 77.2633L67.3789 78.6185L62.2012 70.0679C61.9256 69.6129 61.5978 69.3282 61.2177 69.2141C60.8256 69.1071 60.4197 69.1802 60.0001 69.4331C59.4965 69.7367 59.1566 70.1214 58.9804 70.5872L57.3828 69.3679C57.5161 68.9933 57.7419 68.6365 58.0604 68.2975C58.3788 67.9584 58.7418 67.666 59.1495 67.4203ZM68.7949 72.3214L69.8827 74.1178L63.4799 77.9772L62.3922 76.1809L68.7949 72.3214ZM50.5669 72.5937C51.634 71.9505 52.6961 71.5963 53.7533 71.5312C54.8057 71.4853 55.7785 71.6999 56.6718 72.175C57.553 72.6573 58.2801 73.3714 58.853 74.3175C59.4331 75.2756 59.7345 76.2463 59.7572 77.2298C59.7752 78.2324 59.5393 79.1674 59.0498 80.0347C58.5482 80.9091 57.8178 81.6355 56.8586 82.2137C55.9234 82.7774 54.9668 83.0761 53.9888 83.1098C53.0108 83.1435 52.0872 82.9156 51.218 82.4261C50.3487 81.9366 49.6095 81.1888 49.0004 80.1829C48.9424 80.0871 48.8831 79.9757 48.8226 79.8487C48.7501 79.729 48.6872 79.6116 48.6339 79.4966L56.6373 74.6723L57.5401 76.1632L50.7237 80.272L51.3222 79.2738C51.6438 79.8319 52.0514 80.2482 52.545 80.5228C53.0386 80.7974 53.5678 80.928 54.1325 80.9145C54.6852 80.9083 55.2313 80.7426 55.7708 80.4173C56.3224 80.0849 56.7355 79.6724 57.0101 79.1799C57.2727 78.6947 57.3934 78.1642 57.3722 77.5886C57.3462 77.0321 57.1591 76.4664 56.811 75.8916L56.5935 75.5324C56.2454 74.9575 55.8053 74.5281 55.2732 74.244C54.7411 73.9599 54.1628 73.8426 53.5381 73.8922C52.9135 73.9418 52.2894 74.1545 51.6659 74.5303C51.1264 74.8556 50.6915 75.2321 50.3614 75.66C50.0313 76.0878 49.8071 76.5826 49.689 77.1442L47.6464 76.4874C47.7735 75.7242 48.0833 75.0062 48.576 74.3332C49.0639 73.6795 49.7276 73.0996 50.5669 72.5937ZM43.5924 76.9694L49.401 86.5618L47.2607 87.8519L45.6617 85.2113L46.3813 85.832C46.4851 86.6521 46.3328 87.4141 45.9243 88.1181C45.5039 88.8292 44.832 89.463 43.9088 90.0195L42.6144 87.8819C42.7248 87.848 42.822 87.8058 42.9059 87.7552C42.9971 87.7166 43.0847 87.672 43.1686 87.6214C44.0199 87.1083 44.5451 86.4484 44.7441 85.6419C44.9503 84.8473 44.7562 83.9591 44.1615 82.9771L41.3442 78.3246L43.5924 76.9694ZM32.6195 83.4121C33.4228 82.9278 34.2578 82.5635 35.1245 82.3189C35.9864 82.0936 36.7238 82.0006 37.3368 82.0398L37.5068 84.2667C36.9084 84.2514 36.2551 84.3347 35.5468 84.5164C34.8385 84.6981 34.1846 84.9697 33.5851 85.3311C32.8777 85.7575 32.4261 86.1605 32.2304 86.54C32.0227 86.9267 32.0167 87.2818 32.2125 87.6051C32.372 87.8686 32.5996 88.0011 32.8952 88.0028C33.198 88.0164 33.5451 87.9543 33.9363 87.8166C34.3275 87.6788 34.7571 87.5098 35.225 87.3095C35.6809 87.1164 36.1537 86.9377 36.6434 86.7733C37.1283 86.6281 37.6026 86.5465 38.0663 86.5285C38.5373 86.5225 38.9823 86.6221 39.4011 86.8274C39.82 87.0326 40.1962 87.4106 40.5298 87.9615C40.8996 88.5722 41.0449 89.204 40.9655 89.8567C40.8933 90.5213 40.618 91.1613 40.1395 91.7767C39.6564 92.4112 38.9831 92.9887 38.1198 93.509C37.4723 93.8993 36.7754 94.2214 36.0289 94.4752C35.2824 94.729 34.6136 94.8542 34.0224 94.851L33.8523 92.6241C34.4747 92.6249 35.0488 92.5322 35.5744 92.3462C36.0953 92.1793 36.5835 91.9585 37.0392 91.6839C37.7226 91.2719 38.1706 90.863 38.383 90.457C38.5835 90.0583 38.5894 89.7033 38.4009 89.3919C38.2268 89.1045 37.9884 88.954 37.6856 88.9404C37.3827 88.9267 37.032 88.9828 36.6336 89.1086C36.2351 89.2344 35.8079 89.3938 35.352 89.5869C34.8913 89.7992 34.4185 89.9779 33.9336 90.1231C33.4487 90.2682 32.9744 90.3498 32.5106 90.3678C32.0422 90.405 31.5985 90.321 31.1796 90.1158C30.7607 89.9106 30.3881 89.5385 30.0618 88.9996C29.6992 88.4008 29.5636 87.7715 29.655 87.1116C29.7344 86.4589 30.0217 85.8116 30.5169 85.1699C31.0194 84.5401 31.7202 83.9541 32.6195 83.4121Z" fill="#111111"/>
</svg>
