<svg width="124" height="50" viewBox="0 0 124 50" fill="none" xmlns="http://www.w3.org/2000/svg">
<path d="M123.915 24.9258C123.915 38.692 112.755 49.8517 98.9888 49.8517H24.9259C11.1597 49.8517 7.62939e-06 38.692 7.62939e-06 24.9258C7.62939e-06 11.1597 11.1597 0 24.9258 0H98.9888C112.755 0 123.915 11.1597 123.915 24.9258Z" fill="#0D171D"/>
<path d="M97.9346 17.8517V29.1317C97.9346 30.2517 97.608 31.145 96.9546 31.8117C96.288 32.4917 95.3413 32.8317 94.1146 32.8317C93.6746 32.8317 93.2613 32.785 92.8746 32.6917C92.4746 32.5983 92.1413 32.4517 91.8746 32.2517L92.5546 30.3717C92.7413 30.5183 92.9546 30.625 93.1946 30.6917C93.4346 30.7717 93.6813 30.8117 93.9346 30.8117C94.4546 30.8117 94.848 30.665 95.1146 30.3717C95.3813 30.0917 95.5146 29.665 95.5146 29.0917V27.8917L95.4346 26.7717V17.8517H97.9346ZM99.6946 26.4517V28.4517H92.5746V26.4517H99.6946ZM85.8081 17.7117C86.9014 17.7117 87.8747 17.945 88.7281 18.4117C89.5814 18.8917 90.2547 19.545 90.7481 20.3717C91.2414 21.1983 91.4881 22.1383 91.4881 23.1917C91.4881 24.2583 91.2414 25.1983 90.7481 26.0117C90.2547 26.8383 89.5814 27.485 88.7281 27.9517C87.8747 28.4183 86.9014 28.6517 85.8081 28.6517C84.7014 28.6517 83.7214 28.4183 82.8681 27.9517C82.0014 27.485 81.3281 26.845 80.8481 26.0317C80.3547 25.2183 80.1081 24.2717 80.1081 23.1917C80.1081 22.1383 80.3547 21.1983 80.8481 20.3717C81.3281 19.545 82.0014 18.8917 82.8681 18.4117C83.7214 17.945 84.7014 17.7117 85.8081 17.7117ZM85.8081 19.8517C85.1947 19.8517 84.6481 19.985 84.1681 20.2517C83.6881 20.5183 83.3147 20.905 83.0481 21.4117C82.7681 21.9183 82.6281 22.5117 82.6281 23.1917C82.6281 23.885 82.7681 24.4783 83.0481 24.9717C83.3147 25.4783 83.6881 25.865 84.1681 26.1317C84.6481 26.3983 85.1881 26.5317 85.7881 26.5317C86.4014 26.5317 86.9481 26.3983 87.4281 26.1317C87.8947 25.865 88.2681 25.4783 88.5481 24.9717C88.8281 24.4783 88.9681 23.885 88.9681 23.1917C88.9681 22.5117 88.8281 21.9183 88.5481 21.4117C88.2681 20.905 87.8947 20.5183 87.4281 20.2517C86.9481 19.985 86.4081 19.8517 85.8081 19.8517ZM77.2775 17.8517V32.6917H74.7775V17.8517H77.2775ZM71.0562 17.8517V32.6917H68.5562V17.8517H71.0562ZM60.035 17.7117C61.1283 17.7117 62.1016 17.945 62.955 18.4117C63.8083 18.8917 64.4816 19.545 64.975 20.3717C65.4683 21.1983 65.715 22.1383 65.715 23.1917C65.715 24.2583 65.4683 25.1983 64.975 26.0117C64.4816 26.8383 63.8083 27.485 62.955 27.9517C62.1016 28.4183 61.1283 28.6517 60.035 28.6517C58.9283 28.6517 57.9483 28.4183 57.095 27.9517C56.2283 27.485 55.555 26.845 55.075 26.0317C54.5816 25.2183 54.335 24.2717 54.335 23.1917C54.335 22.1383 54.5816 21.1983 55.075 20.3717C55.555 19.545 56.2283 18.8917 57.095 18.4117C57.9483 17.945 58.9283 17.7117 60.035 17.7117ZM60.035 19.8517C59.4216 19.8517 58.875 19.985 58.395 20.2517C57.915 20.5183 57.5416 20.905 57.275 21.4117C56.995 21.9183 56.855 22.5117 56.855 23.1917C56.855 23.885 56.995 24.4783 57.275 24.9717C57.5416 25.4783 57.915 25.865 58.395 26.1317C58.875 26.3983 59.415 26.5317 60.015 26.5317C60.6283 26.5317 61.175 26.3983 61.655 26.1317C62.1216 25.865 62.495 25.4783 62.775 24.9717C63.055 24.4783 63.195 23.885 63.195 23.1917C63.195 22.5117 63.055 21.9183 62.775 21.4117C62.495 20.905 62.1216 20.5183 61.655 20.2517C61.175 19.985 60.635 19.8517 60.035 19.8517ZM49.4373 17.8517L53.3573 28.5317H50.9973L47.6373 19.1117H48.7573L45.2373 28.5317H43.1373L39.7173 19.1117H40.8173L37.3573 28.5317H35.1373L39.0773 17.8517H41.4773L44.5973 26.1917H43.8573L47.0373 17.8517H49.4373ZM29.8151 17.7117C30.7084 17.7117 31.5684 17.825 32.3951 18.0517C33.2084 18.2917 33.8551 18.5783 34.3351 18.9117L33.3751 20.8117C32.8951 20.505 32.3218 20.2517 31.6551 20.0517C30.9884 19.8517 30.3218 19.7517 29.6551 19.7517C28.8684 19.7517 28.3018 19.8583 27.9551 20.0717C27.5951 20.285 27.4151 20.5717 27.4151 20.9317C27.4151 21.225 27.5351 21.445 27.7751 21.5917C28.0151 21.7517 28.3284 21.8717 28.7151 21.9517C29.1018 22.0317 29.5351 22.105 30.0151 22.1717C30.4818 22.2383 30.9551 22.325 31.4351 22.4317C31.9018 22.5517 32.3284 22.7183 32.7151 22.9317C33.1018 23.1583 33.4151 23.4583 33.6551 23.8317C33.8951 24.205 34.0151 24.6983 34.0151 25.3117C34.0151 25.9917 33.8218 26.5783 33.4351 27.0717C33.0484 27.5783 32.5084 27.965 31.8151 28.2317C31.1084 28.5117 30.2751 28.6517 29.3151 28.6517C28.5951 28.6517 27.8684 28.5717 27.1351 28.4117C26.4018 28.2517 25.7951 28.025 25.3151 27.7317L26.2751 25.8317C26.7818 26.1383 27.2951 26.345 27.8151 26.4517C28.3218 26.5717 28.8284 26.6317 29.3351 26.6317C30.0951 26.6317 30.6618 26.5183 31.0351 26.2917C31.3951 26.065 31.5751 25.7783 31.5751 25.4317C31.5751 25.1117 31.4551 24.8717 31.2151 24.7117C30.9751 24.5517 30.6618 24.425 30.2751 24.3317C29.8884 24.2383 29.4618 24.1583 28.9951 24.0917C28.5151 24.0383 28.0418 23.9517 27.5751 23.8317C27.1084 23.7117 26.6818 23.545 26.2951 23.3317C25.8951 23.1317 25.5751 22.845 25.3351 22.4717C25.0951 22.0983 24.9751 21.6117 24.9751 21.0117C24.9751 20.345 25.1751 19.765 25.5751 19.2717C25.9618 18.7783 26.5151 18.3917 27.2351 18.1117C27.9551 17.845 28.8151 17.7117 29.8151 17.7117Z" fill="#DAF836"/>
</svg>
